<svg width="20" height="17" viewBox="0 0 20 17" fill="none" xmlns="http://www.w3.org/2000/svg">
<g id="Hide view">
<path id="Vector" d="M18.1974 1.36228L17.448 0.612922C17.2362 0.40114 16.8452 0.433733 16.6009 0.726927L13.994 3.31726C12.8209 2.81228 11.534 2.56791 10.1818 2.56791C6.1576 2.58413 2.67141 4.9301 0.993255 8.30268C0.895477 8.51447 0.895477 8.77506 0.993255 8.95426C1.77519 10.5509 2.94826 11.8705 4.41451 12.8643L2.28031 15.031C2.03593 15.2754 2.00334 15.6664 2.16631 15.8782L2.91566 16.6275C3.12745 16.8393 3.51843 16.8067 3.76281 16.5135L18.0668 2.20956C18.3763 1.96532 18.4089 1.57436 18.1972 1.36256L18.1974 1.36228ZM11.0452 6.28224C10.7682 6.21706 10.475 6.13564 10.1981 6.13564C8.81322 6.13564 7.70551 7.2435 7.70551 8.6282C7.70551 8.90516 7.77069 9.19836 7.8521 9.47534L6.76045 10.5506C6.43466 9.98046 6.25546 9.34498 6.25546 8.62823C6.25546 6.46147 7.99869 4.71824 10.1655 4.71824C10.8824 4.71824 11.5177 4.89743 12.0879 5.22322L11.0452 6.28224Z" fill="#807D7E"/>
<path id="Vector_2" d="M19.3703 8.30285C18.8001 7.16239 18.0506 6.13608 17.1221 5.30518L14.0918 8.30285V8.62864C14.0918 10.7954 12.3485 12.5386 10.1818 12.5386H9.85599L7.93359 14.461C8.65049 14.6076 9.39985 14.7054 10.133 14.7054C14.1571 14.7054 17.6433 12.3594 19.3215 8.97062C19.4681 8.74247 19.4681 8.51448 19.3703 8.30268L19.3703 8.30285Z" fill="#807D7E"/>
</g>
</svg>
