<svg width="59" height="59" viewBox="0 0 59 59" fill="none" xmlns="http://www.w3.org/2000/svg">
<g id="Icon">
<path id="Vector" d="M34.2608 19.4187L33.7029 18.5391H30.3268V26.4616L30.3154 34.2003C30.3211 34.2577 30.3268 34.321 30.3268 34.3784C30.3268 36.316 28.751 37.8969 26.807 37.8969C24.8629 37.8969 23.287 36.3217 23.287 34.3784C23.287 32.4408 24.8629 30.8599 26.807 30.8599C27.2096 30.8599 27.6006 30.9346 27.9629 31.061V27.1975C27.5892 27.1344 27.2037 27.0998 26.807 27.0998C22.7981 27.1055 19.5312 30.3711 19.5312 34.3841C19.5312 38.3973 22.7981 41.6628 26.8127 41.6628C30.8273 41.6628 34.0941 38.3973 34.0941 34.3841V25.1795C35.5492 26.634 37.4299 28.0541 39.5119 28.5083V24.5586C37.2516 23.5583 35.0029 20.6031 34.2608 19.4187Z" fill="#195908"/>
</g>
</svg>
