<svg id="splitsvg" version="1.1" xmlns="http://www.w3.org/2000/svg" xmlns:xlink="http://www.w3.org/1999/xlink" width="1380" height="460"><g id="svgg"><path id="path0" d="M0.000 100.000 L 0.000 200.000 200.000 200.000 L 400.000 200.000 400.000 100.000 L 400.000 0.000 200.000 0.000 L 0.000 0.000 0.000 100.000 M197.227 58.414 C 197.418 58.517,197.737 58.600,197.937 58.599 C 199.164 58.597,203.512 61.081,203.718 61.901 C 203.877 62.534,203.825 62.606,201.274 65.327 C 191.062 76.215,183.841 88.264,179.909 100.978 C 179.250 103.107,179.233 103.106,181.007 101.050 C 193.864 86.152,199.185 83.431,205.799 88.373 C 208.652 90.504,208.687 90.922,206.273 94.024 C 199.522 102.699,193.054 115.434,194.704 116.803 C 195.006 117.054,196.700 116.991,197.435 116.701 C 197.904 116.516,198.600 117.271,198.600 117.965 C 198.600 118.912,197.286 119.784,193.745 121.185 C 188.319 123.331,185.027 118.970,187.379 112.750 C 187.472 112.502,187.656 111.940,187.787 111.500 C 187.917 111.060,188.147 110.385,188.296 110.000 C 189.216 107.629,189.877 105.993,190.214 105.252 C 190.426 104.786,190.600 104.348,190.600 104.279 C 190.600 104.210,190.915 103.481,191.300 102.659 C 191.685 101.837,192.000 101.128,192.000 101.083 C 192.000 100.997,193.565 97.633,194.235 96.280 C 194.943 94.851,194.687 94.652,193.300 95.552 C 192.060 96.357,188.048 99.878,187.533 100.614 C 187.373 100.843,186.714 101.586,186.069 102.265 C 184.939 103.456,182.262 106.901,180.370 109.600 C 178.080 112.865,174.923 118.444,173.325 122.047 C 171.689 125.737,170.361 125.693,168.888 121.900 C 168.208 120.147,168.436 114.928,169.400 110.200 C 170.098 106.777,171.569 101.198,172.379 98.900 C 172.495 98.570,172.827 97.490,173.117 96.500 C 173.828 94.073,174.485 92.180,175.650 89.200 C 176.188 87.825,176.807 86.205,177.025 85.600 C 177.569 84.092,181.300 76.547,182.712 74.100 C 183.921 72.003,187.179 66.772,187.382 66.600 C 187.447 66.545,188.019 65.735,188.653 64.800 C 190.300 62.371,193.412 58.558,194.000 58.248 C 194.537 57.964,196.583 58.070,197.227 58.414 M96.300 65.193 C 104.109 66.130,109.355 69.406,111.045 74.400 C 111.731 76.427,111.822 76.848,111.924 78.439 C 112.381 85.580,107.419 92.599,99.299 96.299 C 96.147 97.736,94.644 98.221,92.437 98.514 C 91.184 98.680,90.870 98.984,91.159 99.750 C 91.273 100.052,91.611 100.975,91.909 101.800 C 94.131 107.941,99.247 116.659,103.442 121.451 C 105.111 123.358,105.111 123.330,103.425 125.017 C 99.380 129.061,95.680 128.685,92.829 123.939 C 91.602 121.897,89.685 117.446,88.893 114.800 C 88.712 114.195,88.496 113.520,88.412 113.300 C 88.035 112.308,87.739 111.373,87.275 109.700 C 87.000 108.710,86.694 107.630,86.596 107.300 C 85.743 104.449,85.257 102.703,84.879 101.134 C 84.431 99.278,84.357 99.200,83.043 99.199 C 82.414 99.198,81.663 99.074,81.373 98.923 C 80.678 98.560,80.562 98.660,79.816 100.262 C 76.271 107.869,72.218 119.308,71.392 124.037 C 71.302 124.552,71.132 125.153,71.014 125.374 C 70.896 125.594,70.800 126.001,70.800 126.280 C 70.800 129.251,63.197 124.329,62.107 120.653 C 62.012 120.332,62.380 119.311,63.405 117.053 C 65.203 113.087,65.445 112.557,66.082 111.181 C 66.367 110.565,66.600 110.008,66.600 109.943 C 66.600 109.877,66.960 109.048,67.400 108.100 C 67.840 107.152,68.200 106.347,68.200 106.310 C 68.200 106.207,72.992 94.969,73.313 94.319 C 73.471 94.000,73.600 93.669,73.600 93.584 C 73.600 93.499,73.902 92.770,74.271 91.965 C 77.174 85.632,80.499 76.245,80.079 75.567 C 79.745 75.025,74.524 77.310,71.486 79.328 C 70.599 79.918,69.695 80.400,69.477 80.400 C 68.738 80.400,66.804 77.957,65.913 75.900 C 65.723 75.460,65.439 74.804,65.283 74.443 C 64.521 72.675,65.031 71.910,67.900 70.516 C 72.381 68.340,79.335 66.335,85.100 65.557 C 88.835 65.053,93.790 64.892,96.300 65.193 M94.797 71.882 C 93.143 72.182,92.935 72.305,93.210 72.819 C 93.396 73.167,92.174 75.911,91.614 76.400 C 91.239 76.728,83.400 92.465,83.400 92.890 C 83.400 93.084,84.642 93.139,85.597 92.988 C 86.204 92.892,87.645 92.725,88.800 92.616 C 90.666 92.441,91.933 92.225,94.700 91.612 C 100.651 90.295,106.509 85.947,107.690 81.972 C 109.779 74.938,103.786 70.248,94.797 71.882 M231.088 72.650 C 231.378 73.008,231.972 73.733,232.408 74.262 C 233.369 75.430,233.389 75.780,232.550 76.749 C 231.471 77.995,230.768 79.769,230.650 81.546 C 230.465 84.311,232.252 87.237,235.418 89.356 C 239.615 92.164,241.442 93.721,243.954 96.627 C 245.564 98.490,247.400 101.649,247.400 102.555 C 247.400 102.763,247.458 102.992,247.529 103.063 C 248.253 103.786,248.862 111.891,248.223 112.286 C 248.125 112.346,247.984 112.723,247.909 113.122 C 247.834 113.522,247.697 113.996,247.604 114.175 C 247.511 114.354,247.284 114.931,247.098 115.458 C 246.913 115.985,246.557 116.660,246.309 116.958 C 246.060 117.256,245.717 117.770,245.547 118.100 C 245.177 118.820,242.567 121.339,241.610 121.900 C 241.235 122.120,240.517 122.542,240.014 122.839 C 239.511 123.135,238.974 123.382,238.819 123.389 C 238.279 123.411,236.296 124.464,235.402 125.204 C 234.162 126.231,232.544 126.537,230.589 126.114 C 229.993 125.985,229.783 126.040,229.289 126.455 C 228.306 127.280,226.789 127.722,225.872 127.449 C 225.447 127.323,224.869 127.173,224.588 127.116 C 224.306 127.058,223.824 126.795,223.517 126.532 C 223.001 126.088,222.787 126.051,220.664 126.038 L 218.370 126.024 217.235 125.086 C 216.159 124.197,214.679 123.400,214.104 123.400 C 213.117 123.400,209.462 121.046,208.085 119.523 C 200.828 111.498,203.012 97.985,212.600 91.592 C 212.985 91.336,213.579 90.895,213.920 90.613 C 214.262 90.331,214.844 89.920,215.213 89.700 C 215.583 89.480,216.072 89.165,216.300 89.000 C 216.528 88.835,217.026 88.520,217.407 88.300 C 219.930 86.844,222.796 83.183,223.590 80.400 C 224.189 78.304,226.738 73.270,227.485 72.709 C 227.930 72.375,228.896 72.135,230.230 72.027 C 230.412 72.012,230.798 72.293,231.088 72.650 M274.257 74.078 C 274.501 74.230,275.029 74.413,275.431 74.483 C 276.506 74.671,278.559 78.956,278.602 81.100 C 278.609 81.430,278.743 81.925,278.900 82.200 C 279.057 82.475,279.189 83.184,279.193 83.775 C 279.201 85.036,280.269 87.376,281.598 89.044 C 282.039 89.599,282.400 90.125,282.400 90.215 C 282.400 90.433,284.479 92.389,285.159 92.811 C 285.894 93.268,291.000 98.368,291.000 98.646 C 291.000 98.769,291.154 99.039,291.343 99.248 C 291.532 99.456,291.887 99.959,292.132 100.364 C 292.543 101.043,292.758 101.467,293.832 103.700 C 294.282 104.635,294.559 105.642,294.817 107.281 C 294.919 107.931,295.098 108.577,295.214 108.717 C 295.513 109.077,295.326 113.201,294.939 114.800 C 294.354 117.216,294.262 117.498,293.704 118.600 C 292.687 120.609,288.995 125.000,288.323 125.000 C 288.221 125.000,287.859 125.207,287.519 125.461 C 286.310 126.361,284.208 127.073,280.865 127.716 C 280.626 127.762,280.176 128.011,279.865 128.269 C 278.532 129.375,275.318 129.777,274.065 128.994 C 273.745 128.794,273.503 128.842,272.646 129.277 C 270.725 130.250,268.463 129.897,267.062 128.406 C 266.527 127.837,266.403 127.803,264.509 127.707 L 262.518 127.606 261.409 126.525 C 260.450 125.590,257.605 123.629,256.847 123.381 C 256.502 123.268,253.000 119.786,253.000 119.557 C 253.000 119.456,252.785 119.087,252.521 118.737 C 251.962 117.993,251.001 115.949,250.504 114.445 C 249.957 112.787,250.023 107.142,250.609 105.500 C 252.596 99.934,255.993 96.119,262.301 92.370 C 263.291 91.782,264.506 91.122,265.001 90.906 C 265.495 90.689,265.945 90.464,266.000 90.406 C 266.055 90.347,266.487 90.109,266.960 89.876 C 271.478 87.652,273.288 81.912,270.571 78.423 C 270.010 77.702,270.088 76.682,270.750 76.089 C 271.053 75.818,271.537 75.363,271.826 75.078 C 273.025 73.896,273.594 73.662,274.257 74.078 M225.721 79.418 C 225.366 80.130,225.291 80.891,225.595 80.703 C 225.816 80.566,226.274 79.008,226.134 78.867 C 226.083 78.817,225.897 79.065,225.721 79.418 M276.726 81.358 C 276.560 81.627,276.803 82.800,277.025 82.800 C 277.121 82.800,277.199 82.553,277.197 82.250 C 277.193 81.601,276.909 81.062,276.726 81.358 M161.019 82.710 C 163.282 83.880,167.815 88.684,168.594 90.737 C 169.549 93.258,166.602 100.200,164.577 100.200 C 163.334 100.200,162.947 99.051,163.607 97.320 C 164.682 94.503,164.160 92.619,162.372 92.858 C 159.298 93.271,157.589 97.066,157.273 104.179 C 157.105 107.956,156.991 107.800,159.924 107.800 C 161.537 107.800,162.040 107.868,162.293 108.121 C 162.961 108.789,161.974 110.095,160.649 110.296 C 157.504 110.773,157.200 111.138,157.200 114.442 C 157.200 116.962,157.099 117.653,156.361 120.195 C 154.583 126.319,146.161 131.201,141.524 128.796 C 137.370 126.640,135.817 124.172,136.502 120.816 C 137.860 114.172,143.478 109.168,150.564 108.290 C 151.228 108.208,151.672 108.046,151.743 107.860 C 151.955 107.306,151.205 103.447,149.962 98.700 C 149.806 98.105,149.700 96.565,149.700 94.897 L 149.700 92.094 150.785 89.911 C 153.211 85.029,158.418 81.365,161.019 82.710 M312.022 84.911 C 314.002 85.935,317.200 90.319,317.200 92.010 C 317.200 92.599,315.688 95.481,313.324 99.400 C 307.028 109.834,305.953 112.566,310.099 107.600 C 324.487 90.366,332.050 85.934,336.677 92.025 C 337.921 93.662,337.872 93.938,336.073 95.400 C 334.439 96.728,330.149 105.086,328.733 109.700 C 328.089 111.799,327.950 112.560,327.856 114.500 C 327.705 117.606,328.105 118.100,330.377 117.620 C 330.995 117.489,331.734 117.333,332.021 117.273 C 332.622 117.146,333.405 117.947,333.394 118.677 C 333.370 120.245,328.704 122.498,325.757 122.364 C 318.500 122.034,316.957 114.418,321.922 103.444 C 323.226 100.563,321.345 101.580,316.377 106.443 C 312.209 110.522,309.982 113.179,304.520 120.581 C 301.148 125.153,300.577 125.611,299.258 124.807 C 297.038 123.454,295.826 118.382,296.890 114.900 C 297.058 114.350,297.197 113.658,297.198 113.362 C 297.199 113.066,297.278 112.775,297.374 112.716 C 297.469 112.657,297.606 112.224,297.678 111.754 C 297.872 110.489,299.842 104.207,300.204 103.700 C 300.283 103.590,300.507 103.005,300.702 102.400 C 300.897 101.795,301.269 100.856,301.528 100.313 C 301.788 99.769,302.000 99.257,302.000 99.174 C 302.000 98.602,305.942 90.799,307.461 88.366 C 309.759 84.684,310.499 84.124,312.022 84.911 M130.443 86.378 C 131.134 87.026,132.147 88.241,132.694 89.078 L 133.688 90.600 134.854 90.600 C 137.909 90.600,138.900 92.437,138.900 98.100 C 138.900 108.349,133.395 117.248,124.256 121.772 C 120.225 123.768,117.936 124.302,116.057 123.686 C 109.521 121.543,106.688 114.841,108.663 106.200 C 110.976 96.079,120.723 85.304,127.643 85.219 L 129.185 85.200 130.443 86.378 M218.573 91.131 C 216.342 93.177,214.529 95.082,214.201 95.724 C 213.771 96.563,213.200 97.382,212.350 98.378 C 211.938 98.861,211.600 99.379,211.600 99.528 C 211.600 99.804,211.358 99.891,211.155 99.689 C 211.094 99.627,211.259 99.173,211.522 98.678 C 211.785 98.183,212.000 97.678,212.000 97.555 C 212.000 97.432,212.144 97.172,212.321 96.977 C 212.497 96.783,212.603 96.508,212.556 96.368 C 212.499 96.198,212.342 96.274,212.085 96.596 C 211.873 96.862,211.461 97.315,211.170 97.602 C 210.248 98.509,209.458 99.958,208.738 102.061 C 207.539 105.565,207.520 105.657,207.820 106.525 C 207.982 106.994,208.076 108.050,208.057 109.200 C 208.035 110.557,208.108 111.227,208.313 111.543 C 208.471 111.787,208.600 112.149,208.600 112.349 C 208.600 112.972,209.962 114.947,210.482 115.078 C 210.760 115.147,211.044 115.428,211.161 115.749 C 211.492 116.659,212.582 117.811,212.592 117.262 C 212.596 117.021,212.510 116.768,212.400 116.700 C 212.290 116.632,212.200 116.272,212.200 115.900 C 212.200 115.528,212.099 115.161,211.976 115.085 C 211.829 114.994,211.794 114.582,211.875 113.896 C 211.985 112.960,211.955 112.835,211.599 112.742 C 211.023 112.591,211.035 111.302,211.615 110.992 C 212.000 110.786,212.029 110.606,212.005 108.535 C 211.963 104.845,212.298 103.052,213.527 100.400 C 214.650 97.974,215.753 97.155,215.254 99.118 C 215.097 99.733,215.025 100.292,215.093 100.360 C 215.286 100.553,216.185 99.351,216.193 98.890 C 216.197 98.664,216.276 98.394,216.368 98.290 C 216.460 98.185,216.874 97.290,217.288 96.300 C 217.701 95.310,218.539 93.485,219.149 92.245 C 220.496 89.506,220.447 89.411,218.573 91.131 M233.400 91.273 C 233.400 91.355,233.881 92.159,234.468 93.061 C 236.517 96.206,237.788 98.499,238.591 100.500 C 239.617 103.055,240.178 104.961,240.619 107.400 C 240.849 108.665,241.084 109.745,241.142 109.800 C 241.427 110.068,240.619 103.772,240.243 102.798 C 240.137 102.524,239.939 101.940,239.801 101.500 C 239.192 99.554,237.762 96.719,236.518 94.993 C 236.005 94.282,235.374 93.385,235.116 93.000 C 234.610 92.247,233.400 91.030,233.400 91.273 M130.800 93.088 C 123.692 95.727,116.212 107.020,116.202 115.127 C 116.200 117.404,116.575 118.919,117.314 119.613 L 117.772 120.044 119.136 119.607 C 127.725 116.859,133.976 105.501,132.632 95.085 C 132.331 92.753,132.171 92.579,130.800 93.088 M225.264 93.047 C 225.174 93.186,225.009 93.480,224.897 93.700 C 224.786 93.920,224.420 94.181,224.085 94.281 C 223.512 94.451,221.800 97.528,221.800 98.389 C 221.800 98.836,221.140 100.701,220.870 101.016 C 220.722 101.189,220.600 101.605,220.600 101.939 C 220.600 102.273,220.432 102.761,220.226 103.023 C 219.926 103.406,219.823 104.015,219.706 106.100 C 219.593 108.126,219.473 108.858,219.164 109.414 C 218.812 110.047,218.792 110.253,218.987 111.214 C 219.529 113.884,219.772 114.772,220.099 115.271 C 220.325 115.615,220.409 116.006,220.335 116.373 C 220.176 117.169,220.383 117.800,220.802 117.800 C 221.248 117.800,221.289 117.687,221.616 115.550 C 221.973 113.215,222.283 113.464,222.911 116.590 C 223.075 117.410,224.153 118.600,224.387 118.221 C 224.471 118.085,224.598 116.788,224.670 115.337 C 224.961 109.484,225.072 108.400,225.379 108.400 C 225.474 108.400,225.601 109.772,225.663 111.450 C 225.770 114.398,226.085 116.256,226.500 116.390 C 226.796 116.486,227.192 115.601,227.211 114.800 C 227.241 113.575,227.527 113.164,227.699 114.100 C 227.779 114.540,227.906 115.212,227.980 115.593 L 228.115 116.285 228.607 115.493 C 229.025 114.820,229.110 114.402,229.169 112.738 C 229.233 110.913,229.270 110.763,229.692 110.603 C 230.374 110.344,230.436 109.982,230.412 106.411 C 230.389 103.010,230.354 102.766,229.957 103.163 C 229.512 103.608,229.357 103.403,229.492 102.550 C 229.813 100.521,229.735 99.505,229.254 99.437 C 228.918 99.389,228.755 99.168,228.593 98.537 C 227.673 94.958,227.115 93.716,226.888 94.742 C 226.821 95.049,226.694 95.525,226.606 95.800 L 226.448 96.300 226.197 95.700 C 226.059 95.370,225.902 94.626,225.848 94.046 C 225.746 92.954,225.546 92.611,225.264 93.047 M266.500 93.592 C 263.971 95.537,260.002 100.937,259.128 103.624 C 257.474 108.707,256.438 114.088,257.400 112.600 C 257.507 112.435,257.595 111.795,257.597 111.178 C 257.599 110.542,257.817 109.372,258.100 108.480 C 258.375 107.614,258.600 106.806,258.600 106.686 C 258.600 105.360,262.941 98.209,265.265 95.708 C 265.805 95.127,267.649 92.788,267.548 92.811 C 267.522 92.818,267.050 93.169,266.500 93.592 M281.334 93.850 C 281.402 94.208,281.615 94.905,281.806 95.400 C 281.998 95.895,282.442 97.335,282.795 98.600 C 284.076 103.202,284.415 104.214,284.628 104.083 C 284.756 104.004,284.789 103.621,284.712 103.107 C 284.617 102.479,284.662 102.197,284.886 102.011 C 285.356 101.621,286.586 104.545,286.605 106.100 C 286.609 106.430,286.722 106.844,286.856 107.020 C 287.095 107.333,287.115 108.630,286.917 111.000 C 286.579 115.053,286.564 115.600,286.791 115.600 C 286.938 115.600,287.001 115.876,286.962 116.350 C 286.923 116.819,286.806 117.081,286.650 117.050 C 286.512 117.023,286.399 117.158,286.397 117.350 C 286.393 117.846,285.911 119.169,285.634 119.446 C 285.505 119.575,285.400 119.874,285.400 120.112 C 285.400 120.350,285.178 120.872,284.906 121.272 C 284.182 122.339,284.836 122.247,285.768 121.150 C 286.710 120.043,288.406 118.396,289.073 117.941 C 289.363 117.743,289.600 117.411,289.600 117.202 C 289.600 116.994,289.679 116.775,289.776 116.715 C 290.128 116.497,290.632 114.533,290.507 113.867 C 290.350 113.031,290.764 111.587,291.264 111.223 C 291.566 111.003,291.620 110.795,291.522 110.223 C 291.454 109.825,291.278 108.780,291.130 107.900 C 290.983 107.020,290.768 106.075,290.654 105.800 C 290.539 105.525,290.303 104.805,290.128 104.200 C 289.775 102.979,287.800 100.025,287.800 100.717 C 287.800 100.941,287.932 101.298,288.094 101.512 C 288.525 102.083,288.496 103.048,288.050 102.962 C 287.704 102.896,287.260 102.155,286.758 100.806 C 286.026 98.839,284.304 96.346,282.250 94.281 C 281.893 93.921,281.600 93.531,281.600 93.413 C 281.600 93.296,281.512 93.200,281.405 93.200 C 281.293 93.200,281.263 93.476,281.334 93.850 M213.508 94.649 C 213.284 94.969,213.261 95.120,213.429 95.176 C 213.660 95.253,214.200 94.682,214.200 94.362 C 214.200 94.047,213.819 94.206,213.508 94.649 M275.121 95.916 C 275.055 96.090,274.996 96.473,274.992 96.766 C 274.987 97.060,274.717 97.612,274.392 97.992 L 273.800 98.685 273.800 97.442 C 273.800 95.753,273.600 95.871,272.608 98.150 C 272.141 99.223,271.610 100.325,271.429 100.600 C 271.248 100.875,271.054 101.325,270.999 101.600 C 270.933 101.926,270.741 102.122,270.449 102.164 C 270.085 102.216,270.000 102.356,270.000 102.902 C 270.000 103.273,269.910 103.632,269.800 103.700 C 269.690 103.768,269.600 104.068,269.600 104.367 C 269.600 104.666,269.443 105.134,269.250 105.405 C 268.243 106.828,267.902 110.669,268.719 111.379 C 269.154 111.758,269.206 111.930,269.105 112.658 C 268.727 115.389,269.170 118.670,269.836 118.067 C 270.239 117.703,270.244 117.705,270.580 118.350 C 270.899 118.963,271.328 118.916,271.493 118.250 C 271.567 117.947,271.842 117.475,272.104 117.200 C 272.495 116.788,272.590 116.451,272.640 115.300 C 272.703 113.836,272.980 113.534,273.262 114.622 C 273.357 114.991,273.337 115.494,273.212 115.853 C 272.985 116.502,272.924 120.595,273.129 121.360 C 273.335 122.130,274.086 121.867,274.160 121.000 C 274.192 120.615,274.395 119.918,274.610 119.452 C 274.824 118.986,275.003 118.491,275.006 118.352 C 275.010 118.213,275.145 117.925,275.306 117.712 C 275.468 117.498,275.600 117.133,275.600 116.900 C 275.600 116.667,275.728 116.302,275.884 116.088 C 276.295 115.526,276.536 116.563,276.228 117.568 C 276.104 117.971,276.011 118.660,276.021 119.100 C 276.031 119.540,275.975 120.192,275.897 120.550 C 275.607 121.874,276.345 121.288,277.346 119.400 C 277.492 119.125,277.742 118.675,277.903 118.400 C 278.063 118.125,278.195 117.739,278.197 117.542 C 278.199 117.345,278.367 116.850,278.572 116.442 C 279.426 114.738,279.754 106.091,279.002 105.100 C 278.808 104.844,278.624 103.885,278.408 102.000 C 278.313 101.175,278.093 100.165,277.918 99.756 C 277.743 99.347,277.600 98.792,277.600 98.523 C 277.600 97.760,277.399 97.410,276.779 97.089 C 276.464 96.926,276.068 96.525,275.898 96.197 C 275.555 95.532,275.304 95.442,275.121 95.916 M286.337 98.330 C 286.281 98.386,286.520 98.852,286.867 99.366 C 287.417 100.178,287.508 100.242,287.563 99.855 C 287.656 99.203,286.679 97.988,286.337 98.330 M211.000 100.600 C 211.000 100.820,210.915 101.000,210.812 101.000 C 210.543 101.000,210.354 100.636,210.500 100.400 C 210.709 100.062,211.000 100.178,211.000 100.600 M288.700 103.567 C 288.700 103.928,288.309 103.862,288.231 103.488 C 288.188 103.279,288.263 103.188,288.431 103.244 C 288.579 103.293,288.700 103.438,288.700 103.567 M289.200 104.900 C 289.200 105.065,289.110 105.200,289.000 105.200 C 288.890 105.200,288.800 105.065,288.800 104.900 C 288.800 104.735,288.890 104.600,289.000 104.600 C 289.110 104.600,289.200 104.735,289.200 104.900 M233.925 106.108 C 233.732 106.610,233.777 112.400,233.974 112.400 C 234.232 112.400,234.387 110.378,234.309 108.036 C 234.239 105.951,234.152 105.516,233.925 106.108 M264.938 107.274 C 264.851 107.589,264.830 107.897,264.890 107.957 C 265.099 108.166,265.230 107.834,265.163 107.268 L 265.095 106.700 264.938 107.274 M241.046 111.000 C 241.046 111.385,241.088 111.543,241.138 111.350 C 241.188 111.158,241.188 110.843,241.138 110.650 C 241.088 110.458,241.046 110.615,241.046 111.000 M273.597 111.150 C 273.595 111.343,273.507 111.635,273.400 111.800 C 273.253 112.028,273.205 111.943,273.203 111.450 C 273.201 111.093,273.290 110.800,273.400 110.800 C 273.510 110.800,273.599 110.958,273.597 111.150 M279.682 112.475 C 279.512 112.917,279.738 113.142,280.043 112.837 C 280.224 112.656,280.224 112.544,280.047 112.367 C 279.869 112.189,279.782 112.214,279.682 112.475 M149.359 114.183 C 144.794 117.122,141.711 121.900,142.898 124.196 C 144.343 126.991,151.483 119.079,151.828 114.300 C 151.930 112.889,151.407 112.864,149.359 114.183 M270.800 114.040 C 270.800 114.363,270.741 114.421,270.577 114.257 C 270.455 114.135,270.415 113.937,270.489 113.817 C 270.696 113.483,270.800 113.557,270.800 114.040 M287.600 114.840 C 287.600 115.163,287.541 115.221,287.377 115.057 C 287.255 114.935,287.215 114.737,287.289 114.617 C 287.496 114.283,287.600 114.357,287.600 114.840 M270.721 116.316 C 270.655 116.490,270.597 116.738,270.594 116.866 C 270.591 116.995,270.496 116.942,270.383 116.748 C 270.164 116.373,270.289 116.000,270.633 116.000 C 270.748 116.000,270.788 116.142,270.721 116.316  M -25 0 L -5 0 L -5 20 L -25 20 Z M 405 0 L 425 0 L 425 20 L 405 20 Z" stroke="none" fill="#fbfbfb" fill-rule="evenodd" transform="translate(30,0)"></path><path id="path1" d="M192.983 60.350 C 185.552 69.390,178.858 81.551,175.010 93.000 C 174.696 93.935,174.345 94.925,174.231 95.200 C 173.900 95.995,172.600 100.131,172.062 102.100 C 171.593 103.817,171.134 105.799,170.232 110.000 C 168.728 117.003,168.925 122.041,170.766 123.676 C 171.303 124.153,172.133 123.383,172.730 121.853 C 176.174 113.031,185.218 100.735,192.049 95.587 C 196.216 92.447,196.524 93.127,193.691 99.205 C 191.134 104.691,191.200 104.545,191.200 104.674 C 191.200 104.737,190.987 105.263,190.727 105.844 C 186.935 114.310,186.569 119.254,189.619 120.810 C 191.479 121.758,198.279 119.137,197.723 117.687 C 197.639 117.469,197.479 117.405,197.248 117.498 C 192.166 119.530,192.685 114.581,198.642 104.214 C 201.262 99.654,206.337 92.233,207.200 91.700 C 208.302 91.019,204.718 87.985,201.780 87.113 C 197.649 85.886,191.719 89.699,184.370 98.308 C 178.532 105.147,178.723 104.953,178.469 104.291 C 178.277 103.791,179.727 98.709,180.691 96.500 C 180.835 96.170,181.068 95.585,181.208 95.200 C 181.348 94.815,181.618 94.140,181.808 93.700 C 181.998 93.260,182.445 92.225,182.801 91.400 C 187.006 81.666,192.306 73.895,201.450 64.057 C 202.303 63.140,203.000 62.309,203.000 62.211 C 203.000 61.569,199.005 59.431,197.040 59.021 C 194.674 58.528,194.410 58.614,192.983 60.350 M87.300 66.028 C 78.726 67.109,66.410 70.922,65.725 72.708 C 65.386 73.590,67.787 78.341,69.036 79.262 L 69.571 79.657 71.206 78.608 C 74.331 76.604,79.895 74.164,80.667 74.460 C 81.216 74.670,81.124 75.386,80.115 78.750 C 79.168 81.908,77.622 86.180,76.587 88.500 C 75.952 89.925,73.538 95.597,72.545 98.000 C 72.158 98.935,71.618 100.195,71.344 100.800 C 71.070 101.405,70.481 102.810,70.035 103.922 C 69.590 105.035,68.961 106.520,68.638 107.222 C 66.896 111.009,66.156 112.671,65.498 114.274 C 65.098 115.249,64.327 116.976,63.785 118.111 C 62.595 120.605,62.601 120.370,63.684 121.889 C 65.329 124.193,67.597 125.969,69.341 126.318 C 70.064 126.463,69.931 126.779,71.008 122.371 C 72.535 116.124,75.804 107.157,79.175 99.970 C 80.363 97.436,80.357 97.441,81.465 98.090 C 82.119 98.473,82.615 98.600,83.463 98.600 C 84.740 98.600,85.032 98.862,85.360 100.300 C 85.461 100.740,85.781 101.910,86.071 102.900 C 87.108 106.437,88.045 109.711,88.217 110.400 C 88.451 111.335,89.767 115.221,90.688 117.700 C 94.240 127.256,97.841 129.378,102.702 124.781 C 104.111 123.448,104.094 123.301,102.289 121.242 C 99.235 117.758,94.853 110.532,92.733 105.483 C 92.460 104.832,91.839 103.354,91.352 102.198 C 89.976 98.928,89.976 98.001,91.355 97.999 C 91.655 97.999,92.890 97.739,94.100 97.422 C 105.736 94.373,112.780 85.553,110.890 76.400 C 109.289 68.648,99.757 64.457,87.300 66.028 M101.958 71.385 C 111.840 73.620,110.954 85.799,100.598 90.071 C 100.104 90.274,99.536 90.526,99.337 90.631 C 94.567 93.118,82.600 94.797,82.600 92.978 C 82.600 92.219,90.579 76.482,92.095 74.251 C 92.616 73.483,92.750 72.716,92.400 72.500 C 90.499 71.325,97.884 70.464,101.958 71.385 M158.571 83.378 C 151.870 86.030,148.883 92.974,151.207 100.500 C 151.612 101.811,152.247 104.981,152.389 106.400 C 152.578 108.285,152.423 108.748,151.559 108.875 C 148.405 109.338,147.772 109.508,145.900 110.392 C 139.226 113.548,135.087 121.119,137.953 124.929 C 140.797 128.708,144.017 129.544,148.453 127.655 C 153.788 125.382,156.126 121.495,156.382 114.471 C 156.533 110.333,156.381 110.518,160.400 109.560 C 161.274 109.352,161.513 109.209,161.562 108.866 C 161.622 108.447,161.551 108.432,159.204 108.367 C 156.166 108.283,156.345 108.544,156.478 104.400 C 156.683 97.977,158.179 93.946,160.871 92.560 C 163.885 91.008,165.836 93.332,164.500 96.881 C 163.161 100.438,165.089 100.304,166.782 96.723 C 169.051 91.923,168.389 89.845,163.126 85.240 C 160.684 83.103,159.986 82.817,158.571 83.378 M309.966 85.981 C 308.333 87.896,304.784 94.432,302.789 99.200 C 296.910 113.249,295.865 120.274,299.151 123.650 C 300.379 124.912,300.652 124.701,304.262 119.700 C 310.465 111.106,317.674 103.322,321.319 101.282 C 323.816 99.885,324.009 100.477,322.304 104.300 C 317.888 114.197,319.606 121.800,326.259 121.800 C 328.121 121.800,332.600 119.539,332.600 118.599 C 332.600 118.063,331.996 117.949,331.008 118.297 C 326.628 119.843,325.798 115.572,328.851 107.200 C 330.510 102.651,333.573 97.098,335.644 94.885 L 336.843 93.603 336.228 92.644 C 334.266 89.585,331.563 89.156,327.984 91.333 C 324.083 93.706,318.097 99.235,313.698 104.526 C 312.613 105.832,311.360 107.308,310.913 107.807 C 310.466 108.306,309.515 109.416,308.800 110.273 C 308.085 111.130,307.275 111.947,307.000 112.088 C 304.712 113.264,306.486 109.317,313.447 97.736 C 314.428 96.105,315.531 94.143,315.899 93.375 L 316.568 91.978 316.155 91.039 C 315.177 88.814,313.400 86.590,311.897 85.709 C 310.779 85.054,310.753 85.057,309.966 85.981 M125.889 86.081 C 120.491 87.771,114.315 94.237,110.925 101.745 C 105.461 113.847,111.242 125.741,120.975 122.420 C 131.296 118.897,138.189 109.149,138.219 98.029 C 138.233 92.970,137.283 91.257,134.341 91.037 L 133.181 90.951 132.351 89.725 C 129.948 86.177,128.388 85.298,125.889 86.081 M132.410 92.368 C 133.377 93.151,133.713 97.671,133.110 101.800 C 131.807 110.727,126.523 117.925,119.533 120.295 C 117.442 121.004,116.989 120.880,116.252 119.398 C 112.561 111.972,121.858 94.992,131.143 92.202 C 131.931 91.965,131.909 91.962,132.410 92.368 M152.581 112.384 C 153.975 113.267,151.207 119.573,148.000 122.820 C 144.658 126.203,142.776 126.525,141.987 123.850 C 140.920 120.232,149.798 110.622,152.581 112.384  M -25 0 L -5 0 L -5 20 L -25 20 Z M 405 0 L 425 0 L 425 20 L 405 20 Z" stroke="none" fill="#136e2b" fill-rule="evenodd" transform="translate(490,0)"></path><path id="path2" d="M229.700 72.611 C 229.480 72.700,229.016 72.778,228.668 72.786 C 228.010 72.801,227.000 73.727,227.000 74.315 C 227.000 74.707,227.066 74.686,228.074 73.976 C 228.561 73.632,229.059 73.413,229.180 73.488 C 229.455 73.658,229.470 74.733,229.200 74.900 C 228.758 75.173,228.987 75.647,229.500 75.518 C 230.194 75.344,230.163 75.867,229.383 77.536 C 227.149 82.314,227.410 86.118,230.385 92.158 C 232.312 96.070,233.999 100.913,234.406 103.700 C 234.487 104.250,234.665 105.465,234.803 106.400 C 235.089 108.340,234.975 113.004,234.607 114.408 C 233.785 117.547,232.552 120.039,231.057 121.587 C 229.689 123.002,229.565 122.792,230.565 120.758 C 234.453 112.854,234.011 102.345,229.394 92.900 C 228.606 91.288,228.079 89.876,227.788 88.600 C 227.023 85.241,226.693 85.261,226.192 88.695 C 225.948 90.372,226.213 91.415,226.748 90.880 C 226.917 90.712,227.127 90.648,227.216 90.737 C 227.469 90.992,229.131 94.243,229.293 94.800 C 229.373 95.075,229.741 96.077,230.110 97.027 C 230.962 99.215,231.799 102.823,231.805 104.336 C 231.807 104.976,231.884 105.822,231.976 106.216 C 232.362 107.877,231.693 112.550,230.703 115.100 C 230.404 115.870,230.108 116.680,230.044 116.900 C 229.980 117.120,229.550 117.885,229.090 118.600 C 228.630 119.315,228.195 120.085,228.125 120.312 C 227.869 121.137,226.699 122.037,225.824 122.081 C 225.291 122.108,224.839 122.282,224.521 122.580 L 224.034 123.038 223.684 122.503 C 223.384 122.046,223.237 121.986,222.674 122.092 C 220.220 122.552,216.326 113.384,216.688 108.000 C 217.031 102.917,218.976 95.748,219.957 95.950 C 220.110 95.981,220.200 95.748,220.200 95.321 C 220.200 94.883,220.314 94.599,220.521 94.520 C 220.697 94.452,220.793 94.271,220.734 94.117 C 220.675 93.963,220.801 93.680,221.013 93.488 C 221.226 93.295,221.401 92.904,221.402 92.619 C 221.404 92.054,222.494 90.000,222.792 90.000 C 223.035 90.000,223.274 90.401,223.308 90.865 C 223.333 91.204,223.712 91.589,224.027 91.597 C 224.096 91.599,224.206 91.442,224.269 91.250 C 224.333 91.058,224.585 90.655,224.828 90.355 C 225.563 89.450,225.752 86.200,225.069 86.200 C 224.917 86.200,224.501 86.808,224.146 87.550 C 223.447 89.011,223.089 88.748,223.613 87.160 C 225.002 82.951,218.699 93.696,216.902 98.600 C 216.600 99.425,216.285 100.280,216.203 100.500 C 215.936 101.215,215.574 102.675,215.387 103.800 C 215.286 104.405,215.118 105.350,215.014 105.900 C 214.909 106.450,214.817 108.205,214.809 109.800 C 214.792 113.050,214.612 113.754,214.180 112.264 C 213.989 111.605,213.913 110.429,213.942 108.550 C 213.987 105.649,213.835 105.203,213.259 106.550 C 212.177 109.078,213.492 116.096,215.719 119.674 C 217.069 121.843,216.862 122.076,214.624 120.910 C 213.896 120.530,212.975 120.075,212.577 119.900 C 211.818 119.564,211.456 119.266,210.548 118.230 C 210.245 117.883,209.870 117.600,209.714 117.600 C 209.373 117.600,208.145 116.202,207.719 115.329 C 207.550 114.983,207.230 114.430,207.008 114.100 C 206.785 113.770,206.602 113.379,206.601 113.232 C 206.601 113.084,206.430 112.747,206.223 112.484 C 205.151 111.121,205.204 103.398,206.294 102.200 C 206.723 101.728,206.978 101.056,207.106 100.062 C 207.357 98.104,213.061 92.570,217.274 90.196 C 218.846 89.310,220.557 87.693,221.717 85.996 C 223.053 84.041,222.740 84.090,220.557 86.177 C 218.950 87.712,216.805 89.400,216.459 89.400 C 216.403 89.400,216.090 89.625,215.764 89.900 C 215.437 90.175,215.058 90.400,214.922 90.400 C 214.786 90.400,214.410 90.678,214.087 91.018 C 213.764 91.358,213.139 91.849,212.698 92.109 C 210.745 93.261,206.002 98.935,206.000 100.122 C 206.000 100.244,205.731 100.874,205.403 101.522 C 205.074 102.170,204.804 102.847,204.803 103.026 C 204.801 103.205,204.659 103.688,204.487 104.100 C 204.107 105.009,204.180 110.927,204.590 112.400 C 205.271 114.852,207.355 118.373,208.977 119.810 C 211.088 121.680,212.719 122.643,214.280 122.940 C 215.209 123.116,216.177 123.654,217.443 124.697 L 218.582 125.634 220.890 125.638 C 223.132 125.643,223.220 125.660,223.927 126.222 C 224.327 126.540,224.862 126.800,225.114 126.800 C 225.367 126.800,225.806 126.888,226.091 126.996 C 226.731 127.240,228.234 126.775,229.065 126.075 C 229.684 125.555,230.293 125.489,231.470 125.816 C 232.608 126.132,234.084 125.732,235.205 124.802 C 236.212 123.968,237.995 123.003,238.543 122.995 C 238.740 122.993,239.350 122.729,239.900 122.409 C 240.450 122.089,241.221 121.647,241.613 121.428 C 243.761 120.227,246.971 115.640,247.721 112.700 C 248.166 110.952,247.841 104.128,247.273 103.305 C 247.123 103.089,247.000 102.791,247.000 102.644 C 247.000 100.434,240.420 92.880,236.421 90.500 C 231.925 87.824,230.060 85.117,230.245 81.535 C 230.344 79.602,230.914 77.980,231.913 76.784 C 232.703 75.839,232.750 75.496,232.186 74.800 C 231.963 74.525,231.561 73.966,231.293 73.559 C 230.711 72.673,230.241 72.393,229.700 72.611 M271.916 75.706 C 270.484 77.103,270.436 77.277,271.167 78.400 C 273.695 82.279,271.836 87.994,267.356 90.117 C 266.775 90.392,266.165 90.696,266.000 90.792 C 265.835 90.888,264.485 91.665,263.000 92.517 C 259.007 94.809,253.800 99.099,253.800 100.097 C 253.800 100.237,253.657 100.470,253.481 100.616 C 253.026 100.993,251.670 103.813,251.092 105.583 C 249.847 109.396,250.728 115.649,252.917 118.537 C 253.183 118.887,253.400 119.271,253.400 119.391 C 253.400 119.659,256.746 123.000,257.014 123.000 C 257.486 123.000,260.410 124.979,261.491 126.030 C 262.771 127.274,263.623 127.578,265.137 127.333 C 265.969 127.198,266.922 127.545,267.500 128.194 C 268.643 129.476,270.700 129.762,272.441 128.879 C 273.403 128.392,273.520 128.376,274.284 128.629 C 276.026 129.207,278.430 128.876,279.633 127.891 C 279.932 127.646,280.852 127.303,281.733 127.108 C 285.033 126.376,286.013 125.996,287.900 124.718 C 288.873 124.059,291.800 121.246,291.800 120.971 C 291.800 120.862,292.015 120.487,292.278 120.137 C 294.118 117.683,295.698 110.679,294.793 108.986 C 294.664 108.746,294.486 108.088,294.398 107.524 C 294.001 104.999,292.760 102.026,291.051 99.500 C 290.239 98.300,286.026 93.986,284.900 93.202 C 283.744 92.397,280.772 89.108,279.856 87.621 C 279.132 86.444,279.337 87.126,280.295 89.077 C 281.473 91.477,282.077 92.210,284.700 94.431 C 287.083 96.448,288.461 97.792,288.967 98.592 C 289.144 98.871,289.614 99.505,290.013 100.000 C 290.866 101.059,292.000 102.907,292.000 103.237 C 292.000 103.364,292.150 103.634,292.334 103.837 C 292.530 104.054,292.707 104.679,292.762 105.353 C 292.815 105.984,292.982 106.691,293.134 106.924 C 293.423 107.365,293.833 110.267,293.700 110.923 C 293.658 111.131,293.474 112.290,293.291 113.500 C 292.906 116.044,292.539 116.989,291.504 118.097 C 291.095 118.535,290.582 119.243,290.365 119.669 C 289.877 120.626,288.288 122.200,287.811 122.200 C 287.618 122.200,287.182 122.465,286.843 122.789 C 286.078 123.520,284.944 124.102,283.921 124.288 C 283.492 124.365,282.946 124.557,282.708 124.713 C 282.469 124.870,281.852 125.055,281.337 125.126 C 280.102 125.295,280.101 124.976,281.335 123.603 C 282.831 121.940,284.006 119.641,285.093 116.252 C 285.815 114.004,285.933 112.051,285.482 109.842 C 285.312 109.011,285.000 109.602,284.996 110.762 C 284.992 112.307,284.505 115.332,284.114 116.250 C 283.654 117.331,283.315 117.224,283.477 116.050 C 284.446 109.073,284.010 103.932,281.930 97.800 C 280.910 94.794,278.482 88.927,278.221 88.840 C 277.931 88.744,277.925 90.445,278.214 90.734 C 278.331 90.851,278.398 91.297,278.362 91.724 C 278.301 92.459,278.266 92.405,277.699 90.703 C 277.052 88.762,276.651 88.390,276.222 89.332 L 275.972 89.880 275.596 89.040 C 275.389 88.578,275.135 88.200,275.033 88.200 C 274.820 88.200,274.200 89.418,274.200 89.836 C 274.200 89.987,274.080 90.289,273.934 90.505 C 273.787 90.722,273.511 91.305,273.319 91.800 C 272.927 92.811,272.102 94.168,270.889 95.800 C 268.699 98.745,266.317 104.548,265.798 108.200 C 265.681 109.025,265.498 110.309,265.392 111.054 C 264.923 114.356,265.476 120.010,266.537 122.764 C 267.393 124.985,266.314 124.441,265.021 122.000 C 263.444 119.021,262.797 113.712,263.602 110.363 C 263.716 109.888,263.979 108.780,264.187 107.900 C 265.203 103.591,267.305 99.047,270.615 94.000 C 274.353 88.302,275.267 84.506,273.904 80.333 C 273.169 78.079,273.185 76.135,273.927 77.589 C 274.343 78.405,274.666 78.575,274.519 77.900 C 273.979 75.436,274.213 74.941,275.376 76.077 C 276.288 76.967,276.679 77.035,276.381 76.250 C 276.066 75.421,275.598 75.000,274.993 75.000 C 274.694 75.000,274.337 74.865,274.200 74.700 C 273.757 74.166,273.280 74.376,271.916 75.706 M233.662 90.271 C 238.235 95.038,240.343 98.155,241.604 102.011 C 244.008 109.367,243.320 115.452,239.722 118.650 C 237.806 120.353,237.717 120.296,238.703 117.992 C 239.809 115.409,240.091 113.910,240.096 110.600 C 240.105 104.276,238.151 99.330,232.335 90.949 C 231.024 89.059,230.400 87.983,230.400 87.610 C 230.400 87.038,231.138 87.640,233.662 90.271 M271.200 89.395 C 271.200 89.798,270.084 91.173,267.301 94.200 C 259.717 102.449,256.560 111.110,258.588 118.100 C 259.404 120.913,259.344 121.267,258.289 119.850 C 257.982 119.438,257.435 118.796,257.073 118.424 C 255.449 116.756,254.968 111.959,255.999 107.710 C 257.538 101.368,261.307 96.224,268.000 91.330 C 268.715 90.807,269.689 90.069,270.166 89.690 C 271.177 88.884,271.200 88.877,271.200 89.395 M276.213 92.343 C 276.678 94.279,277.369 94.947,277.670 93.750 C 277.888 92.882,278.310 92.482,278.650 92.821 C 279.010 93.181,279.600 95.129,279.600 95.956 C 279.600 96.283,279.735 96.663,279.900 96.800 C 280.250 97.090,280.287 97.664,279.992 98.215 C 279.819 98.539,279.864 98.634,280.268 98.788 C 281.658 99.316,282.855 109.376,281.902 112.518 C 281.738 113.058,281.604 113.770,281.603 114.100 C 281.597 117.369,275.698 126.161,274.294 124.995 C 274.046 124.789,273.865 124.810,273.310 125.108 C 272.595 125.494,272.000 125.302,272.000 124.687 C 272.000 124.282,271.652 124.158,271.198 124.401 C 270.421 124.817,269.270 123.546,268.663 121.600 C 268.474 120.995,268.165 120.230,267.975 119.900 C 267.785 119.570,267.566 118.940,267.488 118.500 C 267.410 118.060,267.165 117.209,266.943 116.608 C 266.295 114.853,266.525 108.299,267.286 106.827 C 267.459 106.493,267.600 105.984,267.600 105.695 C 267.600 104.266,270.126 98.559,271.879 96.026 C 272.441 95.215,273.050 94.265,273.234 93.914 C 273.872 92.693,274.307 92.568,274.672 93.500 C 274.862 93.986,275.267 93.132,275.308 92.158 C 275.369 90.744,275.366 90.755,275.636 90.845 C 275.765 90.888,276.025 91.563,276.213 92.343 M219.531 124.109 C 219.596 124.278,219.601 124.466,219.542 124.525 C 219.392 124.675,218.600 124.228,218.600 123.993 C 218.600 123.675,219.403 123.775,219.531 124.109 M227.300 125.017 C 227.300 125.172,227.097 125.329,226.850 125.364 C 226.364 125.433,226.200 124.913,226.650 124.733 C 227.028 124.582,227.300 124.700,227.300 125.017 M270.783 127.079 C 271.720 127.119,271.444 127.556,270.391 127.701 C 269.282 127.854,268.858 127.658,269.075 127.092 C 269.174 126.835,269.331 126.793,269.752 126.908 C 270.053 126.991,270.518 127.068,270.783 127.079 M278.099 127.184 C 278.465 127.327,278.446 127.366,277.875 127.661 C 277.331 127.942,277.206 127.947,276.877 127.695 C 276.225 127.197,277.146 126.812,278.099 127.184  M -25 0 L -5 0 L -5 20 L -25 20 Z M 405 0 L 425 0 L 425 20 L 405 20 Z" stroke="none" fill="#977ed0" fill-rule="evenodd" transform="translate(950,0)"></path><path id="path3" d="M194.072 58.446 C 193.052 59.051,188.611 64.980,185.568 69.800 C 179.892 78.790,175.123 89.542,172.306 99.700 C 172.123 100.360,171.889 101.107,171.786 101.359 C 171.684 101.612,171.600 102.046,171.600 102.323 C 171.600 102.600,171.496 103.021,171.369 103.258 C 171.242 103.496,171.073 103.963,170.993 104.295 C 168.216 115.953,167.953 120.290,169.840 123.360 C 170.953 125.173,171.838 124.860,173.025 122.231 C 178.065 111.075,188.119 97.898,193.806 94.997 C 195.361 94.204,195.355 94.341,193.684 97.900 C 188.038 109.924,186.068 116.267,187.201 118.764 C 188.752 122.181,191.152 122.458,196.358 119.819 C 199.176 118.391,199.177 117.055,196.361 117.170 C 194.324 117.254,194.059 117.032,194.279 115.428 C 194.404 114.518,195.321 111.679,195.612 111.300 C 195.697 111.189,195.961 110.604,196.199 110.000 C 196.698 108.729,198.758 104.909,200.352 102.300 C 202.804 98.287,204.468 95.898,207.037 92.703 C 208.274 91.166,208.255 90.966,206.741 89.488 C 203.592 86.416,199.713 85.620,196.200 87.325 C 192.707 89.020,187.194 94.048,181.917 100.353 C 179.149 103.658,178.628 103.937,179.482 101.654 C 179.638 101.239,180.001 100.135,180.290 99.200 C 180.805 97.530,181.640 95.354,182.427 93.625 C 182.646 93.144,182.996 92.318,183.204 91.790 C 186.363 83.776,193.396 73.324,201.043 65.280 C 203.457 62.741,203.707 62.373,203.404 61.808 C 202.487 60.093,195.524 57.586,194.072 58.446 M197.040 59.021 C 199.005 59.431,203.000 61.569,203.000 62.211 C 203.000 62.309,202.303 63.140,201.450 64.057 C 195.931 69.995,193.039 73.588,189.465 78.949 C 187.562 81.804,184.370 87.767,182.801 91.400 C 182.445 92.225,181.998 93.260,181.808 93.700 C 181.618 94.140,181.348 94.815,181.208 95.200 C 181.068 95.585,180.835 96.170,180.691 96.500 C 179.727 98.709,178.277 103.791,178.469 104.291 C 178.723 104.953,178.532 105.147,184.370 98.308 C 191.719 89.699,197.649 85.886,201.780 87.113 C 204.718 87.985,208.302 91.019,207.200 91.700 C 206.337 92.233,201.262 99.654,198.642 104.214 C 192.685 114.581,192.166 119.530,197.248 117.498 C 197.771 117.289,197.926 117.929,197.474 118.432 C 196.742 119.247,192.207 121.200,191.047 121.200 C 186.601 121.200,186.479 115.329,190.727 105.844 C 190.987 105.263,191.200 104.737,191.200 104.674 C 191.200 104.545,191.134 104.691,193.691 99.205 C 196.524 93.127,196.216 92.447,192.049 95.587 C 185.218 100.735,176.174 113.031,172.730 121.853 C 170.765 126.888,168.490 121.611,169.489 114.335 C 169.809 112.011,170.055 110.739,171.105 106.000 C 171.841 102.680,173.494 96.968,174.231 95.200 C 174.345 94.925,174.696 93.935,175.010 93.000 C 178.858 81.551,185.552 69.390,192.983 60.350 C 194.410 58.614,194.674 58.528,197.040 59.021 M89.400 65.319 C 79.879 65.940,65.516 70.417,65.236 72.852 C 65.067 74.330,67.704 79.230,69.042 79.922 C 69.681 80.252,69.808 80.206,71.600 78.997 C 73.586 77.656,78.899 75.200,79.813 75.200 C 80.610 75.200,80.425 76.342,78.887 80.900 C 77.598 84.723,77.666 84.550,74.602 91.791 C 70.744 100.910,67.558 108.315,66.208 111.300 C 66.009 111.740,65.602 112.685,65.304 113.400 C 64.725 114.787,64.099 116.160,62.911 118.647 C 62.054 120.441,62.067 120.560,63.319 122.328 C 65.478 125.376,69.734 127.940,70.411 126.600 C 70.562 126.301,70.821 125.344,71.576 122.300 C 72.962 116.709,74.986 110.950,78.252 103.300 C 80.377 98.322,80.587 98.025,81.488 98.706 C 81.735 98.893,82.339 99.000,83.143 99.000 C 84.612 99.000,84.516 98.871,85.298 101.900 C 85.735 103.596,86.423 106.030,87.502 109.700 C 92.604 127.063,96.879 131.177,103.303 124.906 C 104.778 123.466,104.763 123.134,103.150 121.421 C 99.735 117.794,94.869 109.603,92.108 102.832 C 90.502 98.893,90.495 98.400,92.049 98.400 C 93.511 98.400,98.224 96.756,100.800 95.348 C 113.950 88.159,115.629 73.025,103.900 67.409 C 100.279 65.675,95.192 64.942,89.400 65.319 M97.700 66.115 C 110.786 68.396,115.348 79.104,107.535 89.200 C 104.244 93.453,95.895 97.993,91.355 97.999 C 89.976 98.001,89.976 98.928,91.352 102.198 C 91.839 103.354,92.460 104.832,92.733 105.483 C 94.853 110.532,99.235 117.758,102.289 121.242 C 104.094 123.301,104.111 123.448,102.702 124.781 C 97.841 129.378,94.240 127.256,90.688 117.700 C 89.767 115.221,88.451 111.335,88.217 110.400 C 88.045 109.711,87.108 106.437,86.071 102.900 C 85.781 101.910,85.461 100.740,85.360 100.300 C 85.032 98.862,84.740 98.600,83.463 98.600 C 82.615 98.600,82.119 98.473,81.465 98.090 C 80.357 97.441,80.363 97.436,79.175 99.970 C 75.804 107.157,72.535 116.124,71.008 122.371 C 69.931 126.779,70.064 126.463,69.341 126.318 C 67.597 125.969,65.329 124.193,63.684 121.889 C 62.601 120.370,62.595 120.605,63.785 118.111 C 64.327 116.976,65.098 115.249,65.498 114.274 C 66.156 112.671,66.896 111.009,68.638 107.222 C 68.961 106.520,69.590 105.035,70.035 103.922 C 70.481 102.810,71.070 101.405,71.344 100.800 C 71.618 100.195,72.158 98.935,72.545 98.000 C 73.538 95.597,75.952 89.925,76.587 88.500 C 77.622 86.180,79.168 81.908,80.115 78.750 C 81.124 75.386,81.216 74.670,80.667 74.460 C 79.895 74.164,74.331 76.604,71.206 78.608 L 69.571 79.657 69.036 79.262 C 67.787 78.341,65.386 73.590,65.725 72.708 C 66.410 70.922,78.726 67.109,87.300 66.028 C 89.752 65.719,95.712 65.769,97.700 66.115 M93.626 71.294 C 92.413 71.587,91.838 72.153,92.400 72.500 C 92.750 72.716,92.616 73.483,92.095 74.251 C 90.579 76.482,82.600 92.219,82.600 92.978 C 82.600 93.891,83.966 94.020,88.108 93.500 C 93.163 92.865,96.868 91.918,99.337 90.631 C 99.536 90.526,100.104 90.274,100.598 90.071 C 109.406 86.437,111.852 75.927,104.729 72.323 C 102.320 71.105,96.601 70.574,93.626 71.294 M100.514 71.683 C 105.544 72.449,108.084 74.625,108.354 78.401 C 108.772 84.249,102.977 89.902,94.600 91.818 C 88.397 93.237,83.246 93.595,83.355 92.600 C 83.425 91.957,89.510 79.731,91.511 76.211 C 92.797 73.949,93.023 73.418,92.933 72.865 C 92.803 72.066,92.915 71.987,94.597 71.682 C 96.390 71.356,98.366 71.356,100.514 71.683 M157.700 83.178 C 151.473 86.084,148.582 92.588,150.422 99.550 C 150.648 100.402,150.910 101.529,151.005 102.054 C 151.100 102.579,151.267 103.299,151.376 103.654 C 151.636 104.496,152.000 106.778,152.000 107.561 C 152.000 108.314,151.885 108.390,150.555 108.524 C 143.159 109.270,136.645 115.729,136.579 122.382 C 136.539 126.418,141.814 129.972,146.242 128.891 C 153.252 127.180,157.000 122.074,157.000 114.237 C 157.000 110.826,156.811 111.040,160.741 110.010 C 161.794 109.734,162.239 109.300,162.161 108.625 L 162.100 108.100 159.800 108.000 C 156.708 107.866,156.924 108.155,157.058 104.321 C 157.288 97.730,158.700 94.054,161.444 92.910 C 163.922 91.876,165.135 93.694,164.009 96.756 C 162.649 100.453,164.813 101.391,166.756 97.947 C 169.679 92.763,169.148 90.191,164.189 85.526 C 160.989 82.515,159.937 82.135,157.700 83.178 M161.250 83.740 C 163.131 85.030,166.089 87.995,167.407 89.910 C 168.467 91.451,168.272 93.569,166.782 96.723 C 165.089 100.304,163.161 100.438,164.500 96.881 C 165.836 93.332,163.885 91.008,160.871 92.560 C 158.179 93.946,156.683 97.977,156.478 104.400 C 156.345 108.544,156.166 108.283,159.204 108.367 C 161.551 108.432,161.622 108.447,161.562 108.866 C 161.513 109.209,161.274 109.352,160.400 109.560 C 156.381 110.518,156.533 110.333,156.382 114.471 C 156.126 121.495,153.788 125.382,148.453 127.655 C 144.017 129.544,140.797 128.708,137.953 124.929 C 135.087 121.119,139.226 113.548,145.900 110.392 C 147.772 109.508,148.405 109.338,151.559 108.875 C 152.423 108.748,152.578 108.285,152.389 106.400 C 152.247 104.981,151.612 101.811,151.207 100.500 C 149.453 94.819,150.335 90.450,154.034 86.496 C 156.747 83.595,159.504 82.542,161.250 83.740 M309.642 85.550 C 305.772 90.458,300.008 103.180,297.930 111.400 C 296.124 118.543,296.326 121.472,298.800 124.039 C 300.392 125.690,300.721 125.465,304.697 119.998 C 311.424 110.749,319.393 102.305,322.150 101.504 C 322.820 101.309,322.741 101.970,321.829 104.208 C 317.182 115.609,319.008 122.517,326.575 122.170 C 329.286 122.046,333.491 119.631,333.106 118.419 C 332.843 117.590,332.197 117.359,331.084 117.697 C 329.737 118.106,328.741 118.079,328.172 117.617 C 327.610 117.161,327.490 113.536,327.976 111.700 C 328.410 110.062,328.810 108.744,329.097 108.000 C 331.505 101.771,334.288 96.734,336.354 94.862 L 337.500 93.824 337.100 93.075 C 335.275 89.656,332.140 88.693,328.600 90.465 C 324.307 92.613,316.953 99.437,311.333 106.487 C 309.871 108.323,307.396 111.000,307.163 111.000 C 306.449 111.000,308.640 106.681,312.890 99.711 C 317.147 92.729,317.317 92.272,316.396 90.322 C 314.423 86.148,311.050 83.764,309.642 85.550 M127.100 85.330 C 116.315 87.576,106.050 104.253,108.700 115.222 C 110.117 121.087,114.995 124.652,119.775 123.317 C 130.982 120.187,138.654 109.957,138.684 98.100 C 138.699 92.446,137.608 90.628,134.186 90.605 C 133.516 90.600,133.402 90.496,132.320 88.904 C 130.988 86.942,129.489 85.508,128.583 85.327 C 127.919 85.194,127.751 85.194,127.100 85.330 M311.897 85.709 C 313.400 86.590,315.177 88.814,316.155 91.039 L 316.568 91.978 315.899 93.375 C 315.531 94.143,314.428 96.105,313.447 97.736 C 306.486 109.317,304.712 113.264,307.000 112.088 C 307.275 111.947,308.085 111.130,308.800 110.273 C 309.515 109.416,310.466 108.306,310.913 107.807 C 311.360 107.308,312.613 105.832,313.698 104.526 C 318.097 99.235,324.083 93.706,327.984 91.333 C 331.563 89.156,334.266 89.585,336.228 92.644 L 336.843 93.603 335.644 94.885 C 333.573 97.098,330.510 102.651,328.851 107.200 C 325.798 115.572,326.628 119.843,331.008 118.297 C 331.996 117.949,332.600 118.063,332.600 118.599 C 332.600 119.539,328.121 121.800,326.259 121.800 C 320.204 121.800,318.254 116.177,321.231 107.300 C 321.674 105.980,322.156 104.630,322.304 104.300 C 324.009 100.477,323.816 99.885,321.319 101.282 C 317.674 103.322,310.465 111.106,304.262 119.700 C 300.238 125.275,299.620 125.468,297.860 121.700 C 295.698 117.070,300.554 101.430,308.066 88.831 C 310.241 85.184,310.559 84.925,311.897 85.709 M130.203 87.150 C 130.928 87.892,131.895 89.051,132.351 89.725 L 133.181 90.951 134.341 91.037 C 137.283 91.257,138.233 92.970,138.219 98.029 C 138.189 109.149,131.296 118.897,120.975 122.420 C 111.242 125.741,105.461 113.847,110.925 101.745 C 114.828 93.101,122.475 85.879,127.792 85.813 C 128.883 85.800,128.887 85.802,130.203 87.150 M131.143 92.202 C 121.858 94.992,112.561 111.972,116.252 119.398 C 116.989 120.880,117.442 121.004,119.533 120.295 C 126.523 117.925,131.807 110.727,133.110 101.800 C 133.713 97.671,133.377 93.151,132.410 92.368 C 131.909 91.962,131.931 91.965,131.143 92.202 M132.255 92.950 C 133.124 93.912,133.131 100.384,132.266 103.900 C 130.348 111.691,125.402 117.804,119.442 119.747 C 117.499 120.381,117.329 120.329,116.600 118.889 C 114.615 114.965,117.113 106.372,122.125 99.879 C 125.410 95.624,131.132 91.709,132.255 92.950 M150.300 112.769 C 144.582 115.477,140.229 122.526,142.654 125.150 C 144.976 127.663,152.129 119.566,152.738 113.734 C 152.919 112.007,152.368 111.789,150.300 112.769 M151.985 113.082 C 153.388 114.772,148.777 122.514,145.117 124.613 C 142.537 126.093,141.376 123.331,143.250 120.173 C 145.395 116.560,151.057 111.963,151.985 113.082  M -25 0 L -5 0 L -5 20 L -25 20 Z M 405 0 L 425 0 L 425 20 L 405 20 Z" stroke="none" fill="#9fc0a8" fill-rule="evenodd" transform="translate(30,260)"></path><path id="path4" d="M194.000 58.248 C 193.412 58.558,190.300 62.371,188.653 64.800 C 188.019 65.735,187.447 66.545,187.382 66.600 C 187.179 66.772,183.921 72.003,182.712 74.100 C 181.300 76.547,177.569 84.092,177.025 85.600 C 176.807 86.205,176.188 87.825,175.650 89.200 C 174.298 92.659,173.547 94.813,173.655 94.922 C 173.706 94.972,174.082 94.043,174.491 92.857 C 177.265 84.816,181.012 77.017,185.568 69.800 C 188.763 64.739,193.100 58.991,194.146 58.431 C 195.663 57.619,202.496 60.111,203.404 61.808 C 203.707 62.373,203.457 62.741,201.043 65.280 C 193.396 73.324,186.363 83.776,183.204 91.790 C 182.996 92.318,182.646 93.144,182.427 93.625 C 181.640 95.354,180.805 97.530,180.290 99.200 C 180.001 100.135,179.638 101.239,179.482 101.654 C 178.628 103.937,179.149 103.658,181.917 100.353 C 187.194 94.048,192.707 89.020,196.200 87.325 C 199.713 85.620,203.592 86.416,206.741 89.488 C 208.255 90.966,208.274 91.166,207.037 92.703 C 204.468 95.898,202.804 98.287,200.352 102.300 C 198.758 104.909,196.698 108.729,196.199 110.000 C 195.961 110.604,195.697 111.189,195.612 111.300 C 195.386 111.594,194.398 114.479,194.410 114.814 C 194.415 114.971,194.717 114.283,195.079 113.285 C 195.740 111.465,198.038 106.632,199.192 104.633 C 201.404 100.801,203.848 97.139,206.273 94.024 C 208.687 90.922,208.652 90.504,205.799 88.373 C 199.185 83.431,193.864 86.152,181.007 101.050 C 179.233 103.106,179.250 103.107,179.909 100.978 C 183.841 88.264,191.062 76.215,201.274 65.327 C 203.825 62.606,203.877 62.534,203.718 61.901 C 203.512 61.081,199.164 58.597,197.937 58.599 C 197.737 58.600,197.418 58.517,197.227 58.414 C 196.583 58.070,194.537 57.964,194.000 58.248 M88.152 65.195 C 87.081 65.269,86.136 65.397,86.052 65.481 C 85.969 65.565,86.530 65.573,87.300 65.499 C 88.070 65.424,90.230 65.296,92.100 65.213 L 95.500 65.061 92.800 65.061 C 91.315 65.062,89.224 65.122,88.152 65.195 M95.617 65.272 C 95.663 65.312,96.285 65.396,97.000 65.459 C 97.805 65.530,98.148 65.508,97.900 65.401 C 97.521 65.237,95.440 65.120,95.617 65.272 M82.700 65.930 C 81.930 66.090,80.625 66.360,79.800 66.531 C 74.712 67.584,67.108 70.450,65.550 71.903 C 64.919 72.492,64.825 73.382,65.283 74.443 C 65.439 74.804,65.723 75.460,65.913 75.900 C 66.804 77.957,68.738 80.400,69.477 80.400 C 69.695 80.400,70.599 79.918,71.486 79.328 C 74.524 77.310,79.745 75.025,80.079 75.567 C 80.499 76.245,77.174 85.632,74.271 91.965 C 73.902 92.770,73.600 93.499,73.600 93.584 C 73.600 93.669,73.471 94.000,73.313 94.319 C 72.992 94.969,68.200 106.207,68.200 106.310 C 68.200 106.347,67.840 107.152,67.400 108.100 C 66.960 109.048,66.603 109.931,66.607 110.062 C 66.620 110.490,68.773 105.569,74.602 91.791 C 77.666 84.550,77.598 84.723,78.887 80.900 C 80.425 76.342,80.610 75.200,79.813 75.200 C 78.899 75.200,73.586 77.656,71.600 78.997 C 69.808 80.206,69.681 80.252,69.042 79.922 C 67.704 79.230,65.067 74.330,65.236 72.852 C 65.461 70.898,77.060 66.784,85.300 65.736 C 85.687 65.687,85.581 65.656,85.000 65.650 C 84.505 65.644,83.470 65.770,82.700 65.930 M98.700 65.714 C 98.920 65.770,99.730 65.958,100.500 66.132 C 115.375 69.495,115.436 87.338,100.600 95.462 C 99.665 95.974,98.990 96.393,99.100 96.393 C 99.210 96.394,99.930 96.050,100.700 95.629 C 108.192 91.533,112.354 85.159,111.924 78.439 C 111.822 76.848,111.731 76.427,111.045 74.400 C 109.649 70.274,103.997 66.086,99.300 65.696 C 98.750 65.650,98.480 65.658,98.700 65.714 M94.597 71.682 C 92.905 71.989,92.803 72.063,92.937 72.891 C 93.018 73.390,92.925 73.781,92.593 74.337 C 92.343 74.757,91.965 75.392,91.753 75.750 C 91.541 76.108,91.442 76.399,91.534 76.397 C 91.937 76.390,93.419 73.210,93.205 72.810 C 92.512 71.514,99.353 71.252,103.089 72.433 C 111.247 75.010,109.465 84.841,99.974 89.613 C 99.108 90.048,98.400 90.454,98.400 90.514 C 98.400 90.574,98.468 90.584,98.550 90.535 C 98.633 90.487,99.330 90.154,100.100 89.797 C 109.522 85.420,111.429 75.032,103.314 72.292 C 100.935 71.490,97.124 71.222,94.597 71.682 M228.953 72.186 C 228.432 72.258,227.771 72.494,227.485 72.709 C 226.738 73.270,224.189 78.304,223.590 80.400 C 222.796 83.183,219.930 86.844,217.407 88.300 C 217.026 88.520,216.528 88.835,216.300 89.000 C 216.072 89.165,215.583 89.480,215.213 89.700 C 214.844 89.920,214.262 90.331,213.920 90.613 C 213.579 90.895,212.985 91.336,212.600 91.592 C 203.924 97.377,201.015 110.279,206.677 117.867 C 208.525 120.344,212.627 123.400,214.104 123.400 C 214.679 123.400,216.159 124.197,217.235 125.086 L 218.370 126.024 220.664 126.038 C 222.787 126.051,223.001 126.088,223.517 126.532 C 223.824 126.795,224.306 127.058,224.588 127.116 C 224.869 127.173,225.447 127.323,225.872 127.449 C 226.789 127.722,228.306 127.280,229.289 126.455 C 229.783 126.040,229.993 125.985,230.589 126.114 C 232.544 126.537,234.162 126.231,235.402 125.204 C 236.296 124.464,238.279 123.411,238.819 123.389 C 238.974 123.382,239.511 123.135,240.014 122.839 C 240.517 122.542,241.235 122.120,241.610 121.900 C 242.567 121.339,245.177 118.820,245.547 118.100 C 245.717 117.770,246.060 117.256,246.309 116.958 C 246.557 116.660,246.913 115.985,247.098 115.458 C 247.284 114.931,247.511 114.354,247.604 114.175 C 247.697 113.996,247.834 113.522,247.909 113.122 C 247.984 112.723,248.125 112.346,248.223 112.286 C 248.862 111.891,248.253 103.786,247.529 103.063 C 247.458 102.992,247.400 102.763,247.400 102.555 C 247.400 101.649,245.564 98.490,243.954 96.627 C 242.379 94.805,242.241 94.664,240.677 93.289 C 239.216 92.003,237.867 90.994,235.418 89.356 C 230.372 85.979,229.162 80.662,232.550 76.749 C 233.389 75.780,233.369 75.430,232.408 74.262 C 231.972 73.733,231.378 73.008,231.088 72.650 C 230.798 72.293,230.412 72.012,230.230 72.027 C 230.049 72.041,229.474 72.113,228.953 72.186 M231.293 73.559 C 231.561 73.966,231.963 74.525,232.186 74.800 C 232.757 75.504,232.700 75.941,231.924 76.800 C 230.949 77.879,230.345 79.581,230.245 81.535 C 230.060 85.117,231.925 87.824,236.421 90.500 C 240.420 92.880,247.000 100.434,247.000 102.644 C 247.000 102.791,247.123 103.089,247.273 103.305 C 247.841 104.128,248.166 110.952,247.721 112.700 C 246.971 115.640,243.761 120.227,241.613 121.428 C 241.221 121.647,240.450 122.089,239.900 122.409 C 239.350 122.729,238.740 122.993,238.543 122.995 C 237.995 123.003,236.212 123.968,235.205 124.802 C 234.084 125.732,232.608 126.132,231.470 125.816 C 230.293 125.489,229.684 125.555,229.065 126.075 C 228.234 126.775,226.731 127.240,226.091 126.996 C 225.806 126.888,225.367 126.800,225.114 126.800 C 224.862 126.800,224.327 126.540,223.927 126.222 C 223.220 125.660,223.132 125.643,220.890 125.638 L 218.582 125.634 217.443 124.697 C 216.177 123.654,215.209 123.116,214.280 122.940 C 210.425 122.207,205.967 117.358,204.590 112.400 C 204.180 110.927,204.107 105.009,204.487 104.100 C 204.659 103.688,204.801 103.205,204.803 103.026 C 204.804 102.847,205.074 102.170,205.403 101.522 C 205.731 100.874,206.000 100.244,206.000 100.122 C 206.002 98.935,210.745 93.261,212.698 92.109 C 213.139 91.849,213.764 91.358,214.087 91.018 C 214.410 90.678,214.786 90.400,214.922 90.400 C 215.058 90.400,215.437 90.175,215.764 89.900 C 216.090 89.625,216.403 89.400,216.459 89.400 C 216.814 89.400,218.983 87.687,220.563 86.160 C 222.717 84.077,223.062 84.028,221.717 85.996 C 220.557 87.693,218.846 89.310,217.274 90.196 C 213.061 92.570,207.357 98.104,207.106 100.062 C 206.978 101.056,206.723 101.728,206.294 102.200 C 205.204 103.398,205.151 111.121,206.223 112.484 C 206.430 112.747,206.601 113.084,206.601 113.232 C 206.602 113.379,206.785 113.770,207.008 114.100 C 207.230 114.430,207.550 114.983,207.719 115.329 C 208.145 116.202,209.373 117.600,209.714 117.600 C 209.870 117.600,210.245 117.883,210.548 118.230 C 211.456 119.266,211.818 119.564,212.577 119.900 C 212.975 120.075,213.896 120.530,214.624 120.910 C 216.862 122.076,217.069 121.843,215.719 119.674 C 213.492 116.096,212.177 109.078,213.259 106.550 C 213.835 105.203,213.987 105.649,213.942 108.550 C 213.913 110.429,213.989 111.605,214.180 112.264 C 214.612 113.754,214.792 113.050,214.809 109.800 C 214.817 108.205,214.909 106.450,215.014 105.900 C 215.118 105.350,215.286 104.405,215.387 103.800 C 215.574 102.675,215.936 101.215,216.203 100.500 C 216.285 100.280,216.600 99.425,216.902 98.600 C 218.699 93.696,225.002 82.951,223.613 87.160 C 223.089 88.748,223.447 89.011,224.146 87.550 C 224.501 86.808,224.917 86.200,225.069 86.200 C 225.752 86.200,225.563 89.450,224.828 90.355 C 224.585 90.655,224.333 91.058,224.269 91.250 C 224.206 91.442,224.096 91.599,224.027 91.597 C 223.712 91.589,223.333 91.204,223.308 90.865 C 223.274 90.401,223.035 90.000,222.792 90.000 C 222.494 90.000,221.404 92.054,221.402 92.619 C 221.401 92.904,221.226 93.295,221.013 93.488 C 220.801 93.680,220.675 93.963,220.734 94.117 C 220.793 94.271,220.697 94.452,220.521 94.520 C 220.314 94.599,220.200 94.883,220.200 95.321 C 220.200 95.748,220.110 95.981,219.957 95.950 C 218.976 95.748,217.031 102.917,216.688 108.000 C 216.326 113.384,220.220 122.552,222.674 122.092 C 223.237 121.986,223.384 122.046,223.684 122.503 L 224.034 123.038 224.521 122.580 C 224.839 122.282,225.291 122.108,225.824 122.081 C 226.699 122.037,227.869 121.137,228.125 120.312 C 228.195 120.085,228.630 119.315,229.090 118.600 C 229.550 117.885,229.980 117.120,230.044 116.900 C 230.108 116.680,230.404 115.870,230.703 115.100 C 231.693 112.550,232.362 107.877,231.976 106.216 C 231.884 105.822,231.807 104.976,231.805 104.336 C 231.799 102.823,230.962 99.215,230.110 97.027 C 229.741 96.077,229.373 95.075,229.293 94.800 C 229.131 94.243,227.469 90.992,227.216 90.737 C 227.127 90.648,226.917 90.712,226.748 90.880 C 226.213 91.415,225.948 90.372,226.192 88.695 C 226.693 85.261,227.023 85.241,227.788 88.600 C 228.079 89.876,228.606 91.288,229.394 92.900 C 234.011 102.345,234.453 112.854,230.565 120.758 C 229.565 122.792,229.689 123.002,231.057 121.587 C 232.552 120.039,233.785 117.547,234.607 114.408 C 234.975 113.004,235.089 108.340,234.803 106.400 C 234.665 105.465,234.487 104.250,234.406 103.700 C 233.999 100.913,232.312 96.070,230.385 92.158 C 227.410 86.118,227.149 82.314,229.383 77.536 C 230.163 75.867,230.194 75.344,229.500 75.518 C 228.987 75.647,228.758 75.173,229.200 74.900 C 229.470 74.733,229.455 73.658,229.180 73.488 C 229.059 73.413,228.561 73.632,228.074 73.976 C 227.066 74.686,227.000 74.707,227.000 74.315 C 227.000 73.727,228.010 72.801,228.668 72.786 C 229.016 72.778,229.480 72.700,229.700 72.611 C 230.241 72.393,230.711 72.673,231.293 73.559 M272.926 74.181 C 272.610 74.390,272.115 74.793,271.826 75.078 C 271.537 75.363,271.053 75.818,270.750 76.089 C 270.088 76.682,270.010 77.702,270.571 78.423 C 273.288 81.912,271.478 87.652,266.960 89.876 C 266.487 90.109,266.055 90.347,266.000 90.406 C 265.945 90.464,265.495 90.689,265.001 90.906 C 258.212 93.884,252.796 99.376,250.609 105.500 C 250.023 107.142,249.957 112.787,250.504 114.445 C 251.001 115.949,251.962 117.993,252.521 118.737 C 252.785 119.087,253.000 119.456,253.000 119.557 C 253.000 119.786,256.502 123.268,256.847 123.381 C 257.605 123.629,260.450 125.590,261.409 126.525 L 262.518 127.606 264.509 127.707 C 266.403 127.803,266.527 127.837,267.062 128.406 C 268.463 129.897,270.725 130.250,272.646 129.277 C 273.503 128.842,273.745 128.794,274.065 128.994 C 275.318 129.777,278.532 129.375,279.865 128.269 C 280.176 128.011,280.626 127.762,280.865 127.716 C 284.208 127.073,286.310 126.361,287.519 125.461 C 287.859 125.207,288.221 125.000,288.323 125.000 C 288.995 125.000,292.687 120.609,293.704 118.600 C 294.262 117.498,294.354 117.216,294.939 114.800 C 295.326 113.201,295.513 109.077,295.214 108.717 C 295.098 108.577,294.919 107.931,294.817 107.281 C 294.559 105.642,294.282 104.635,293.832 103.700 C 292.758 101.467,292.543 101.043,292.132 100.364 C 291.887 99.959,291.532 99.456,291.343 99.248 C 291.154 99.039,291.000 98.769,291.000 98.646 C 291.000 98.368,285.894 93.268,285.159 92.811 C 284.479 92.389,282.400 90.433,282.400 90.215 C 282.400 90.125,282.039 89.599,281.598 89.044 C 280.269 87.376,279.201 85.036,279.193 83.775 C 279.189 83.184,279.057 82.475,278.900 82.200 C 278.743 81.925,278.609 81.430,278.602 81.100 C 278.559 78.956,276.506 74.671,275.431 74.483 C 275.029 74.413,274.501 74.230,274.257 74.078 C 273.689 73.722,273.614 73.727,272.926 74.181 M274.200 74.700 C 274.337 74.865,274.754 75.000,275.127 75.000 C 275.678 75.000,275.880 75.122,276.202 75.650 C 277.000 76.958,276.529 77.202,275.376 76.077 C 274.213 74.941,273.979 75.436,274.519 77.900 C 274.666 78.575,274.343 78.405,273.927 77.589 C 273.185 76.135,273.169 78.079,273.904 80.333 C 275.267 84.506,274.353 88.302,270.615 94.000 C 267.305 99.047,265.203 103.591,264.187 107.900 C 263.979 108.780,263.716 109.888,263.602 110.363 C 262.797 113.712,263.444 119.021,265.021 122.000 C 266.314 124.441,267.393 124.985,266.537 122.764 C 265.476 120.010,264.923 114.356,265.392 111.054 C 265.498 110.309,265.681 109.025,265.798 108.200 C 266.317 104.548,268.699 98.745,270.889 95.800 C 272.102 94.168,272.927 92.811,273.319 91.800 C 273.511 91.305,273.787 90.722,273.934 90.505 C 274.080 90.289,274.200 89.987,274.200 89.836 C 274.200 89.418,274.820 88.200,275.033 88.200 C 275.135 88.200,275.389 88.578,275.596 89.040 L 275.972 89.880 276.222 89.332 C 276.651 88.390,277.052 88.762,277.699 90.703 C 278.266 92.405,278.301 92.459,278.362 91.724 C 278.398 91.297,278.331 90.851,278.214 90.734 C 277.925 90.445,277.931 88.744,278.221 88.840 C 278.482 88.927,280.910 94.794,281.930 97.800 C 284.010 103.932,284.446 109.073,283.477 116.050 C 283.315 117.224,283.654 117.331,284.114 116.250 C 284.505 115.332,284.992 112.307,284.996 110.762 C 285.000 109.602,285.312 109.011,285.482 109.842 C 285.933 112.051,285.815 114.004,285.093 116.252 C 284.006 119.641,282.831 121.940,281.335 123.603 C 280.101 124.976,280.102 125.295,281.337 125.126 C 281.852 125.055,282.469 124.870,282.708 124.713 C 282.946 124.557,283.492 124.365,283.921 124.288 C 284.944 124.102,286.078 123.520,286.843 122.789 C 287.182 122.465,287.618 122.200,287.811 122.200 C 288.288 122.200,289.877 120.626,290.365 119.669 C 290.582 119.243,291.095 118.535,291.504 118.097 C 292.539 116.989,292.906 116.044,293.291 113.500 C 293.474 112.290,293.658 111.131,293.700 110.923 C 293.833 110.267,293.423 107.365,293.134 106.924 C 292.982 106.691,292.815 105.984,292.762 105.353 C 292.707 104.679,292.530 104.054,292.334 103.837 C 292.150 103.634,292.000 103.364,292.000 103.237 C 292.000 102.907,290.866 101.059,290.013 100.000 C 289.614 99.505,289.144 98.871,288.967 98.592 C 288.461 97.792,287.083 96.448,284.700 94.431 C 282.077 92.210,281.473 91.477,280.295 89.077 C 279.337 87.126,279.132 86.444,279.856 87.621 C 280.772 89.108,283.744 92.397,284.900 93.202 C 288.389 95.633,292.633 101.225,293.703 104.800 C 293.884 105.405,294.115 106.107,294.216 106.359 C 294.317 106.612,294.400 107.083,294.400 107.405 C 294.400 107.728,294.542 108.346,294.715 108.778 C 295.626 111.055,294.237 117.524,292.278 120.137 C 292.015 120.487,291.800 120.862,291.800 120.971 C 291.800 121.246,288.873 124.059,287.900 124.718 C 286.013 125.996,285.033 126.376,281.733 127.108 C 280.846 127.304,279.934 127.645,279.633 127.893 C 278.347 128.950,275.989 129.259,274.192 128.607 C 273.547 128.373,273.394 128.396,272.449 128.875 C 270.700 129.762,268.645 129.479,267.500 128.194 C 266.922 127.545,265.969 127.198,265.137 127.333 C 263.623 127.578,262.771 127.274,261.491 126.030 C 260.410 124.979,257.486 123.000,257.014 123.000 C 256.746 123.000,253.400 119.659,253.400 119.391 C 253.400 119.271,253.183 118.887,252.917 118.537 C 250.728 115.649,249.847 109.396,251.092 105.583 C 251.670 103.813,253.026 100.993,253.481 100.616 C 253.657 100.470,253.800 100.237,253.800 100.097 C 253.800 99.099,259.007 94.809,263.000 92.517 C 264.485 91.665,265.835 90.888,266.000 90.792 C 266.165 90.696,266.775 90.392,267.356 90.117 C 271.836 87.994,273.695 82.279,271.167 78.400 C 270.436 77.277,270.484 77.103,271.916 75.706 C 273.280 74.376,273.757 74.166,274.200 74.700 M90.112 78.745 C 87.957 82.801,83.404 92.151,83.352 92.625 C 83.313 92.977,83.402 93.104,83.700 93.119 C 84.004 93.134,84.016 93.119,83.750 93.056 C 83.558 93.010,83.400 92.939,83.400 92.899 C 83.400 92.525,87.897 83.394,90.479 78.526 C 90.996 77.551,91.383 76.716,91.338 76.671 C 91.293 76.626,90.741 77.559,90.112 78.745 M226.008 79.771 C 225.771 80.650,225.400 81.060,225.400 80.443 C 225.400 80.006,225.995 78.728,226.134 78.867 C 226.185 78.918,226.128 79.325,226.008 79.771 M277.197 82.250 C 277.199 82.553,277.121 82.800,277.025 82.800 C 276.803 82.800,276.560 81.627,276.726 81.358 C 276.909 81.062,277.193 81.601,277.197 82.250 M158.100 82.741 C 155.243 83.886,152.389 86.683,150.785 89.911 L 149.700 92.094 149.700 94.897 C 149.700 96.565,149.806 98.105,149.962 98.700 C 151.205 103.447,151.955 107.306,151.743 107.860 C 151.672 108.046,151.228 108.208,150.564 108.290 C 149.035 108.480,146.982 108.994,146.400 109.334 C 146.095 109.512,146.056 109.571,146.300 109.485 C 147.479 109.069,148.858 108.751,150.154 108.594 C 151.920 108.381,152.000 108.336,152.000 107.561 C 152.000 106.778,151.636 104.496,151.376 103.654 C 151.267 103.299,151.100 102.579,151.005 102.054 C 150.910 101.529,150.648 100.402,150.422 99.550 C 148.779 93.333,150.523 88.253,155.608 84.445 C 159.078 81.847,160.464 82.022,164.189 85.526 C 167.665 88.796,168.706 90.492,168.525 92.589 L 168.413 93.900 168.688 92.804 C 169.133 91.033,168.363 89.523,165.462 86.481 C 161.936 82.783,160.198 81.900,158.100 82.741 M309.453 85.511 C 308.336 86.818,306.452 89.904,304.939 92.905 C 303.444 95.872,302.000 98.953,302.000 99.174 C 302.000 99.257,301.788 99.769,301.528 100.313 C 301.269 100.856,300.897 101.795,300.702 102.400 C 300.507 103.005,300.283 103.590,300.204 103.700 C 299.826 104.229,297.865 110.528,297.714 111.700 L 297.610 112.500 297.820 111.700 C 300.619 101.050,308.501 84.800,310.869 84.800 C 312.143 84.800,314.280 86.734,315.944 89.391 C 316.188 89.781,316.390 90.003,316.394 89.884 C 316.414 89.173,313.748 86.013,312.411 85.164 C 311.081 84.320,310.402 84.400,309.453 85.511 M125.200 85.586 C 114.387 89.762,105.878 105.240,108.589 115.800 C 109.918 120.977,115.342 124.960,119.343 123.698 C 121.803 122.922,122.429 122.677,124.256 121.772 C 133.395 117.248,138.900 108.349,138.900 98.100 C 138.900 92.964,137.671 90.245,135.536 90.661 C 135.178 90.730,135.199 90.750,135.649 90.773 C 138.985 90.938,139.876 99.596,137.293 106.734 C 134.347 114.871,127.790 121.078,119.775 123.317 C 114.995 124.652,110.117 121.087,108.700 115.222 C 106.050 104.253,116.315 87.576,127.100 85.330 C 127.320 85.284,127.185 85.245,126.800 85.242 C 126.415 85.240,125.695 85.395,125.200 85.586 M128.743 85.340 C 129.449 85.477,131.046 87.048,132.199 88.740 C 133.377 90.469,133.778 90.957,133.398 90.200 C 132.403 88.220,129.549 85.176,128.734 85.227 L 128.300 85.254 128.743 85.340 M230.400 87.610 C 230.400 87.983,231.024 89.059,232.335 90.949 C 238.151 99.330,240.105 104.276,240.096 110.600 C 240.091 113.910,239.809 115.409,238.703 117.992 C 237.717 120.296,237.806 120.353,239.722 118.650 C 244.795 114.140,243.923 103.081,237.861 95.055 C 235.284 91.643,230.400 86.770,230.400 87.610 M270.166 89.690 C 269.689 90.069,268.715 90.807,268.000 91.330 C 261.307 96.224,257.538 101.368,255.999 107.710 C 254.968 111.959,255.449 116.756,257.073 118.424 C 257.435 118.796,257.982 119.438,258.289 119.850 C 259.344 121.267,259.404 120.913,258.588 118.100 C 256.560 111.110,259.717 102.449,267.301 94.200 C 270.084 91.173,271.200 89.798,271.200 89.395 C 271.200 88.877,271.177 88.884,270.166 89.690 M332.100 89.592 C 334.376 89.777,335.901 90.840,337.101 93.079 L 337.500 93.824 336.354 94.862 C 334.445 96.591,328.843 106.709,329.455 107.322 C 329.511 107.377,329.806 106.770,330.110 105.973 C 331.394 102.613,334.945 96.317,336.073 95.400 C 337.873 93.937,337.922 93.660,336.674 92.025 C 335.180 90.066,333.913 89.384,331.856 89.431 L 330.500 89.462 332.100 89.592 M329.021 90.018 C 328.537 90.233,328.184 90.451,328.236 90.503 C 328.288 90.555,328.684 90.430,329.115 90.225 C 329.547 90.021,330.035 89.804,330.200 89.743 C 330.467 89.644,330.467 89.631,330.200 89.630 C 330.035 89.629,329.504 89.804,329.021 90.018 M219.149 92.245 C 218.539 93.485,217.701 95.310,217.288 96.300 C 216.874 97.290,216.460 98.185,216.368 98.290 C 216.276 98.394,216.197 98.664,216.193 98.890 C 216.185 99.351,215.286 100.553,215.093 100.360 C 215.025 100.292,215.097 99.733,215.254 99.118 C 215.753 97.155,214.650 97.974,213.527 100.400 C 212.298 103.052,211.963 104.845,212.005 108.535 C 212.029 110.606,212.000 110.786,211.615 110.992 C 211.035 111.302,211.023 112.591,211.599 112.742 C 211.955 112.835,211.985 112.960,211.875 113.896 C 211.794 114.582,211.829 114.994,211.976 115.085 C 212.099 115.161,212.200 115.528,212.200 115.900 C 212.200 116.272,212.290 116.632,212.400 116.700 C 212.510 116.768,212.596 117.021,212.592 117.262 C 212.582 117.811,211.492 116.659,211.161 115.749 C 211.044 115.428,210.760 115.147,210.482 115.078 C 209.962 114.947,208.600 112.972,208.600 112.349 C 208.600 112.149,208.471 111.787,208.313 111.543 C 208.108 111.227,208.035 110.557,208.057 109.200 C 208.076 108.050,207.982 106.994,207.820 106.525 C 207.520 105.657,207.539 105.565,208.738 102.061 C 209.458 99.958,210.248 98.509,211.170 97.602 C 211.461 97.315,211.873 96.862,212.085 96.596 C 212.342 96.274,212.499 96.198,212.556 96.368 C 212.603 96.508,212.497 96.783,212.321 96.977 C 212.144 97.172,212.000 97.432,212.000 97.555 C 212.000 97.678,211.785 98.183,211.522 98.678 C 211.259 99.173,211.094 99.627,211.155 99.689 C 211.358 99.891,211.600 99.804,211.600 99.528 C 211.600 99.379,211.938 98.861,212.350 98.378 C 213.200 97.382,213.771 96.563,214.201 95.724 C 214.692 94.765,219.911 89.644,220.152 89.885 C 220.210 89.943,219.758 91.005,219.149 92.245 M316.407 90.305 C 316.411 90.412,316.543 90.725,316.700 91.000 C 317.315 92.076,316.732 93.409,312.890 99.711 C 308.640 106.681,306.449 111.000,307.163 111.000 C 307.396 111.000,309.871 108.323,311.333 106.487 C 316.201 100.381,323.374 93.473,327.137 91.268 C 327.622 90.984,327.975 90.709,327.923 90.657 C 327.871 90.605,327.170 90.988,326.364 91.509 C 322.178 94.217,316.974 99.366,310.099 107.600 C 305.953 112.566,307.028 109.834,313.324 99.400 C 316.290 94.485,317.269 92.501,317.135 91.678 C 317.036 91.065,316.390 89.849,316.407 90.305 M275.377 90.933 C 275.364 91.025,275.333 91.576,275.308 92.158 C 275.267 93.132,274.862 93.986,274.672 93.500 C 274.307 92.568,273.872 92.693,273.234 93.914 C 273.050 94.265,272.441 95.215,271.879 96.026 C 270.126 98.559,267.600 104.266,267.600 105.695 C 267.600 105.984,267.459 106.493,267.286 106.827 C 266.525 108.299,266.295 114.853,266.943 116.608 C 267.165 117.209,267.410 118.060,267.488 118.500 C 267.566 118.940,267.785 119.570,267.975 119.900 C 268.165 120.230,268.474 120.995,268.663 121.600 C 269.270 123.546,270.421 124.817,271.198 124.401 C 271.652 124.158,272.000 124.282,272.000 124.687 C 272.000 125.302,272.595 125.494,273.310 125.108 C 273.865 124.810,274.046 124.789,274.294 124.995 C 275.698 126.161,281.597 117.369,281.603 114.100 C 281.604 113.770,281.738 113.058,281.902 112.518 C 282.855 109.376,281.658 99.316,280.268 98.788 C 279.864 98.634,279.819 98.539,279.992 98.215 C 280.287 97.664,280.250 97.090,279.900 96.800 C 279.735 96.663,279.600 96.283,279.600 95.956 C 279.600 95.129,279.010 93.181,278.650 92.821 C 278.310 92.482,277.888 92.882,277.670 93.750 C 277.369 94.947,276.678 94.279,276.213 92.343 C 275.924 91.142,275.457 90.355,275.377 90.933 M235.116 93.000 C 235.374 93.385,236.005 94.282,236.518 94.993 C 237.762 96.719,239.192 99.554,239.801 101.500 C 239.939 101.940,240.137 102.524,240.243 102.798 C 240.619 103.772,241.427 110.068,241.142 109.800 C 241.084 109.745,240.849 108.665,240.619 107.400 C 240.234 105.271,239.805 103.713,239.052 101.700 C 237.968 98.806,236.904 96.800,234.468 93.061 C 233.881 92.159,233.400 91.355,233.400 91.273 C 233.400 91.030,234.610 92.247,235.116 93.000 M93.800 91.785 C 93.280 92.085,90.982 92.441,87.141 92.818 C 85.844 92.945,84.826 93.093,84.878 93.145 C 85.169 93.436,91.223 92.604,94.600 91.811 C 95.296 91.647,95.296 91.646,94.700 91.629 C 94.370 91.620,93.965 91.690,93.800 91.785 M130.735 92.890 C 123.485 95.476,115.811 107.272,116.035 115.489 C 116.148 119.678,116.873 120.585,119.442 119.747 C 123.668 118.370,127.706 114.620,130.046 109.900 C 131.421 107.128,132.628 103.329,132.577 101.934 C 132.563 101.568,132.520 101.469,132.475 101.700 C 132.432 101.920,132.301 102.595,132.185 103.200 C 130.691 110.979,125.431 117.593,119.136 119.607 L 117.772 120.044 117.314 119.613 C 113.730 116.246,118.406 102.806,125.266 96.756 C 129.183 93.301,132.329 91.946,132.423 93.674 C 132.443 94.034,132.461 94.043,132.541 93.735 C 132.767 92.860,131.925 92.466,130.735 92.890 M161.400 92.918 C 158.688 94.091,157.286 97.772,157.058 104.321 C 156.924 108.155,156.708 107.866,159.800 108.000 L 162.100 108.100 162.161 108.625 C 162.239 109.300,161.794 109.734,160.741 110.010 C 156.811 111.040,157.000 110.826,157.000 114.237 C 157.000 121.069,154.356 125.552,148.877 128.010 C 148.154 128.335,147.414 128.607,147.231 128.616 C 146.997 128.627,146.979 128.663,147.168 128.738 C 147.544 128.888,149.889 127.870,151.200 126.987 C 153.731 125.283,155.597 122.828,156.361 120.195 C 157.099 117.653,157.200 116.962,157.200 114.442 C 157.200 111.138,157.504 110.773,160.649 110.296 C 161.974 110.095,162.961 108.789,162.293 108.121 C 162.040 107.868,161.537 107.800,159.924 107.800 C 156.991 107.800,157.105 107.956,157.273 104.179 C 157.589 97.066,159.298 93.271,162.372 92.858 C 164.160 92.619,164.682 94.503,163.607 97.320 C 162.690 99.723,164.152 101.214,165.793 99.550 C 166.484 98.849,167.507 97.240,167.357 97.090 C 167.306 97.039,167.023 97.442,166.727 97.986 C 164.865 101.407,162.665 100.411,164.009 96.756 C 165.138 93.685,163.886 91.843,161.400 92.918 M225.848 94.046 C 225.902 94.626,226.059 95.370,226.197 95.700 L 226.448 96.300 226.606 95.800 C 226.694 95.525,226.821 95.049,226.888 94.742 C 227.115 93.716,227.673 94.958,228.593 98.537 C 228.755 99.168,228.918 99.389,229.254 99.437 C 229.735 99.505,229.813 100.521,229.492 102.550 C 229.357 103.403,229.512 103.608,229.957 103.163 C 230.354 102.766,230.389 103.010,230.412 106.411 C 230.436 109.982,230.374 110.344,229.692 110.603 C 229.270 110.763,229.233 110.913,229.169 112.738 C 229.110 114.402,229.025 114.820,228.607 115.493 L 228.115 116.285 227.980 115.593 C 227.906 115.212,227.779 114.540,227.699 114.100 C 227.527 113.164,227.241 113.575,227.211 114.800 C 227.192 115.601,226.796 116.486,226.500 116.390 C 226.085 116.256,225.770 114.398,225.663 111.450 C 225.601 109.772,225.474 108.400,225.379 108.400 C 225.072 108.400,224.961 109.484,224.670 115.337 C 224.598 116.788,224.471 118.085,224.387 118.221 C 224.153 118.600,223.075 117.410,222.911 116.590 C 222.283 113.464,221.973 113.215,221.616 115.550 C 221.289 117.687,221.248 117.800,220.802 117.800 C 220.383 117.800,220.176 117.169,220.335 116.373 C 220.409 116.006,220.325 115.615,220.099 115.271 C 219.772 114.772,219.529 113.884,218.987 111.214 C 218.792 110.253,218.812 110.047,219.164 109.414 C 219.473 108.858,219.593 108.126,219.706 106.100 C 219.823 104.015,219.926 103.406,220.226 103.023 C 220.432 102.761,220.600 102.273,220.600 101.939 C 220.600 101.605,220.722 101.189,220.870 101.016 C 221.140 100.701,221.800 98.836,221.800 98.389 C 221.800 97.528,223.512 94.451,224.085 94.281 C 224.420 94.181,224.786 93.920,224.897 93.700 C 225.500 92.512,225.712 92.589,225.848 94.046 M266.713 93.950 C 266.228 94.583,265.576 95.374,265.265 95.708 C 262.941 98.209,258.600 105.360,258.600 106.686 C 258.600 106.806,258.375 107.614,258.100 108.480 C 257.817 109.372,257.599 110.542,257.597 111.178 C 257.595 111.795,257.507 112.435,257.400 112.600 C 256.438 114.088,257.474 108.707,259.128 103.624 C 260.119 100.577,265.853 93.215,267.548 92.811 C 267.575 92.805,267.199 93.317,266.713 93.950 M281.600 93.413 C 281.600 93.531,281.893 93.921,282.250 94.281 C 284.304 96.346,286.026 98.839,286.758 100.806 C 287.260 102.155,287.704 102.896,288.050 102.962 C 288.496 103.048,288.525 102.083,288.094 101.512 C 287.932 101.298,287.800 100.941,287.800 100.717 C 287.800 100.025,289.775 102.979,290.128 104.200 C 290.303 104.805,290.539 105.525,290.654 105.800 C 290.768 106.075,290.983 107.020,291.130 107.900 C 291.278 108.780,291.454 109.825,291.522 110.223 C 291.620 110.795,291.566 111.003,291.264 111.223 C 290.764 111.587,290.350 113.031,290.507 113.867 C 290.632 114.533,290.128 116.497,289.776 116.715 C 289.679 116.775,289.600 116.994,289.600 117.202 C 289.600 117.411,289.363 117.743,289.073 117.941 C 288.406 118.396,286.710 120.043,285.768 121.150 C 284.836 122.247,284.182 122.339,284.906 121.272 C 285.178 120.872,285.400 120.350,285.400 120.112 C 285.400 119.874,285.505 119.575,285.634 119.446 C 285.911 119.169,286.393 117.846,286.397 117.350 C 286.399 117.158,286.512 117.023,286.650 117.050 C 286.806 117.081,286.923 116.819,286.962 116.350 C 287.001 115.876,286.938 115.600,286.791 115.600 C 286.564 115.600,286.579 115.053,286.917 111.000 C 287.115 108.630,287.095 107.333,286.856 107.020 C 286.722 106.844,286.609 106.430,286.605 106.100 C 286.586 104.545,285.356 101.621,284.886 102.011 C 284.662 102.197,284.617 102.479,284.712 103.107 C 284.789 103.621,284.756 104.004,284.628 104.083 C 284.415 104.214,284.076 103.202,282.795 98.600 C 282.442 97.335,281.998 95.895,281.806 95.400 C 281.344 94.205,281.161 93.200,281.405 93.200 C 281.512 93.200,281.600 93.296,281.600 93.413 M132.697 97.600 C 132.693 101.055,132.695 101.074,132.874 99.048 C 132.980 97.843,132.982 96.398,132.877 95.548 C 132.725 94.306,132.700 94.598,132.697 97.600 M167.863 95.446 C 167.623 96.132,167.457 96.723,167.494 96.760 C 167.595 96.862,168.424 94.571,168.357 94.372 C 168.326 94.277,168.103 94.761,167.863 95.446 M214.200 94.362 C 214.200 94.682,213.660 95.253,213.429 95.176 C 213.261 95.120,213.284 94.969,213.508 94.649 C 213.819 94.206,214.200 94.047,214.200 94.362 M193.606 95.116 C 187.598 98.550,178.026 111.161,173.025 122.231 C 171.587 125.416,170.348 125.228,169.079 121.634 C 168.820 120.900,168.607 120.492,168.604 120.726 C 168.597 121.503,169.525 123.532,170.264 124.350 C 171.201 125.389,172.165 124.664,173.325 122.047 C 174.923 118.444,178.080 112.865,180.370 109.600 C 182.262 106.901,184.939 103.456,186.069 102.265 C 186.714 101.586,187.373 100.843,187.533 100.614 C 188.048 99.878,192.060 96.357,193.300 95.552 C 194.687 94.652,194.943 94.851,194.235 96.280 C 193.565 97.633,192.000 100.997,192.000 101.083 C 192.000 101.128,191.685 101.837,191.300 102.659 C 190.915 103.481,190.600 104.210,190.600 104.279 C 190.600 104.348,190.426 104.786,190.214 105.252 C 189.877 105.993,189.216 107.629,188.296 110.000 C 188.147 110.385,187.917 111.060,187.787 111.500 C 187.656 111.940,187.472 112.502,187.379 112.750 C 185.027 118.970,188.319 123.331,193.745 121.185 C 197.286 119.784,198.600 118.912,198.600 117.965 C 198.600 117.271,197.904 116.516,197.435 116.701 C 195.758 117.362,194.419 116.980,194.368 115.826 C 194.336 115.100,194.336 115.100,194.256 115.741 C 194.095 117.032,194.415 117.250,196.361 117.170 C 199.177 117.055,199.176 118.391,196.358 119.819 C 191.152 122.458,188.752 122.181,187.201 118.764 C 186.068 116.267,188.038 109.924,193.684 97.900 C 195.381 94.285,195.376 94.104,193.606 95.116 M173.235 95.985 C 172.903 96.937,172.957 97.235,173.313 96.415 C 173.476 96.038,173.579 95.636,173.540 95.520 C 173.502 95.405,173.364 95.614,173.235 95.985 M275.898 96.197 C 276.068 96.525,276.464 96.926,276.779 97.089 C 277.399 97.410,277.600 97.760,277.600 98.523 C 277.600 98.792,277.743 99.347,277.918 99.756 C 278.093 100.165,278.313 101.175,278.408 102.000 C 278.624 103.885,278.808 104.844,279.002 105.100 C 279.754 106.091,279.426 114.738,278.572 116.442 C 278.367 116.850,278.199 117.345,278.197 117.542 C 278.195 117.739,278.063 118.125,277.903 118.400 C 277.742 118.675,277.492 119.125,277.346 119.400 C 276.345 121.288,275.607 121.874,275.897 120.550 C 275.975 120.192,276.031 119.540,276.021 119.100 C 276.011 118.660,276.104 117.971,276.228 117.568 C 276.536 116.563,276.295 115.526,275.884 116.088 C 275.728 116.302,275.600 116.667,275.600 116.900 C 275.600 117.133,275.468 117.498,275.306 117.712 C 275.145 117.925,275.010 118.213,275.006 118.352 C 275.003 118.491,274.824 118.986,274.610 119.452 C 274.395 119.918,274.192 120.615,274.160 121.000 C 274.086 121.867,273.335 122.130,273.129 121.360 C 272.924 120.595,272.985 116.502,273.212 115.853 C 273.337 115.494,273.357 114.991,273.262 114.622 C 272.980 113.534,272.703 113.836,272.640 115.300 C 272.590 116.451,272.495 116.788,272.104 117.200 C 271.842 117.475,271.567 117.947,271.493 118.250 C 271.328 118.916,270.899 118.963,270.580 118.350 C 270.244 117.705,270.239 117.703,269.836 118.067 C 269.170 118.670,268.727 115.389,269.105 112.658 C 269.206 111.930,269.154 111.758,268.719 111.379 C 267.902 110.669,268.243 106.828,269.250 105.405 C 269.443 105.134,269.600 104.666,269.600 104.367 C 269.600 104.068,269.690 103.768,269.800 103.700 C 269.910 103.632,270.000 103.273,270.000 102.902 C 270.000 102.356,270.085 102.216,270.449 102.164 C 270.741 102.122,270.933 101.926,270.999 101.600 C 271.054 101.325,271.248 100.875,271.429 100.600 C 271.610 100.325,272.141 99.223,272.608 98.150 C 273.600 95.871,273.800 95.753,273.800 97.442 L 273.800 98.685 274.392 97.992 C 274.717 97.612,274.987 97.060,274.992 96.766 C 275.011 95.528,275.420 95.271,275.898 96.197 M97.400 96.905 C 96.795 97.163,95.556 97.574,94.648 97.818 C 93.739 98.062,93.035 98.302,93.084 98.351 C 93.187 98.454,95.594 97.872,96.375 97.556 C 96.664 97.439,97.184 97.221,97.530 97.072 C 97.877 96.922,98.254 96.800,98.368 96.800 C 98.483 96.800,98.632 96.710,98.700 96.600 C 98.875 96.318,98.652 96.370,97.400 96.905 M287.263 98.914 C 287.463 99.187,287.598 99.611,287.563 99.855 C 287.508 100.242,287.417 100.178,286.867 99.366 C 286.040 98.143,286.399 97.732,287.263 98.914 M79.932 99.524 C 79.629 100.142,79.428 100.695,79.485 100.752 C 79.543 100.810,79.778 100.418,80.008 99.882 C 80.481 98.778,80.766 98.523,81.160 98.850 C 81.310 98.975,82.078 99.127,82.867 99.188 L 84.300 99.300 84.634 100.400 C 84.817 101.005,85.081 101.945,85.221 102.489 C 85.360 103.033,85.506 103.382,85.545 103.265 C 85.617 103.048,84.982 100.506,84.613 99.535 C 84.422 99.033,84.333 99.000,83.143 99.000 C 82.339 99.000,81.735 98.893,81.488 98.706 C 80.811 98.194,80.505 98.355,79.932 99.524 M91.095 98.679 C 90.661 98.996,90.856 99.870,91.908 102.311 C 92.561 103.827,92.423 103.202,91.604 100.941 C 90.894 98.980,90.951 98.683,92.065 98.544 L 92.700 98.464 92.088 98.432 C 91.752 98.414,91.305 98.526,91.095 98.679 M172.242 99.344 C 171.819 100.453,171.562 101.429,171.667 101.534 C 171.726 101.592,171.873 101.249,171.994 100.770 C 172.115 100.292,172.304 99.686,172.414 99.424 C 172.525 99.162,172.579 98.912,172.534 98.868 C 172.490 98.823,172.358 99.038,172.242 99.344 M210.500 100.400 C 210.354 100.636,210.543 101.000,210.812 101.000 C 210.915 101.000,211.000 100.820,211.000 100.600 C 211.000 100.178,210.709 100.062,210.500 100.400 M79.139 101.241 C 79.078 101.384,78.700 102.265,78.299 103.200 C 76.193 108.104,75.197 110.691,73.602 115.403 C 72.606 118.346,72.289 119.425,71.576 122.300 C 70.821 125.344,70.562 126.301,70.411 126.600 C 69.734 127.940,65.478 125.376,63.319 122.328 C 62.067 120.560,62.054 120.441,62.911 118.647 C 64.808 114.676,65.633 112.766,65.505 112.638 C 65.450 112.583,65.260 112.890,65.082 113.319 C 64.904 113.749,64.132 115.474,63.367 117.153 C 62.370 119.338,62.012 120.332,62.107 120.653 C 63.197 124.329,70.800 129.251,70.800 126.280 C 70.800 126.001,70.896 125.594,71.014 125.374 C 71.132 125.153,71.302 124.552,71.392 124.037 C 72.070 120.151,74.842 111.894,77.879 104.714 C 78.713 102.742,79.362 101.096,79.322 101.056 C 79.282 101.016,79.200 101.099,79.139 101.241 M321.821 101.617 C 318.940 102.769,311.133 111.150,304.697 119.998 C 300.841 125.299,300.454 125.590,298.999 124.275 C 296.890 122.370,296.323 119.516,297.097 114.700 C 297.157 114.327,297.079 114.441,296.891 115.000 C 295.797 118.253,297.055 123.464,299.258 124.807 C 300.577 125.611,301.148 125.153,304.520 120.581 C 309.982 113.179,312.209 110.522,316.377 106.443 C 321.345 101.580,323.226 100.563,321.922 103.444 C 316.957 114.418,318.500 122.034,325.757 122.364 C 328.704 122.498,333.370 120.245,333.394 118.677 C 333.409 117.655,332.169 116.873,331.400 117.419 C 331.169 117.583,331.228 117.604,331.654 117.511 C 332.248 117.382,333.200 118.092,333.200 118.664 C 333.200 119.845,329.020 122.055,326.571 122.169 C 319.010 122.522,317.184 115.606,321.829 104.208 C 322.557 102.423,322.787 101.384,322.450 101.413 C 322.368 101.420,322.084 101.512,321.821 101.617 M171.246 102.606 C 169.724 107.960,168.573 113.865,168.635 116.000 C 168.667 117.130,168.680 117.169,168.731 116.300 C 168.898 113.464,170.563 105.178,171.328 103.378 C 171.497 102.981,171.605 102.444,171.568 102.185 C 171.515 101.815,171.445 101.906,171.246 102.606 M288.231 103.488 C 288.269 103.671,288.390 103.816,288.500 103.811 C 288.797 103.795,288.742 103.347,288.431 103.244 C 288.263 103.188,288.188 103.279,288.231 103.488 M85.620 103.841 C 85.609 104.028,85.681 104.388,85.780 104.641 C 85.879 104.893,86.072 105.505,86.208 106.000 C 86.345 106.495,86.488 106.810,86.527 106.700 C 86.566 106.590,86.382 105.825,86.119 105.000 C 85.855 104.175,85.631 103.653,85.620 103.841 M92.733 104.350 C 95.056 109.917,100.098 118.181,103.150 121.421 C 104.763 123.134,104.778 123.466,103.303 124.906 C 97.519 130.552,93.054 127.265,88.896 114.300 C 88.755 113.860,88.631 113.601,88.620 113.724 C 88.536 114.677,91.305 121.396,92.830 123.939 C 95.677 128.684,99.380 129.061,103.425 125.017 C 105.111 123.330,105.111 123.358,103.442 121.451 C 99.895 117.399,96.749 112.379,93.665 105.850 C 92.648 103.696,92.077 102.777,92.733 104.350 M288.800 104.900 C 288.800 105.065,288.890 105.200,289.000 105.200 C 289.110 105.200,289.200 105.065,289.200 104.900 C 289.200 104.735,289.110 104.600,289.000 104.600 C 288.890 104.600,288.800 104.735,288.800 104.900 M234.309 108.036 C 234.387 110.378,234.232 112.400,233.974 112.400 C 233.777 112.400,233.732 106.610,233.925 106.108 C 234.152 105.516,234.239 105.951,234.309 108.036 M265.115 107.952 C 264.879 108.187,264.786 107.829,264.938 107.274 L 265.095 106.700 265.163 107.268 C 265.200 107.581,265.178 107.888,265.115 107.952 M86.682 107.400 C 86.792 108.028,87.693 111.266,88.018 112.200 C 88.151 112.585,88.294 113.025,88.335 113.179 C 88.376 113.332,88.454 113.412,88.510 113.357 C 88.601 113.266,88.177 111.805,87.014 108.200 C 86.783 107.485,86.634 107.125,86.682 107.400 M329.044 108.144 C 328.639 109.219,328.399 110.066,328.478 110.144 C 328.521 110.188,328.740 109.657,328.965 108.965 C 329.376 107.694,329.432 107.114,329.044 108.144 M144.398 110.188 C 139.566 112.685,135.354 119.819,136.471 123.616 C 137.593 127.432,143.726 130.742,146.500 129.030 C 146.844 128.817,146.802 128.805,146.200 128.941 C 141.805 129.938,136.539 126.347,136.579 122.382 C 136.624 117.853,140.163 112.604,144.729 110.294 C 145.734 109.786,146.001 109.587,145.650 109.610 C 145.567 109.615,145.004 109.875,144.398 110.188 M66.005 111.288 C 65.451 112.581,65.513 112.717,66.109 111.515 C 66.378 110.974,66.555 110.489,66.504 110.437 C 66.452 110.386,66.228 110.769,66.005 111.288 M241.138 111.350 C 241.088 111.543,241.046 111.385,241.046 111.000 C 241.046 110.615,241.088 110.458,241.138 110.650 C 241.188 110.843,241.188 111.158,241.138 111.350 M328.030 111.537 C 327.882 112.205,327.804 112.919,327.857 113.125 C 327.917 113.358,327.962 113.266,327.977 112.880 C 327.990 112.539,328.097 111.980,328.216 111.639 C 328.335 111.297,328.403 110.862,328.366 110.671 C 328.329 110.481,328.178 110.870,328.030 111.537 M273.203 111.450 C 273.205 111.943,273.253 112.028,273.400 111.800 C 273.654 111.407,273.654 110.800,273.400 110.800 C 273.290 110.800,273.201 111.093,273.203 111.450 M280.043 112.837 C 279.738 113.142,279.512 112.917,279.682 112.475 C 279.782 112.214,279.869 112.189,280.047 112.367 C 280.224 112.544,280.224 112.656,280.043 112.837 M297.333 112.733 C 297.260 112.807,297.209 113.144,297.220 113.483 L 297.241 114.100 297.405 113.401 C 297.576 112.673,297.558 112.508,297.333 112.733 M150.500 113.274 C 146.805 115.010,142.400 120.184,142.400 122.787 C 142.400 125.872,144.313 125.827,147.517 122.665 C 149.821 120.392,151.766 116.882,152.081 114.432 C 152.296 112.761,152.020 112.559,150.500 113.274 M151.828 114.300 C 151.483 119.079,144.343 126.991,142.898 124.196 C 141.711 121.900,144.794 117.122,149.359 114.183 C 151.407 112.864,151.930 112.889,151.828 114.300 M270.489 113.817 C 270.415 113.937,270.455 114.135,270.577 114.257 C 270.741 114.421,270.800 114.363,270.800 114.040 C 270.800 113.557,270.696 113.483,270.489 113.817 M327.669 115.100 C 327.669 115.980,327.704 116.315,327.747 115.845 C 327.789 115.374,327.788 114.654,327.745 114.245 C 327.702 113.835,327.668 114.220,327.669 115.100 M287.289 114.617 C 287.215 114.737,287.255 114.935,287.377 115.057 C 287.541 115.221,287.600 115.163,287.600 114.840 C 287.600 114.357,287.496 114.283,287.289 114.617 M270.301 116.198 C 270.234 116.308,270.270 116.555,270.383 116.748 C 270.496 116.942,270.591 116.995,270.594 116.866 C 270.597 116.738,270.655 116.490,270.721 116.316 C 270.853 115.973,270.501 115.874,270.301 116.198 M327.813 117.039 C 327.784 117.817,329.601 118.290,330.700 117.790 C 330.973 117.666,330.799 117.645,330.153 117.726 C 328.917 117.881,328.225 117.693,328.004 117.144 C 327.873 116.818,327.822 116.790,327.813 117.039 M168.467 118.800 C 168.467 119.625,168.503 119.963,168.546 119.550 C 168.589 119.138,168.589 118.463,168.546 118.050 C 168.503 117.638,168.467 117.975,168.467 118.800 M218.600 123.993 C 218.600 124.228,219.392 124.675,219.542 124.525 C 219.601 124.466,219.596 124.278,219.531 124.109 C 219.403 123.775,218.600 123.675,218.600 123.993 M226.650 124.733 C 226.200 124.913,226.364 125.433,226.850 125.364 C 227.097 125.329,227.300 125.172,227.300 125.017 C 227.300 124.700,227.028 124.582,226.650 124.733 M269.075 127.092 C 268.858 127.658,269.282 127.854,270.391 127.701 C 271.444 127.556,271.720 127.119,270.783 127.079 C 270.518 127.068,270.053 126.991,269.752 126.908 C 269.331 126.793,269.174 126.835,269.075 127.092 M276.800 127.207 C 276.168 127.629,277.141 128.041,277.875 127.661 C 278.446 127.366,278.465 127.327,278.099 127.184 C 277.541 126.966,277.149 126.973,276.800 127.207  M -25 0 L -5 0 L -5 20 L -25 20 Z M 405 0 L 425 0 L 425 20 L 405 20 Z" stroke="none" fill="#d1bee6" fill-rule="evenodd" transform="translate(490,260)"></path></g></svg>