<svg id="svg" version="1.1" xmlns="http://www.w3.org/2000/svg" xmlns:xlink="http://www.w3.org/1999/xlink" width="400" height="400" viewBox="0, 0, 400,400"><g id="svgg"><path id="path0" d="M0.000 200.000 L 0.000 400.000 200.000 400.000 L 400.000 400.000 400.000 200.000 L 400.000 0.000 200.000 0.000 L 0.000 0.000 0.000 200.000 M191.541 177.936 C 194.300 179.344,194.293 179.473,191.298 182.839 C 184.561 190.408,179.291 199.243,177.179 206.507 C 176.440 209.049,176.625 209.061,178.589 206.597 C 186.044 197.244,190.867 195.043,195.750 198.769 C 197.341 199.983,197.320 200.351,195.540 202.447 C 192.400 206.145,187.333 215.494,187.333 217.589 C 187.333 218.753,187.335 218.754,188.644 218.579 C 189.963 218.402,190.630 218.918,190.129 219.728 C 189.801 220.258,185.692 222.000,184.769 222.000 C 183.795 222.000,182.098 220.341,181.781 219.078 C 181.556 218.181,183.385 212.250,184.837 209.167 C 188.019 202.411,188.061 202.212,185.985 203.716 C 181.801 206.746,177.037 212.929,173.309 220.167 C 167.227 231.972,168.290 211.429,174.459 197.926 C 174.734 197.325,175.354 195.874,175.838 194.701 C 177.642 190.324,181.111 184.585,185.500 178.718 L 186.833 176.935 188.541 177.106 C 189.480 177.200,190.830 177.573,191.541 177.936 M122.459 182.983 C 134.202 187.558,129.245 202.310,114.898 205.482 C 113.779 205.729,113.797 205.825,115.742 210.167 C 117.409 213.885,120.463 218.918,122.498 221.297 L 124.034 223.094 123.100 224.088 C 118.242 229.260,113.997 224.111,110.182 208.417 C 109.599 206.018,109.587 206.000,108.484 206.000 C 107.873 206.000,107.268 205.831,107.141 205.625 C 106.634 204.804,102.376 215.347,100.666 221.658 C 100.096 223.761,99.570 225.541,99.497 225.614 C 98.881 226.230,95.858 224.297,94.570 222.465 L 93.615 221.107 95.507 216.803 C 96.547 214.437,97.893 211.375,98.497 210.000 C 103.353 198.962,106.948 189.535,106.489 189.050 C 106.246 188.795,104.006 189.749,101.514 191.169 C 98.436 192.923,98.289 192.876,96.630 189.593 C 95.402 187.161,95.398 187.185,97.110 186.182 C 103.368 182.515,116.879 180.810,122.459 182.983 M116.435 186.554 C 115.722 186.656,115.426 186.853,115.540 187.150 C 115.633 187.394,114.970 188.998,114.066 190.714 C 111.464 195.651,109.408 199.752,109.017 200.785 L 108.656 201.737 111.412 201.497 C 120.526 200.701,126.333 196.834,126.333 191.560 C 126.333 187.877,122.115 185.743,116.435 186.554 M213.822 187.923 L 214.654 189.180 213.827 190.813 C 212.156 194.114,213.059 196.934,216.531 199.259 C 216.880 199.494,217.559 199.944,218.040 200.259 C 227.531 206.501,227.814 219.959,218.520 223.111 C 217.614 223.418,216.515 224.006,216.077 224.417 C 215.465 224.993,214.931 225.151,213.760 225.106 C 212.865 225.072,211.918 225.257,211.463 225.555 C 210.651 226.087,208.195 225.919,207.815 225.304 C 207.712 225.137,206.837 225.000,205.872 225.000 C 204.452 225.000,203.973 224.848,203.368 224.203 C 202.956 223.765,201.966 223.224,201.166 223.000 C 200.367 222.776,199.432 222.347,199.089 222.047 C 198.745 221.746,198.172 221.336,197.815 221.135 C 197.458 220.935,196.832 220.260,196.422 219.635 C 196.013 219.011,195.533 218.327,195.357 218.116 C 193.494 215.893,193.557 209.703,195.479 206.167 C 196.623 204.063,199.447 200.697,200.087 200.675 C 201.573 200.625,207.123 195.280,207.704 193.339 C 207.925 192.603,208.657 190.913,209.332 189.583 C 210.546 187.189,210.736 187.029,212.745 186.706 C 212.880 186.684,213.365 187.232,213.822 187.923 M245.054 188.626 C 245.530 189.072,246.975 193.107,247.192 194.595 C 247.561 197.127,248.485 198.501,252.470 202.444 C 255.127 205.074,256.490 206.705,257.113 208.000 C 260.757 215.580,257.345 224.124,250.041 225.712 C 249.010 225.936,247.809 226.393,247.372 226.726 C 246.518 227.378,244.177 227.557,243.831 226.996 C 243.699 226.783,243.359 226.844,242.904 227.163 C 241.813 227.927,240.196 227.788,239.061 226.833 C 238.372 226.254,237.671 226.000,236.760 226.000 C 235.779 226.000,235.247 225.783,234.641 225.134 C 234.197 224.658,233.233 223.968,232.500 223.600 C 223.122 218.899,225.607 205.960,236.970 200.322 C 241.388 198.130,243.415 194.332,241.511 191.814 C 240.066 189.903,243.307 186.988,245.054 188.626 M209.509 191.369 C 209.185 192.237,208.741 195.060,208.972 194.779 C 209.314 194.365,210.049 191.271,209.852 191.074 C 209.759 190.981,209.604 191.114,209.509 191.369 M245.381 193.000 C 245.382 193.458,245.503 194.508,245.650 195.333 L 245.917 196.833 245.935 195.167 C 245.945 194.250,245.824 193.200,245.667 192.833 C 245.406 192.226,245.380 192.241,245.381 193.000 M164.203 194.856 C 167.769 197.209,169.485 199.938,168.875 202.287 C 167.726 206.720,164.630 208.488,165.680 204.113 C 166.273 201.638,165.676 200.887,163.819 201.773 C 162.091 202.597,161.313 204.566,161.086 208.689 L 160.905 211.962 162.699 212.064 C 165.634 212.232,165.205 213.432,161.959 214.135 C 161.117 214.318,161.078 214.428,160.931 217.079 C 160.436 225.970,150.800 230.842,146.823 224.211 C 144.418 220.202,150.866 212.374,156.604 212.338 C 157.503 212.333,157.423 210.993,156.284 207.001 C 154.740 201.587,156.566 196.986,161.171 194.689 C 162.845 193.855,162.672 193.845,164.203 194.856 M271.508 196.718 C 274.713 199.532,274.656 200.679,271.011 206.667 C 269.593 208.997,266.588 214.667,266.772 214.667 C 266.833 214.667,268.447 212.846,270.358 210.620 C 279.770 199.660,284.895 196.849,287.935 200.979 L 288.703 202.023 287.317 203.595 C 284.672 206.592,281.667 213.832,281.667 217.205 C 281.667 219.189,282.195 219.623,283.847 218.995 C 286.503 217.985,285.959 220.236,283.217 221.606 C 277.136 224.643,273.731 218.987,276.821 210.985 C 278.190 207.442,278.145 207.667,277.485 207.667 C 276.540 207.667,269.826 214.775,266.367 219.436 C 262.587 224.531,262.319 224.749,261.159 223.660 C 258.415 221.082,259.711 213.783,264.777 203.283 C 268.389 195.798,269.370 194.841,271.508 196.718 M141.810 196.708 C 142.306 197.098,143.078 197.998,143.526 198.708 C 144.158 199.709,144.553 200.000,145.279 200.000 C 149.949 200.000,148.524 211.806,143.155 217.605 C 134.253 227.220,124.269 223.386,126.653 211.267 C 128.288 202.955,137.952 193.673,141.810 196.708 M203.897 200.620 C 202.945 201.512,201.994 202.179,201.783 202.104 C 201.572 202.028,200.909 202.649,200.310 203.483 C 199.711 204.317,199.087 205.000,198.925 205.000 C 198.126 205.000,196.891 208.855,196.895 211.333 C 196.902 214.864,197.170 215.709,198.871 217.545 C 200.310 219.098,200.363 219.125,200.135 218.167 C 200.004 217.617,199.769 217.116,199.613 217.055 C 199.457 216.993,199.423 216.792,199.537 216.606 C 199.652 216.421,199.540 215.885,199.289 215.414 C 198.931 214.741,198.922 214.528,199.250 214.418 C 199.505 214.332,199.667 213.666,199.667 212.706 C 199.667 211.841,199.479 210.944,199.250 210.714 C 198.916 210.377,198.940 210.334,199.370 210.498 C 199.791 210.658,199.944 210.428,200.078 209.435 C 200.272 207.999,201.591 205.000,202.028 205.000 C 202.187 205.000,202.171 205.385,201.992 205.855 C 201.594 206.900,201.591 207.000,201.952 207.000 C 202.110 207.000,202.881 205.537,203.668 203.750 C 204.454 201.963,205.318 200.162,205.587 199.750 C 206.363 198.562,205.767 198.868,203.897 200.620 M215.251 201.167 C 219.381 207.573,220.797 213.024,219.580 217.833 C 219.364 218.690,219.396 218.666,219.805 217.667 C 221.549 213.406,219.418 205.119,215.471 200.813 L 213.962 199.167 215.251 201.167 M248.290 201.114 C 248.494 201.360,248.566 201.656,248.450 201.773 C 248.333 201.889,248.401 202.180,248.600 202.419 C 249.076 202.993,250.664 208.498,250.677 209.621 C 250.686 210.385,250.732 210.423,251.030 209.910 C 251.219 209.585,251.284 209.036,251.173 208.688 C 250.920 207.890,251.520 207.469,251.792 208.254 C 252.962 211.631,253.040 212.523,252.499 216.417 C 252.397 217.152,252.464 217.667,252.663 217.667 C 252.848 217.667,253.000 217.417,253.000 217.111 C 253.000 216.806,253.082 216.638,253.183 216.738 C 253.494 217.050,252.951 218.667,252.535 218.667 C 252.319 218.667,252.112 218.929,252.076 219.250 C 251.933 220.514,251.786 220.897,251.018 222.011 C 250.508 222.750,251.020 222.367,252.440 220.948 C 254.705 218.683,255.333 217.628,255.333 216.088 C 255.333 215.610,255.551 214.979,255.817 214.685 C 256.379 214.063,255.918 211.442,255.135 210.805 C 254.834 210.561,254.800 210.334,255.028 210.106 C 255.256 209.878,254.967 209.100,254.140 207.710 C 252.556 205.053,252.129 204.806,253.214 207.176 C 253.684 208.203,253.978 209.133,253.868 209.244 C 253.757 209.354,253.667 209.261,253.667 209.036 C 253.667 208.811,253.493 208.734,253.282 208.865 C 253.048 209.010,252.987 208.957,253.128 208.730 C 253.509 208.112,248.869 200.667,248.103 200.667 C 248.001 200.667,248.085 200.868,248.290 201.114 M236.960 203.277 C 233.536 206.986,231.618 211.568,231.710 215.820 L 231.754 217.833 232.009 215.656 C 232.543 211.097,234.225 207.404,237.554 203.480 C 240.046 200.543,239.619 200.397,236.960 203.277 M141.411 201.993 C 136.543 204.203,131.750 212.248,132.058 217.692 C 132.243 220.972,132.610 221.235,135.229 219.975 C 140.405 217.484,143.666 211.695,143.698 204.941 C 143.717 200.991,143.692 200.958,141.411 201.993 M208.903 202.001 C 208.787 202.447,208.552 202.602,208.198 202.466 C 207.831 202.325,207.663 202.454,207.656 202.881 C 207.650 203.221,207.436 203.776,207.180 204.114 C 206.924 204.452,206.616 205.314,206.495 206.031 C 206.374 206.747,206.122 207.333,205.935 207.333 C 205.748 207.333,205.680 207.554,205.783 207.823 C 205.886 208.092,205.827 208.401,205.652 208.509 C 205.477 208.617,205.327 209.410,205.319 210.270 C 205.311 211.130,205.103 212.396,204.858 213.083 C 204.613 213.771,204.528 214.333,204.671 214.333 C 204.813 214.333,205.009 214.896,205.105 215.583 C 205.388 217.609,205.732 218.790,206.246 219.500 C 206.728 220.166,206.728 220.166,206.534 219.498 C 206.428 219.131,206.457 218.156,206.600 217.332 L 206.859 215.833 207.306 217.417 C 207.552 218.287,207.884 219.000,208.043 219.000 C 208.203 219.000,208.333 219.250,208.333 219.556 C 208.333 219.861,208.422 220.022,208.531 219.913 C 208.640 219.804,208.806 217.867,208.901 215.608 C 209.164 209.311,209.355 210.170,209.483 218.222 C 209.512 220.032,209.934 219.811,210.178 217.857 C 210.473 215.497,210.988 215.122,211.039 217.230 C 211.060 218.112,211.149 218.533,211.238 218.167 C 211.326 217.800,211.533 217.358,211.699 217.183 C 211.865 217.009,212.000 216.234,212.000 215.461 C 212.000 214.688,212.162 214.002,212.360 213.936 C 212.772 213.798,213.030 208.725,212.638 208.482 C 212.498 208.396,212.310 208.590,212.220 208.913 C 212.129 209.236,212.140 208.690,212.244 207.700 C 212.374 206.457,212.321 205.968,212.074 206.121 C 211.876 206.243,211.645 206.078,211.560 205.755 C 211.474 205.431,211.210 204.420,210.971 203.508 L 210.538 201.850 210.194 203.008 L 209.850 204.167 209.739 202.750 C 209.622 201.257,209.197 200.876,208.903 202.001 M201.276 203.697 C 200.855 204.447,200.232 205.209,199.892 205.391 C 199.432 205.638,199.327 205.947,199.481 206.611 C 199.619 207.209,199.586 207.349,199.380 207.039 C 199.137 206.675,199.024 206.733,198.839 207.314 C 198.711 207.719,198.542 207.987,198.464 207.909 C 198.078 207.523,201.155 202.335,201.771 202.334 C 201.921 202.334,201.698 202.947,201.276 203.697 M242.878 204.446 C 242.622 205.058,242.310 205.883,242.184 206.279 C 242.058 206.676,241.820 207.000,241.655 207.000 C 241.489 207.000,241.441 207.225,241.546 207.500 C 241.664 207.807,241.546 208.000,241.238 208.000 C 240.894 208.000,240.578 208.702,240.223 210.250 C 239.454 213.602,239.377 214.371,239.791 214.531 C 240.022 214.621,240.181 215.711,240.204 217.359 C 240.224 218.834,240.393 220.193,240.579 220.379 C 240.808 220.608,240.861 220.413,240.744 219.775 L 240.570 218.833 241.274 219.667 L 241.978 220.500 241.989 219.650 C 241.995 219.182,242.139 218.657,242.310 218.483 C 242.480 218.309,242.692 217.642,242.781 217.000 C 242.871 216.358,242.899 216.957,242.844 218.330 C 242.689 222.200,243.242 223.101,244.074 220.333 C 245.075 217.005,245.643 216.752,245.032 219.908 C 244.597 222.157,245.426 221.999,246.298 219.667 C 246.538 219.025,246.857 218.200,247.007 217.833 C 247.463 216.721,247.671 212.177,247.321 210.968 C 247.140 210.344,246.839 208.858,246.651 207.667 C 246.245 205.093,246.003 204.220,245.762 204.461 C 245.664 204.558,245.308 204.307,244.970 203.902 C 244.377 203.192,244.355 203.190,244.333 203.833 C 244.320 204.200,244.081 204.875,243.802 205.333 C 243.307 206.147,243.300 206.133,243.485 204.750 C 243.713 203.046,243.506 202.943,242.878 204.446 M215.096 213.000 C 215.134 214.283,215.279 215.333,215.416 215.333 C 215.554 215.333,215.667 214.283,215.667 213.000 C 215.667 211.717,215.522 210.667,215.346 210.667 C 215.164 210.667,215.056 211.679,215.096 213.000 M237.243 211.201 C 237.109 211.335,237.005 211.757,237.010 212.139 C 237.019 212.780,237.047 212.788,237.367 212.237 C 237.740 211.597,237.645 210.800,237.243 211.201 M236.910 213.201 C 236.776 213.335,236.667 213.674,236.667 213.956 C 236.667 214.331,236.765 214.368,237.037 214.096 C 237.241 213.892,237.351 213.552,237.281 213.342 C 237.210 213.131,237.043 213.068,236.910 213.201 M243.236 215.079 C 243.156 215.494,243.088 215.233,243.084 214.500 C 243.080 213.767,243.146 213.427,243.229 213.746 C 243.312 214.065,243.315 214.665,243.236 215.079 M247.907 214.777 C 247.535 215.722,247.596 216.204,248.031 215.769 C 248.232 215.568,248.340 215.126,248.271 214.785 C 248.151 214.189,248.138 214.188,247.907 214.777 M155.500 216.401 C 151.700 219.110,149.849 222.193,150.963 223.952 C 151.981 225.558,157.333 219.394,157.333 216.617 C 157.333 215.484,156.863 215.429,155.500 216.401 " stroke="none" fill="#fbfbfb" fill-rule="evenodd"></path><path id="path1" d="M186.268 178.417 C 177.870 188.578,170.106 206.982,169.453 218.272 C 169.157 223.399,170.460 224.796,172.283 221.305 C 176.807 212.643,181.789 206.082,185.919 203.346 C 188.414 201.693,188.555 202.260,186.613 206.147 C 180.651 218.079,181.219 224.055,187.984 220.574 C 190.000 219.537,190.169 218.768,188.344 218.942 C 186.931 219.077,186.814 218.924,186.990 217.167 C 187.081 216.252,189.456 210.926,190.581 209.114 C 192.479 206.055,194.468 203.120,195.580 201.739 C 196.890 200.111,196.836 199.941,194.498 198.332 C 190.524 195.598,185.495 198.425,178.341 207.417 C 175.568 210.901,175.381 210.216,177.543 204.500 C 180.741 196.047,184.407 190.074,190.777 182.937 L 193.659 179.707 192.746 179.060 C 190.150 177.219,187.477 176.954,186.268 178.417 M107.947 183.013 C 101.666 184.120,95.798 186.480,96.180 187.747 C 96.574 189.052,97.308 190.466,98.115 191.474 L 98.895 192.447 100.031 191.599 C 101.373 190.597,106.636 188.191,106.902 188.458 C 107.216 188.771,106.020 193.004,104.671 196.356 C 103.012 200.478,100.802 205.719,99.832 207.833 C 99.411 208.750,98.692 210.400,98.234 211.500 C 96.283 216.185,94.634 219.833,94.328 220.138 C 93.532 220.935,95.892 224.044,97.946 224.902 C 99.364 225.494,99.414 225.432,100.155 222.167 C 101.441 216.495,106.131 204.836,106.979 205.200 C 107.266 205.323,108.014 205.516,108.643 205.630 C 109.480 205.782,109.853 206.060,110.036 206.669 C 110.174 207.126,110.745 209.150,111.305 211.167 C 115.025 224.557,117.492 227.595,122.083 224.436 C 123.626 223.375,123.626 223.287,122.080 221.380 C 119.328 217.985,116.920 213.877,114.856 209.054 C 113.356 205.548,113.354 205.566,115.250 205.110 C 123.202 203.198,128.443 198.000,128.460 192.008 C 128.482 184.160,120.730 180.761,107.947 183.013 M123.516 186.926 C 127.953 189.201,127.711 194.763,123.031 198.117 C 119.802 200.432,113.690 202.176,109.659 201.934 L 107.983 201.833 111.016 195.833 C 112.685 192.533,114.347 189.353,114.710 188.765 C 115.072 188.177,115.324 187.437,115.268 187.120 C 115.040 185.822,121.085 185.680,123.516 186.926 M161.333 194.920 C 156.667 197.206,155.243 201.248,156.804 207.780 C 157.969 212.657,157.985 212.545,156.083 212.821 C 149.783 213.736,144.672 220.763,147.556 224.544 C 149.771 227.447,153.523 227.630,156.837 224.997 C 159.477 222.899,160.263 221.140,160.524 216.747 C 160.606 215.355,160.710 214.184,160.754 214.145 C 160.797 214.107,161.571 213.869,162.473 213.617 C 164.833 212.958,164.855 212.333,162.517 212.333 C 161.156 212.333,160.593 212.196,160.453 211.830 C 160.056 210.798,160.971 205.233,161.823 203.492 C 163.751 199.550,167.522 200.496,165.986 204.536 C 165.506 205.800,165.798 206.465,166.637 206.016 C 167.420 205.597,168.667 202.414,168.667 200.833 C 168.667 199.577,165.479 195.771,163.625 194.812 C 162.514 194.237,162.750 194.226,161.333 194.920 M268.003 198.035 C 262.717 205.993,258.853 218.778,260.662 222.324 C 261.876 224.703,262.438 224.350,266.500 218.661 C 270.155 213.542,277.717 206.273,278.536 207.092 C 278.646 207.201,278.343 208.146,277.865 209.192 C 273.827 218.012,276.784 224.432,283.342 221.083 C 285.782 219.837,285.955 219.185,283.767 219.486 C 281.658 219.776,281.199 219.295,281.263 216.862 C 281.349 213.603,285.043 205.008,287.179 203.099 C 288.251 202.141,288.215 201.664,286.978 200.479 C 284.037 197.661,278.675 201.245,269.500 212.160 C 265.047 217.457,265.443 215.358,270.506 206.833 C 274.166 200.670,274.212 198.891,270.771 196.623 C 269.481 195.772,269.519 195.752,268.003 198.035 M138.222 196.849 C 131.938 199.154,125.998 209.089,126.804 215.945 C 128.393 229.468,146.571 221.030,147.565 206.309 C 147.848 202.117,146.916 200.000,144.787 200.000 C 144.323 200.000,143.652 199.483,142.950 198.583 C 141.049 196.149,140.590 195.981,138.222 196.849 M143.790 201.750 C 145.556 208.339,140.665 218.705,134.939 220.510 C 132.526 221.271,132.141 221.085,131.658 218.923 C 130.484 213.679,135.636 204.583,141.517 201.517 C 142.884 200.804,143.555 200.873,143.790 201.750 M157.780 216.417 C 157.163 219.703,153.087 224.925,151.394 224.599 C 150.170 224.363,149.827 222.902,150.613 221.277 C 152.466 217.450,158.333 213.470,157.780 216.417 " stroke="none" fill="#116d2a" fill-rule="evenodd"></path><path id="path2" d="M211.471 187.228 C 211.068 187.308,210.531 187.885,210.196 188.599 L 209.618 189.833 210.633 188.667 C 211.468 187.706,211.705 187.587,211.973 187.991 C 212.157 188.270,212.170 188.561,212.003 188.665 C 211.841 188.765,211.544 189.294,211.342 189.840 L 210.976 190.833 211.809 189.833 C 212.851 188.583,212.924 189.339,211.919 190.961 C 210.575 193.127,210.835 197.115,212.551 200.667 C 217.003 209.883,217.126 218.337,212.867 222.308 C 211.790 223.312,211.782 223.140,212.820 221.284 C 215.502 216.484,215.307 208.644,212.341 202.056 C 211.602 200.416,210.904 198.605,210.789 198.030 C 210.555 196.859,210.002 196.301,209.996 197.230 C 209.994 197.562,209.897 198.413,209.780 199.122 C 209.587 200.288,209.628 200.391,210.212 200.205 C 211.770 199.711,214.445 209.870,213.833 213.952 C 213.348 217.187,210.797 222.557,209.899 222.234 C 209.679 222.155,209.228 222.230,208.895 222.402 C 208.501 222.605,208.137 222.585,207.847 222.345 C 207.603 222.142,207.251 222.019,207.065 222.072 C 206.673 222.182,204.668 220.053,204.665 219.523 C 204.663 219.327,204.467 218.792,204.228 218.333 C 202.323 214.683,203.372 204.397,205.833 202.588 C 206.017 202.454,206.067 202.341,205.945 202.338 C 205.824 202.336,206.156 201.441,206.685 200.350 C 208.766 196.053,208.413 195.641,206.101 199.667 C 203.112 204.872,201.691 209.317,201.633 213.646 C 201.603 215.806,201.556 216.000,201.303 215.000 C 201.140 214.358,201.084 212.858,201.179 211.667 L 201.351 209.500 200.805 210.990 C 199.961 213.293,200.762 218.075,202.380 220.385 C 203.289 221.682,203.181 222.195,202.142 221.514 C 201.670 221.205,200.957 220.891,200.559 220.817 C 200.160 220.742,199.571 220.361,199.250 219.970 C 198.929 219.579,198.667 219.357,198.667 219.476 C 198.667 220.039,197.296 218.323,196.722 217.042 C 196.367 216.248,196.010 215.803,195.926 216.051 C 195.843 216.298,195.581 215.692,195.344 214.705 C 194.792 212.413,195.091 208.670,195.871 208.099 C 196.188 207.867,196.348 207.427,196.251 207.056 C 195.934 205.842,199.318 202.153,202.500 200.246 C 204.470 199.065,206.035 197.628,207.116 196.009 C 208.095 194.543,207.702 194.643,206.250 196.229 C 205.471 197.080,203.933 198.359,202.833 199.072 C 199.247 201.397,196.784 203.825,195.694 206.110 C 192.549 212.699,194.847 220.383,200.575 222.437 C 201.500 222.768,202.754 223.406,203.360 223.853 C 204.203 224.475,204.880 224.667,206.231 224.667 C 207.204 224.667,208.000 224.810,208.000 224.985 C 208.000 225.650,210.400 225.782,211.519 225.180 C 212.214 224.805,212.936 224.672,213.549 224.805 C 214.193 224.945,214.877 224.797,215.667 224.349 C 216.308 223.984,217.771 223.224,218.918 222.659 C 228.363 218.004,226.831 204.669,216.239 199.342 C 213.176 197.802,211.621 192.677,213.583 190.589 C 214.599 189.508,213.810 186.880,212.521 187.045 C 212.326 187.070,211.853 187.153,211.471 187.228 M242.250 189.164 C 241.231 190.058,241.110 190.844,241.844 191.814 C 243.868 194.490,241.815 197.988,236.561 200.813 C 225.894 206.547,223.559 217.433,231.833 222.861 C 232.750 223.463,234.043 224.415,234.707 224.977 C 235.576 225.713,236.257 226.000,237.137 226.000 C 237.864 226.000,238.752 226.289,239.326 226.714 C 240.114 227.297,240.524 227.380,241.562 227.168 C 242.261 227.025,243.583 226.936,244.500 226.971 C 245.558 227.011,246.714 226.792,247.667 226.372 C 248.492 226.008,250.033 225.454,251.091 225.140 C 253.432 224.447,255.716 222.542,256.806 220.374 C 259.993 214.037,258.773 209.026,252.533 202.822 C 250.498 200.799,248.500 198.699,248.092 198.155 L 247.351 197.167 247.969 198.613 C 248.368 199.549,249.751 201.197,251.882 203.280 C 253.694 205.051,255.474 207.100,255.838 207.833 C 256.202 208.567,256.625 209.259,256.779 209.371 C 256.932 209.483,257.021 209.858,256.977 210.204 C 256.932 210.550,257.079 211.282,257.303 211.830 C 257.813 213.077,257.254 217.834,256.499 218.668 C 256.224 218.972,256.111 219.334,256.249 219.471 C 256.387 219.609,256.326 219.672,256.114 219.611 C 255.902 219.550,255.377 220.011,254.947 220.635 C 254.518 221.260,253.875 221.935,253.518 222.135 C 253.162 222.336,252.571 222.762,252.205 223.083 C 251.840 223.404,251.288 223.667,250.978 223.667 C 250.668 223.667,249.871 223.894,249.207 224.171 C 247.793 224.762,247.508 224.215,248.677 223.157 C 250.682 221.343,252.104 217.314,251.734 214.497 L 251.471 212.500 251.239 215.098 C 251.111 216.527,250.770 218.102,250.482 218.598 C 250.193 219.094,250.063 219.200,250.192 218.833 C 251.525 215.041,250.265 206.427,247.535 200.658 C 246.304 198.057,246.006 199.231,247.214 201.921 C 247.483 202.520,247.726 203.597,247.754 204.314 C 247.783 205.032,247.918 205.551,248.054 205.466 C 249.300 204.696,249.625 216.124,248.431 218.739 C 246.932 222.025,244.125 225.209,243.742 224.059 C 243.639 223.750,243.470 223.798,243.133 224.232 C 242.695 224.796,242.645 224.798,242.324 224.264 C 242.136 223.951,241.773 223.775,241.516 223.873 C 240.882 224.117,240.109 222.852,239.139 219.985 C 237.463 215.030,238.413 210.023,242.282 203.422 C 243.529 201.295,243.996 200.887,244.005 201.917 C 244.009 202.415,244.057 202.427,244.331 202.000 C 244.507 201.725,244.567 201.230,244.465 200.901 C 244.362 200.571,244.417 200.121,244.586 199.901 C 244.756 199.680,244.797 199.125,244.679 198.667 C 244.485 197.911,244.379 198.019,243.552 199.819 C 243.051 200.912,242.292 202.262,241.867 202.819 C 237.793 208.162,236.124 218.400,238.560 223.114 C 239.313 224.573,238.875 224.503,237.832 222.998 C 234.575 218.299,235.636 211.524,241.020 202.636 C 243.841 197.981,244.424 195.629,243.525 192.537 C 242.874 190.297,242.878 189.986,243.548 190.833 C 244.047 191.465,244.063 191.434,243.855 190.250 C 243.607 188.835,244.021 188.608,244.807 189.730 C 245.088 190.131,245.426 190.352,245.557 190.221 C 245.862 189.915,244.707 188.795,243.833 188.548 C 243.405 188.428,242.840 188.647,242.250 189.164 M208.327 197.917 C 207.702 199.563,207.660 200.333,208.193 200.333 C 208.794 200.333,208.973 199.959,209.215 198.194 C 209.469 196.337,208.983 196.185,208.327 197.917 M219.441 205.274 C 221.184 208.602,221.773 210.981,221.599 213.989 C 221.441 216.708,220.497 219.240,219.703 219.070 C 219.412 219.007,219.324 219.161,219.455 219.504 C 219.573 219.811,219.520 219.949,219.330 219.831 C 219.148 219.719,219.000 219.781,219.000 219.969 C 219.000 220.156,218.728 220.456,218.395 220.634 C 217.877 220.911,217.913 220.708,218.645 219.230 C 220.852 214.770,219.546 208.258,215.111 201.605 C 213.766 199.588,212.670 197.765,212.673 197.552 C 212.687 196.704,218.317 203.127,219.441 205.274 M245.250 199.083 C 244.897 201.328,245.706 203.456,246.185 201.545 C 246.358 200.857,245.830 198.000,245.531 198.000 C 245.470 198.000,245.344 198.487,245.250 199.083 M242.000 198.858 C 242.000 198.963,241.198 199.901,240.218 200.941 C 233.050 208.553,230.820 214.869,233.193 220.833 C 233.429 221.426,233.396 221.450,232.896 221.043 C 232.586 220.791,232.333 220.353,232.333 220.070 C 232.333 219.787,232.234 219.655,232.113 219.776 C 231.727 220.162,231.001 218.762,230.662 216.977 C 229.967 213.311,231.841 207.821,235.016 204.223 C 236.981 201.997,242.000 198.141,242.000 198.858 M205.432 223.701 C 205.168 223.965,204.890 223.968,204.449 223.711 C 203.909 223.398,203.955 223.352,204.817 223.343 C 205.534 223.336,205.700 223.433,205.432 223.701 M242.000 225.970 C 242.000 226.347,240.232 226.195,240.102 225.806 C 240.027 225.581,240.360 225.502,240.991 225.594 C 241.546 225.676,242.000 225.845,242.000 225.970 M246.833 226.000 C 246.720 226.183,246.345 226.333,246.000 226.333 C 245.655 226.333,245.280 226.183,245.167 226.000 C 245.046 225.805,245.392 225.667,246.000 225.667 C 246.608 225.667,246.954 225.805,246.833 226.000 " stroke="none" fill="#9278ce" fill-rule="evenodd"></path><path id="path3" d="M186.529 177.635 C 186.179 178.021,185.980 178.424,186.086 178.531 C 186.192 178.637,186.447 178.411,186.651 178.029 C 187.090 177.208,188.223 177.145,190.154 177.833 C 191.653 178.367,192.262 178.210,190.819 177.661 C 188.798 176.893,187.209 176.883,186.529 177.635 M185.096 179.417 C 183.650 181.306,182.888 182.433,183.174 182.261 C 183.568 182.023,185.781 179.000,185.562 179.000 C 185.481 179.000,185.271 179.188,185.096 179.417 M192.151 181.417 L 190.833 182.833 192.250 181.516 C 193.029 180.791,193.667 180.153,193.667 180.099 C 193.667 179.847,193.376 180.099,192.151 181.417 M111.000 182.175 C 110.725 182.229,109.403 182.452,108.062 182.671 C 106.721 182.889,105.687 183.132,105.765 183.210 C 105.843 183.288,107.315 183.123,109.037 182.844 C 118.492 181.310,125.112 183.126,127.663 187.953 C 128.015 188.621,128.310 189.030,128.319 188.863 C 128.522 184.673,118.332 180.739,111.000 182.175 M182.418 183.083 C 181.720 183.964,180.294 186.397,180.578 186.221 C 180.895 186.025,183.052 182.667,182.860 182.667 C 182.799 182.667,182.600 182.854,182.418 183.083 M188.919 185.083 C 187.927 186.229,186.698 187.767,186.186 188.500 L 185.257 189.833 186.379 188.504 C 190.398 183.741,191.002 183.000,190.870 183.000 C 190.789 183.000,189.911 183.938,188.919 185.083 M99.432 185.109 C 97.663 185.873,96.505 186.639,98.007 186.052 C 99.796 185.352,101.816 184.380,101.500 184.370 C 101.317 184.365,100.386 184.697,99.432 185.109 M116.167 186.217 C 115.800 186.316,115.363 186.528,115.195 186.687 C 115.027 186.846,115.477 186.814,116.195 186.615 C 117.468 186.262,121.500 186.393,122.833 186.831 C 123.467 187.040,123.469 187.031,122.876 186.652 C 122.214 186.230,117.291 185.910,116.167 186.217 M114.208 189.676 C 113.518 190.954,113.025 192.000,113.113 192.000 C 113.335 192.000,115.725 187.614,115.581 187.470 C 115.516 187.405,114.899 188.398,114.208 189.676 M125.159 188.256 C 126.465 189.712,126.730 192.822,125.714 194.769 C 125.322 195.521,125.238 195.884,125.509 195.659 C 127.135 194.309,127.016 189.827,125.312 188.227 L 124.182 187.167 125.159 188.256 M178.536 189.417 C 177.088 192.010,175.214 195.998,175.378 196.137 C 175.445 196.194,176.491 194.237,177.703 191.787 C 180.079 186.982,180.391 186.095,178.536 189.417 M105.167 189.014 C 104.433 189.379,104.133 189.583,104.500 189.468 C 106.163 188.944,106.419 188.932,106.696 189.369 C 106.916 189.717,106.991 189.646,106.995 189.083 C 107.001 188.175,106.864 188.170,105.167 189.014 M97.231 190.692 C 97.562 191.256,98.046 191.894,98.307 192.109 C 98.567 192.324,98.360 191.862,97.846 191.083 C 96.767 189.447,96.341 189.177,97.231 190.692 M184.411 190.917 C 183.548 192.163,183.267 192.667,183.436 192.667 C 183.514 192.667,183.975 192.067,184.460 191.333 C 185.447 189.843,185.404 189.483,184.411 190.917 M100.577 191.179 C 98.874 192.336,99.003 192.547,100.750 191.459 C 102.450 190.401,102.532 190.333,102.133 190.333 C 101.962 190.333,101.262 190.714,100.577 191.179 M105.407 193.574 C 105.010 194.796,104.740 195.852,104.808 195.919 C 104.876 195.987,105.262 195.048,105.667 193.833 C 106.071 192.618,106.341 191.563,106.266 191.488 C 106.191 191.413,105.805 192.352,105.407 193.574 M182.202 194.417 C 181.001 196.477,178.213 202.327,178.368 202.462 C 178.441 202.526,179.558 200.423,180.850 197.789 C 183.278 192.843,183.627 191.972,182.202 194.417 M111.150 195.366 C 110.676 196.301,110.344 197.122,110.413 197.190 C 110.481 197.259,110.939 196.494,111.432 195.491 C 111.924 194.487,112.255 193.667,112.169 193.667 C 112.082 193.667,111.624 194.432,111.150 195.366 M163.833 194.947 C 167.570 197.233,169.188 200.400,168.202 203.500 C 168.085 203.867,168.210 203.717,168.480 203.167 C 169.591 200.899,169.243 199.859,166.406 196.973 C 164.980 195.521,163.593 194.334,163.323 194.335 C 163.054 194.335,163.283 194.611,163.833 194.947 M159.760 195.637 C 159.024 196.171,158.074 197.108,157.650 197.720 C 157.021 198.627,157.152 198.553,158.356 197.318 C 159.168 196.484,160.208 195.554,160.667 195.252 C 161.125 194.949,161.410 194.694,161.300 194.684 C 161.190 194.675,160.497 195.103,159.760 195.637 M127.024 197.191 C 126.307 198.542,124.938 200.056,122.667 202.007 C 122.208 202.400,122.558 202.226,123.444 201.618 C 125.287 200.355,128.421 196.310,127.934 195.823 C 127.867 195.756,127.458 196.372,127.024 197.191 M268.561 196.750 C 267.354 198.372,266.566 199.667,266.785 199.667 C 266.892 199.667,267.507 198.842,268.152 197.833 C 269.495 195.735,269.394 195.777,270.877 196.694 C 271.495 197.075,272.000 197.313,272.000 197.221 C 272.000 197.032,269.858 195.667,269.561 195.667 C 269.454 195.667,269.004 196.154,268.561 196.750 M138.500 196.488 C 137.185 197.090,137.483 197.100,139.333 196.517 C 140.158 196.257,140.533 196.041,140.167 196.037 C 139.800 196.033,139.050 196.236,138.500 196.488 M122.880 197.858 C 121.806 198.669,121.042 199.333,121.183 199.333 C 121.487 199.333,125.000 196.716,125.000 196.489 C 125.000 196.257,124.990 196.264,122.880 197.858 M188.272 197.678 C 187.596 198.035,186.930 198.516,186.791 198.747 C 186.591 199.079,186.643 199.082,187.039 198.762 C 187.313 198.540,188.205 198.056,189.019 197.686 C 189.834 197.317,190.275 197.018,190.000 197.022 C 189.725 197.026,188.947 197.321,188.272 197.678 M134.726 198.651 C 132.180 200.664,127.984 206.175,128.006 207.477 C 128.009 207.673,128.459 207.023,129.005 206.033 C 130.808 202.761,133.038 200.170,135.836 198.094 C 136.385 197.687,136.734 197.350,136.613 197.344 C 136.492 197.338,135.643 197.926,134.726 198.651 M142.812 198.443 C 143.326 199.116,143.813 199.667,143.896 199.667 C 144.127 199.667,142.684 197.717,142.257 197.453 C 142.049 197.324,142.299 197.770,142.812 198.443 M193.995 197.909 C 194.451 198.234,195.266 198.891,195.806 199.369 L 196.789 200.239 195.492 201.869 C 193.758 204.051,193.558 204.333,193.743 204.333 C 193.830 204.333,194.617 203.423,195.491 202.310 L 197.081 200.287 196.124 199.280 C 195.597 198.727,194.717 198.059,194.167 197.796 L 193.167 197.318 193.995 197.909 M272.614 198.520 C 273.784 200.289,273.792 201.005,272.663 203.121 C 272.092 204.190,271.747 204.989,271.896 204.895 C 273.778 203.715,274.292 200.047,272.800 198.432 L 271.939 197.500 272.614 198.520 M102.711 200.378 C 102.316 201.328,102.048 202.160,102.116 202.227 C 102.183 202.294,102.561 201.572,102.956 200.622 C 103.350 199.672,103.618 198.840,103.551 198.773 C 103.484 198.706,103.106 199.428,102.711 200.378 M109.222 199.250 C 109.139 199.387,108.838 200.063,108.553 200.750 L 108.034 202.000 110.267 201.937 L 112.500 201.874 110.583 201.754 C 109.529 201.688,108.667 201.584,108.667 201.524 C 108.667 201.464,108.894 200.871,109.171 200.207 C 109.613 199.149,109.645 198.547,109.222 199.250 M173.373 201.039 C 172.987 202.181,172.729 203.173,172.799 203.243 C 172.869 203.313,173.242 202.436,173.627 201.294 C 174.013 200.152,174.271 199.160,174.201 199.090 C 174.131 199.020,173.758 199.897,173.373 201.039 M285.667 199.568 C 285.942 199.668,286.617 200.144,287.167 200.625 L 288.167 201.500 287.188 200.417 C 286.649 199.821,285.974 199.345,285.688 199.360 C 285.239 199.382,285.236 199.411,285.667 199.568 M146.224 200.466 C 147.374 201.316,147.778 203.096,147.587 206.476 C 147.456 208.801,147.490 209.192,147.731 208.167 C 148.522 204.806,147.599 200.539,145.980 200.070 C 145.716 199.993,145.826 200.172,146.224 200.466 M182.491 202.343 C 181.222 203.621,180.286 204.667,180.409 204.667 C 180.678 204.667,185.026 200.249,184.891 200.113 C 184.839 200.061,183.759 201.065,182.491 202.343 M280.148 201.081 C 277.548 202.804,268.591 212.025,269.552 211.990 C 269.707 211.984,270.310 211.347,270.893 210.573 C 272.610 208.292,278.358 202.659,280.250 201.402 C 281.811 200.364,282.238 200.000,281.890 200.000 C 281.830 200.000,281.046 200.487,280.148 201.081 M116.333 200.859 L 114.833 201.320 116.167 201.130 C 116.900 201.025,117.725 200.807,118.000 200.646 C 118.693 200.241,118.103 200.316,116.333 200.859 M141.500 201.523 C 140.950 201.808,140.350 202.199,140.167 202.391 C 139.983 202.583,140.485 202.413,141.282 202.013 C 142.079 201.614,142.942 201.368,143.199 201.466 C 143.456 201.565,143.667 201.500,143.667 201.323 C 143.667 200.841,142.631 200.936,141.500 201.523 M163.484 201.377 C 163.108 201.559,162.600 202.030,162.355 202.422 C 161.984 203.017,162.087 202.986,162.981 202.234 C 164.311 201.115,165.575 201.052,165.990 202.083 C 166.175 202.543,166.299 202.634,166.312 202.317 C 166.360 201.142,164.940 200.670,163.484 201.377 M155.751 202.833 C 155.754 203.567,155.823 203.827,155.902 203.413 C 155.982 202.998,155.979 202.398,155.896 202.079 C 155.812 201.761,155.747 202.100,155.751 202.833 M265.236 202.228 C 264.872 202.831,264.044 205.000,264.177 205.000 C 264.421 205.000,265.722 202.278,265.557 202.112 C 265.471 202.026,265.326 202.078,265.236 202.228 M138.327 203.763 C 137.681 204.351,136.785 205.283,136.334 205.833 C 135.884 206.383,136.449 205.938,137.591 204.844 C 139.469 203.044,139.840 202.641,139.583 202.679 C 139.537 202.686,138.972 203.174,138.327 203.763 M185.113 203.961 C 184.226 204.673,182.825 205.982,182.000 206.870 C 180.714 208.253,180.810 208.198,182.667 206.481 C 183.858 205.380,185.358 204.072,186.000 203.576 C 186.642 203.080,187.068 202.672,186.947 202.670 C 186.826 202.668,186.001 203.249,185.113 203.961 M286.566 203.750 C 285.662 204.973,285.052 206.026,285.553 205.500 C 286.171 204.850,287.698 202.667,287.534 202.667 C 287.442 202.667,287.007 203.154,286.566 203.750 M120.577 203.201 C 120.466 203.311,119.429 203.754,118.271 204.184 C 117.114 204.613,116.349 204.973,116.571 204.983 C 117.189 205.009,120.628 203.665,120.847 203.312 C 121.062 202.963,120.887 202.891,120.577 203.201 M165.693 204.376 C 165.166 206.136,165.749 207.032,166.848 206.152 C 167.480 205.646,167.478 205.641,166.770 205.983 C 165.779 206.462,165.521 205.950,166.010 204.471 C 166.224 203.821,166.334 203.223,166.253 203.142 C 166.173 203.062,165.921 203.617,165.693 204.376 M101.020 204.249 C 100.115 206.218,99.302 208.484,99.614 208.167 C 100.004 207.770,101.715 203.604,101.554 203.442 C 101.492 203.381,101.252 203.744,101.020 204.249 M161.195 205.048 C 160.464 207.605,160.343 212.052,161.000 212.241 C 161.401 212.356,161.411 212.322,161.051 212.069 C 160.516 211.694,160.806 207.443,161.532 205.016 C 161.776 204.199,161.915 203.470,161.841 203.396 C 161.767 203.322,161.476 204.065,161.195 205.048 M186.714 205.214 C 186.305 206.057,186.039 206.817,186.124 206.901 C 186.208 206.986,186.592 206.345,186.976 205.476 C 187.883 203.426,187.681 203.224,186.714 205.214 M176.649 206.982 C 175.548 210.607,175.982 210.520,179.052 206.500 C 179.726 205.617,179.498 205.786,178.379 207.000 C 176.580 208.950,176.299 208.792,177.170 206.323 C 177.447 205.538,177.606 204.829,177.524 204.746 C 177.441 204.664,177.048 205.670,176.649 206.982 M105.708 206.719 C 104.746 209.033,105.000 209.111,106.068 206.829 C 106.539 205.823,106.811 205.000,106.673 205.000 C 106.535 205.000,106.101 205.774,105.708 206.719 M113.691 205.917 C 113.717 206.529,114.932 209.358,114.975 208.906 C 114.989 208.763,114.770 208.096,114.490 207.424 C 114.209 206.752,114.054 206.006,114.146 205.768 C 114.237 205.529,114.167 205.333,113.990 205.333 C 113.812 205.333,113.678 205.596,113.691 205.917 M270.924 206.083 C 270.194 207.208,269.540 208.547,269.906 208.167 C 270.373 207.681,271.748 205.333,271.566 205.333 C 271.480 205.333,271.191 205.671,270.924 206.083 M143.744 206.667 C 143.744 207.308,143.813 207.571,143.896 207.250 C 143.980 206.929,143.980 206.404,143.896 206.083 C 143.813 205.762,143.744 206.025,143.744 206.667 M192.418 206.083 C 192.237 206.313,191.910 206.875,191.693 207.333 C 191.232 208.303,192.066 207.408,192.703 206.250 C 193.074 205.575,192.901 205.474,192.418 206.083 M170.697 209.864 C 170.299 211.451,170.034 212.812,170.109 212.887 C 170.184 212.962,170.571 211.724,170.970 210.136 C 171.368 208.549,171.632 207.188,171.557 207.113 C 171.482 207.038,171.095 208.276,170.697 209.864 M262.200 209.367 C 261.712 210.682,261.374 211.818,261.447 211.891 C 261.520 211.965,261.979 210.949,262.467 209.633 C 262.954 208.318,263.293 207.182,263.220 207.109 C 263.146 207.035,262.688 208.051,262.200 209.367 M277.502 207.330 C 277.384 207.521,277.524 207.572,277.839 207.452 C 278.336 207.261,278.337 207.347,277.852 208.507 C 277.562 209.201,277.383 209.827,277.454 209.898 C 277.571 210.015,278.667 207.541,278.667 207.160 C 278.667 206.859,277.706 206.999,277.502 207.330 M110.103 207.833 C 110.205 208.200,110.544 209.442,110.857 210.592 C 111.170 211.743,111.486 212.625,111.559 212.552 C 111.728 212.383,110.424 207.641,110.133 207.369 C 110.014 207.258,110.001 207.467,110.103 207.833 M283.884 208.250 C 283.628 208.754,283.318 209.542,283.197 210.000 C 282.980 210.818,283.931 209.197,284.429 207.899 C 284.774 207.000,284.396 207.243,283.884 208.250 M272.497 211.747 C 270.295 213.994,268.145 216.358,267.718 217.000 C 267.224 217.743,267.458 217.562,268.364 216.500 C 269.146 215.583,271.391 213.221,273.352 211.250 C 275.313 209.279,276.824 207.665,276.709 207.663 C 276.594 207.661,274.699 209.499,272.497 211.747 M179.773 209.417 C 178.947 210.334,176.548 213.646,176.213 214.333 C 175.946 214.880,176.657 214.002,179.093 210.776 C 180.710 208.633,180.999 208.057,179.773 209.417 M268.145 210.851 C 267.473 212.052,266.978 213.089,267.045 213.155 C 267.112 213.222,267.732 212.239,268.423 210.971 C 269.114 209.704,269.609 208.667,269.523 208.667 C 269.436 208.667,268.816 209.649,268.145 210.851 M190.414 209.417 C 189.929 210.023,188.602 212.713,188.727 212.837 C 188.785 212.896,189.317 212.056,189.908 210.972 C 190.943 209.072,191.116 208.541,190.414 209.417 M157.226 210.833 C 157.332 211.750,157.475 212.563,157.543 212.639 C 157.777 212.901,157.600 210.833,157.317 210.000 C 157.126 209.438,157.096 209.709,157.226 210.833 M103.526 211.860 C 103.037 213.082,102.693 214.138,102.763 214.207 C 102.832 214.276,103.286 213.330,103.772 212.105 C 104.258 210.880,104.602 209.824,104.536 209.758 C 104.470 209.692,104.015 210.638,103.526 211.860 M126.699 211.327 C 126.237 213.480,126.235 215.799,126.693 217.448 C 127.204 219.290,127.318 218.821,126.905 216.573 C 126.652 215.192,126.657 213.966,126.923 212.248 C 127.359 209.432,127.224 208.879,126.699 211.327 M115.333 210.121 C 115.333 210.482,117.323 214.333,117.510 214.333 C 117.601 214.333,117.206 213.396,116.632 212.250 C 115.543 210.078,115.333 209.734,115.333 210.121 M143.026 210.333 C 143.011 210.608,142.556 211.771,142.014 212.917 C 141.472 214.063,141.105 215.000,141.198 215.000 C 141.538 215.000,143.387 210.664,143.222 210.255 C 143.104 209.961,143.045 209.985,143.026 210.333 M97.556 212.389 C 97.067 213.520,96.721 214.499,96.787 214.565 C 96.852 214.630,97.306 213.759,97.796 212.630 C 98.286 211.500,98.632 210.521,98.565 210.454 C 98.498 210.387,98.044 211.258,97.556 212.389 M183.688 212.188 C 183.296 213.233,183.035 214.146,183.106 214.217 C 183.177 214.288,183.561 213.497,183.958 212.458 C 184.356 211.420,184.617 210.506,184.540 210.429 C 184.462 210.351,184.079 211.142,183.688 212.188 M132.204 213.208 C 131.909 214.076,131.675 215.021,131.685 215.309 C 131.694 215.598,131.988 214.939,132.337 213.847 C 133.091 211.484,132.978 210.937,132.204 213.208 M267.750 213.687 C 266.333 215.024,265.938 215.602,266.782 215.100 C 267.232 214.833,269.506 212.326,269.285 212.342 C 269.220 212.346,268.529 212.952,267.750 213.687 M145.167 214.333 C 144.882 214.883,144.725 215.333,144.816 215.333 C 144.908 215.333,145.216 214.883,145.500 214.333 C 145.784 213.783,145.942 213.333,145.850 213.333 C 145.759 213.333,145.451 213.783,145.167 214.333 M151.577 214.179 C 150.893 214.644,150.333 215.104,150.333 215.201 C 150.333 215.299,150.769 215.069,151.301 214.689 C 151.834 214.310,152.425 214.000,152.615 214.000 C 152.805 214.000,153.053 213.850,153.167 213.667 C 153.523 213.091,152.868 213.302,151.577 214.179 M275.880 214.070 C 275.768 214.490,275.696 215.658,275.720 216.667 C 275.762 218.404,275.777 218.370,276.002 216.000 C 276.253 213.364,276.218 212.809,275.880 214.070 M281.496 214.684 C 281.089 216.537,281.203 218.679,281.736 219.212 C 282.274 219.750,285.503 219.544,285.163 218.994 C 285.073 218.848,284.488 218.886,283.862 219.078 C 281.828 219.703,281.560 219.357,281.736 216.327 C 281.902 213.462,281.847 213.087,281.496 214.684 M160.570 214.666 C 160.474 215.033,160.515 215.406,160.660 215.496 C 160.805 215.585,160.995 215.286,161.082 214.829 C 161.270 213.845,160.822 213.703,160.570 214.666 M187.238 216.206 C 186.580 218.462,186.792 219.013,188.289 218.947 L 189.500 218.893 188.417 218.759 C 187.218 218.610,186.976 217.649,187.676 215.809 C 187.864 215.313,187.949 214.838,187.863 214.752 C 187.777 214.666,187.496 215.321,187.238 216.206 M260.028 216.683 C 259.829 217.609,259.687 218.996,259.712 219.766 C 259.752 220.983,259.789 220.904,259.994 219.167 C 260.124 218.067,260.340 216.679,260.475 216.083 C 260.609 215.487,260.645 215.000,260.554 215.000 C 260.463 215.000,260.226 215.757,260.028 216.683 M148.690 216.637 C 147.635 217.970,146.654 219.973,146.682 220.739 C 146.691 220.974,146.975 220.459,147.313 219.594 C 147.651 218.728,148.407 217.416,148.992 216.677 C 149.577 215.938,149.981 215.333,149.889 215.333 C 149.798 215.333,149.258 215.920,148.690 216.637 M156.966 215.638 C 157.296 215.848,157.373 216.305,157.230 217.217 C 156.993 218.727,157.476 218.023,157.779 216.417 C 157.960 215.457,157.899 215.334,157.242 215.338 C 156.682 215.342,156.614 215.416,156.966 215.638 M95.089 218.006 C 94.520 219.286,94.127 220.333,94.215 220.333 C 94.438 220.333,96.402 215.957,96.248 215.803 C 96.179 215.735,95.658 216.726,95.089 218.006 M142.667 217.610 C 141.658 218.657,140.383 219.852,139.833 220.266 C 139.283 220.680,139.133 220.879,139.500 220.709 C 140.452 220.265,143.195 217.797,144.016 216.644 C 144.997 215.266,144.758 215.437,142.667 217.610 M118.898 217.026 C 119.229 217.590,119.713 218.227,119.973 218.442 C 120.234 218.657,120.026 218.196,119.512 217.417 C 118.433 215.781,118.008 215.510,118.898 217.026 M131.486 217.500 C 131.625 219.264,132.227 221.218,132.536 220.908 C 132.638 220.807,132.559 220.421,132.361 220.052 C 132.163 219.682,131.856 218.581,131.678 217.606 L 131.355 215.833 131.486 217.500 M154.255 216.917 C 153.597 217.421,152.641 218.358,152.132 219.000 C 151.407 219.913,151.563 219.823,152.853 218.586 C 153.759 217.717,154.800 216.784,155.167 216.513 C 155.533 216.243,155.748 216.016,155.643 216.011 C 155.538 216.005,154.913 216.412,154.255 216.917 M160.500 217.667 C 160.371 218.607,160.335 219.446,160.421 219.532 C 160.507 219.619,160.680 218.916,160.806 217.972 C 160.931 217.028,160.966 216.188,160.884 216.106 C 160.802 216.024,160.629 216.727,160.500 217.667 M112.878 217.000 C 112.990 217.458,113.287 218.283,113.538 218.833 C 113.903 219.636,113.953 219.669,113.789 219.000 C 113.676 218.542,113.379 217.717,113.129 217.167 C 112.763 216.364,112.714 216.331,112.878 217.000 M139.146 217.378 C 138.607 217.953,137.500 218.853,136.685 219.378 C 135.870 219.903,135.360 220.333,135.551 220.333 C 136.038 220.333,138.306 218.626,139.479 217.376 C 140.017 216.803,140.383 216.333,140.291 216.333 C 140.200 216.333,139.684 216.803,139.146 217.378 M101.064 218.718 C 100.440 220.751,99.837 223.523,100.168 222.833 C 100.517 222.108,101.957 216.846,101.839 216.728 C 101.770 216.659,101.421 217.554,101.064 218.718 M174.000 218.000 C 173.626 218.733,173.395 219.333,173.486 219.333 C 173.578 219.333,173.959 218.733,174.333 218.000 C 174.707 217.267,174.939 216.667,174.847 216.667 C 174.755 216.667,174.374 217.267,174.000 218.000 M182.091 218.333 C 182.091 219.158,182.156 219.496,182.235 219.083 C 182.315 218.671,182.315 217.996,182.235 217.583 C 182.156 217.171,182.091 217.508,182.091 218.333 M265.576 219.897 C 264.984 220.758,263.995 222.033,263.378 222.731 C 262.761 223.429,262.392 224.000,262.559 224.000 C 262.830 224.000,263.546 223.118,266.279 219.417 C 266.719 218.821,266.983 218.333,266.866 218.333 C 266.749 218.333,266.169 219.037,265.576 219.897 M169.084 219.833 C 169.088 220.567,169.156 220.827,169.236 220.413 C 169.315 219.998,169.312 219.398,169.229 219.079 C 169.146 218.761,169.080 219.100,169.084 219.833 M189.667 219.126 C 189.667 219.379,189.329 219.827,188.917 220.123 C 188.177 220.654,188.180 220.656,189.083 220.277 C 189.840 219.960,190.443 218.667,189.833 218.667 C 189.742 218.667,189.667 218.873,189.667 219.126 M276.026 219.020 C 276.012 219.305,276.233 219.830,276.518 220.186 C 277.028 220.823,277.032 220.823,276.730 220.167 C 276.561 219.800,276.340 219.275,276.238 219.000 C 276.078 218.568,276.049 218.571,276.026 219.020 M120.333 219.048 C 120.333 219.158,121.083 220.187,122.000 221.333 C 122.917 222.480,123.667 223.249,123.667 223.042 C 123.667 222.836,123.404 222.402,123.083 222.078 C 122.763 221.754,122.013 220.895,121.417 220.169 C 120.821 219.442,120.333 218.938,120.333 219.048 M150.444 221.582 C 149.581 223.647,150.973 225.384,152.506 224.158 C 153.151 223.642,153.150 223.638,152.439 223.982 C 150.818 224.764,149.985 223.479,150.819 221.484 C 151.083 220.851,151.224 220.333,151.133 220.333 C 151.041 220.333,150.731 220.895,150.444 221.582 M154.664 222.083 C 153.686 223.327,153.663 223.398,154.472 222.667 C 155.313 221.907,156.199 220.667,155.901 220.667 C 155.833 220.667,155.277 221.304,154.664 222.083 M282.833 221.352 C 281.212 222.119,280.039 222.159,278.406 221.502 C 277.320 221.065,277.246 221.064,277.808 221.497 C 279.240 222.601,282.168 222.450,283.840 221.187 C 284.695 220.540,284.470 220.577,282.833 221.352 M94.260 221.844 C 95.381 224.000,99.667 226.750,99.667 225.314 C 99.667 225.120,99.523 225.049,99.348 225.158 C 98.721 225.545,96.778 224.396,95.356 222.796 C 94.559 221.900,94.066 221.472,94.260 221.844 M135.413 222.291 C 133.035 223.144,132.966 223.149,131.413 222.597 C 130.216 222.172,129.989 222.152,130.475 222.514 C 131.939 223.605,135.648 223.259,137.500 221.859 C 138.317 221.241,138.371 221.229,135.413 222.291 M146.411 222.333 C 146.411 222.975,146.479 223.237,146.563 222.917 C 146.647 222.596,146.647 222.071,146.563 221.750 C 146.479 221.429,146.411 221.692,146.411 222.333 M260.001 221.528 C 260.003 221.902,261.261 224.000,261.484 224.000 C 261.572 224.000,261.322 223.438,260.929 222.750 C 260.047 221.210,260.000 221.148,260.001 221.528 M171.572 222.725 C 171.057 223.621,170.922 223.687,170.411 223.286 C 169.893 222.880,169.879 222.892,170.274 223.397 C 170.831 224.109,171.465 223.875,171.967 222.772 C 172.523 221.551,172.263 221.520,171.572 222.725 M115.479 223.294 C 116.028 224.355,117.831 226.001,118.442 225.999 C 118.657 225.998,118.340 225.697,117.737 225.329 C 117.134 224.961,116.332 224.137,115.954 223.497 C 115.126 222.094,114.783 221.947,115.479 223.294 M158.579 223.322 C 158.326 223.683,157.547 224.433,156.847 224.989 C 156.147 225.545,155.711 226.000,155.878 226.000 C 156.337 226.000,158.624 224.036,159.014 223.307 C 159.461 222.471,159.168 222.481,158.579 223.322 M146.957 224.254 C 147.130 224.577,147.613 225.139,148.031 225.504 C 148.652 226.047,148.621 225.940,147.855 224.917 C 146.866 223.594,146.433 223.274,146.957 224.254 M122.145 224.368 C 122.020 224.570,121.299 225.017,120.542 225.361 C 119.786 225.704,119.362 225.989,119.600 225.993 C 120.211 226.003,121.800 225.142,122.315 224.522 C 122.553 224.235,122.664 224.000,122.560 224.000 C 122.457 224.000,122.270 224.166,122.145 224.368 " stroke="none" fill="#9cc2a5" fill-rule="evenodd"></path><path id="path4" d="M212.686 187.083 C 212.950 187.313,213.453 187.800,213.802 188.167 C 214.269 188.656,214.240 188.546,213.696 187.750 C 213.288 187.154,212.786 186.667,212.580 186.667 C 212.360 186.667,212.404 186.838,212.686 187.083 M210.426 187.417 C 209.926 188.063,209.627 189.064,210.004 188.831 C 210.451 188.555,210.421 188.721,209.807 189.952 C 209.518 190.532,209.145 190.923,208.978 190.820 C 208.811 190.716,208.766 190.871,208.878 191.163 C 208.999 191.479,208.925 191.655,208.695 191.597 C 208.483 191.544,208.026 192.322,207.680 193.326 C 207.066 195.107,205.626 196.770,202.825 198.931 C 202.279 199.352,202.512 199.256,203.341 198.717 C 204.170 198.179,205.508 197.023,206.314 196.149 C 207.120 195.275,207.661 194.846,207.516 195.196 C 207.372 195.547,207.247 196.021,207.238 196.250 C 207.229 196.479,207.160 196.605,207.084 196.529 C 207.008 196.453,206.416 196.977,205.769 197.694 C 205.121 198.411,203.671 199.548,202.546 200.221 C 199.324 202.148,195.931 205.832,196.251 207.056 C 196.348 207.427,196.188 207.867,195.871 208.099 C 195.091 208.670,194.792 212.413,195.344 214.705 C 195.581 215.692,195.843 216.298,195.926 216.051 C 196.010 215.803,196.367 216.248,196.722 217.042 C 197.296 218.323,198.667 220.039,198.667 219.476 C 198.667 219.357,198.929 219.579,199.250 219.970 C 199.571 220.361,200.160 220.742,200.559 220.817 C 200.957 220.891,201.670 221.205,202.142 221.514 C 203.181 222.195,203.289 221.682,202.380 220.385 C 200.762 218.075,199.961 213.293,200.805 210.990 L 201.351 209.500 201.179 211.667 C 201.084 212.858,201.140 214.358,201.303 215.000 C 201.556 216.000,201.603 215.806,201.633 213.646 C 201.661 211.536,202.159 208.886,203.171 205.465 C 203.273 205.118,203.100 205.321,202.785 205.917 C 201.953 207.492,201.386 207.448,201.992 205.855 C 202.171 205.385,202.187 205.000,202.028 205.000 C 201.591 205.000,200.272 207.999,200.078 209.435 C 199.944 210.428,199.791 210.658,199.370 210.498 C 198.940 210.334,198.916 210.377,199.250 210.714 C 199.479 210.944,199.667 211.841,199.667 212.706 C 199.667 213.666,199.505 214.332,199.250 214.418 C 198.922 214.528,198.931 214.741,199.289 215.414 C 199.540 215.885,199.652 216.421,199.537 216.606 C 199.423 216.792,199.457 216.993,199.613 217.055 C 199.769 217.116,200.004 217.617,200.135 218.167 C 200.363 219.125,200.310 219.098,198.871 217.545 C 197.170 215.709,196.902 214.864,196.895 211.333 C 196.891 208.855,198.126 205.000,198.925 205.000 C 199.087 205.000,199.705 204.325,200.298 203.500 C 200.890 202.675,201.553 202.002,201.771 202.005 C 202.047 202.009,202.057 202.084,201.803 202.255 C 200.769 202.952,198.074 207.518,198.465 207.910 C 198.543 207.987,198.711 207.719,198.839 207.314 C 199.024 206.733,199.137 206.675,199.380 207.039 C 199.585 207.347,199.616 207.196,199.475 206.586 C 199.320 205.921,199.406 205.618,199.791 205.470 C 200.082 205.358,200.646 204.720,201.044 204.050 C 201.885 202.638,204.535 199.780,205.488 199.259 C 206.124 198.910,206.126 198.924,205.562 199.786 C 204.945 200.727,204.263 202.333,204.480 202.333 C 204.710 202.333,207.111 197.873,207.111 197.444 C 207.111 197.216,207.223 197.099,207.360 197.183 C 207.498 197.268,207.698 197.149,207.807 196.919 C 207.915 196.688,207.923 196.920,207.825 197.433 C 207.726 197.946,207.213 199.258,206.685 200.350 C 206.156 201.441,205.824 202.336,205.945 202.338 C 206.067 202.341,206.017 202.454,205.833 202.588 C 203.372 204.397,202.323 214.683,204.228 218.333 C 204.467 218.792,204.663 219.327,204.665 219.523 C 204.668 220.053,206.673 222.182,207.065 222.072 C 207.251 222.019,207.603 222.142,207.847 222.345 C 208.137 222.585,208.501 222.605,208.895 222.402 C 209.228 222.230,209.679 222.155,209.899 222.234 C 210.797 222.557,213.348 217.187,213.833 213.952 C 214.431 209.962,211.771 199.710,210.262 200.189 C 209.591 200.402,209.541 199.998,209.968 197.833 C 210.249 196.409,210.283 196.450,211.168 199.253 C 211.505 200.318,211.862 200.919,212.079 200.784 C 212.277 200.662,212.340 200.719,212.221 200.913 C 212.102 201.105,212.385 202.120,212.849 203.169 C 215.297 208.705,215.284 216.875,212.820 221.284 C 211.782 223.140,211.790 223.312,212.867 222.308 C 214.953 220.363,215.812 217.853,215.823 213.667 C 215.833 209.846,215.509 207.186,215.066 207.458 C 214.938 207.537,214.818 207.203,214.800 206.717 C 214.746 205.298,212.538 200.153,212.030 200.264 C 211.764 200.322,211.658 200.170,211.767 199.886 C 211.867 199.625,211.720 198.757,211.440 197.956 C 210.762 196.016,211.039 192.389,211.982 190.863 C 212.936 189.318,212.819 188.621,211.809 189.833 L 210.976 190.833 211.342 189.840 C 211.544 189.294,211.841 188.765,212.003 188.665 C 212.174 188.559,212.174 188.281,212.003 188.004 C 211.753 187.601,211.601 187.623,211.020 188.148 C 210.426 188.686,210.333 188.698,210.333 188.235 C 210.333 187.941,210.596 187.547,210.917 187.360 C 211.237 187.173,211.331 187.016,211.124 187.010 C 210.917 187.005,210.603 187.188,210.426 187.417 M242.831 188.264 C 242.649 188.394,242.280 188.800,242.010 189.167 C 241.610 189.711,241.677 189.694,242.376 189.072 C 243.097 188.432,243.377 188.366,244.138 188.656 C 245.244 189.076,245.569 189.094,245.150 188.710 C 244.677 188.276,243.208 187.994,242.831 188.264 M243.855 190.250 C 244.063 191.434,244.047 191.465,243.548 190.833 C 242.878 189.986,242.874 190.297,243.525 192.537 C 244.405 195.564,243.824 198.031,241.219 202.316 C 238.440 206.889,237.912 207.957,238.139 208.547 C 238.247 208.831,238.182 208.946,237.983 208.823 C 237.762 208.686,237.714 208.947,237.847 209.555 C 237.995 210.232,237.960 210.366,237.723 210.028 C 237.472 209.669,237.258 209.989,236.833 211.361 C 235.538 215.547,235.887 220.043,237.725 222.817 C 238.825 224.478,239.363 224.670,238.560 223.114 C 237.792 221.628,237.257 217.241,237.496 214.394 C 237.649 212.563,237.611 211.976,237.360 212.333 C 237.070 212.748,237.009 212.709,237.005 212.103 C 237.000 211.329,237.653 210.652,237.686 211.397 C 237.697 211.637,238.047 210.858,238.464 209.667 C 239.359 207.111,240.787 204.237,241.867 202.819 C 242.292 202.262,243.051 200.912,243.552 199.819 C 244.379 198.019,244.485 197.911,244.679 198.667 C 244.797 199.125,244.756 199.680,244.586 199.901 C 244.417 200.121,244.362 200.571,244.465 200.901 C 244.567 201.230,244.507 201.725,244.331 202.000 C 244.057 202.427,244.009 202.415,244.005 201.917 C 243.996 200.887,243.529 201.295,242.282 203.422 C 238.413 210.023,237.463 215.030,239.139 219.985 C 240.109 222.852,240.882 224.117,241.516 223.873 C 241.773 223.775,242.136 223.951,242.324 224.264 C 242.645 224.798,242.695 224.796,243.133 224.232 C 243.470 223.798,243.639 223.750,243.742 224.059 C 244.125 225.209,246.932 222.025,248.431 218.739 C 249.625 216.124,249.300 204.696,248.054 205.466 C 247.918 205.551,247.783 205.032,247.754 204.314 C 247.726 203.597,247.483 202.520,247.214 201.921 C 246.171 199.599,246.231 197.899,247.278 200.096 C 247.784 201.157,248.302 201.921,248.429 201.793 C 248.557 201.666,248.494 201.360,248.290 201.114 C 248.085 200.868,248.001 200.667,248.103 200.667 C 248.869 200.667,253.509 208.112,253.128 208.730 C 252.987 208.957,253.048 209.010,253.282 208.865 C 253.493 208.734,253.667 208.811,253.667 209.036 C 253.667 209.261,253.757 209.354,253.868 209.244 C 253.978 209.133,253.684 208.203,253.214 207.176 C 252.129 204.806,252.556 205.053,254.140 207.710 C 254.967 209.100,255.256 209.878,255.028 210.106 C 254.800 210.334,254.834 210.561,255.135 210.805 C 255.380 211.004,255.732 211.767,255.917 212.500 C 256.102 213.233,256.322 214.058,256.406 214.333 C 256.489 214.608,256.492 214.715,256.413 214.569 C 256.125 214.043,255.333 215.105,255.333 216.019 C 255.333 217.631,254.731 218.657,252.440 220.948 C 251.020 222.367,250.508 222.750,251.018 222.011 C 251.786 220.897,251.933 220.514,252.076 219.250 C 252.112 218.929,252.319 218.667,252.535 218.667 C 252.951 218.667,253.494 217.050,253.183 216.738 C 253.082 216.638,253.000 216.806,253.000 217.111 C 253.000 217.417,252.848 217.667,252.663 217.667 C 252.464 217.667,252.398 217.155,252.503 216.417 C 252.894 213.665,252.913 211.769,252.561 210.500 C 252.165 209.072,251.366 207.337,251.294 207.750 C 250.763 210.788,250.562 216.000,250.976 216.000 C 251.180 216.000,251.351 215.246,251.374 214.250 L 251.415 212.500 251.705 214.497 C 252.113 217.298,250.706 221.321,248.677 223.157 C 247.508 224.215,247.793 224.762,249.207 224.171 C 249.871 223.894,250.668 223.667,250.978 223.667 C 251.288 223.667,251.840 223.404,252.205 223.083 C 252.571 222.762,253.162 222.336,253.518 222.135 C 253.875 221.935,254.518 221.260,254.947 220.635 C 255.377 220.011,255.902 219.550,256.114 219.611 C 256.326 219.672,256.387 219.609,256.249 219.471 C 256.111 219.334,256.224 218.972,256.499 218.668 C 257.254 217.834,257.813 213.077,257.303 211.830 C 257.079 211.282,256.932 210.550,256.977 210.204 C 257.021 209.858,256.932 209.483,256.779 209.371 C 256.625 209.259,256.202 208.567,255.838 207.833 C 255.474 207.100,253.694 205.051,251.882 203.280 C 249.899 201.343,248.337 199.503,247.960 198.660 C 247.198 196.959,247.170 196.668,247.849 197.520 C 248.321 198.111,248.324 198.080,247.889 197.167 C 247.626 196.617,247.309 195.409,247.184 194.484 C 247.058 193.559,246.816 192.584,246.645 192.317 C 246.433 191.987,246.387 192.205,246.501 193.000 C 246.667 194.162,246.666 194.163,246.339 193.167 C 246.158 192.617,246.099 191.885,246.208 191.542 C 246.350 191.091,246.286 190.990,245.979 191.180 C 245.676 191.367,245.615 191.282,245.766 190.888 C 245.894 190.556,245.815 190.333,245.570 190.333 C 245.345 190.333,244.973 190.033,244.744 189.667 C 244.060 188.572,243.613 188.866,243.855 190.250 M241.056 190.333 C 241.037 190.792,241.241 191.458,241.511 191.814 C 242.774 193.484,241.914 196.844,239.757 198.671 C 239.066 199.257,238.800 199.583,239.167 199.397 C 241.766 198.074,243.277 193.830,241.866 191.815 C 241.609 191.448,241.330 190.777,241.245 190.324 L 241.091 189.500 241.056 190.333 M128.762 191.833 C 128.765 192.750,128.829 193.085,128.906 192.579 C 128.982 192.072,128.980 191.322,128.901 190.912 C 128.822 190.502,128.760 190.917,128.762 191.833 M213.291 190.885 C 212.663 191.641,212.669 195.814,213.299 196.400 C 213.690 196.764,213.724 196.727,213.512 196.167 C 212.967 194.727,212.940 192.790,213.448 191.573 C 214.018 190.210,213.982 190.052,213.291 190.885 M209.612 192.872 C 209.061 195.063,208.669 195.456,209.039 193.446 C 209.394 191.515,209.624 190.846,209.852 191.074 C 209.945 191.167,209.837 191.976,209.612 192.872 M245.935 195.167 L 245.917 196.833 245.650 195.333 C 245.270 193.201,245.279 191.931,245.667 192.833 C 245.824 193.200,245.945 194.250,245.935 195.167 M209.215 198.194 C 208.973 199.959,208.794 200.333,208.193 200.333 C 207.660 200.333,207.702 199.563,208.327 197.917 C 208.983 196.185,209.469 196.337,209.215 198.194 M212.667 197.589 C 212.667 197.907,216.731 204.192,217.244 204.667 C 217.595 204.992,216.553 203.145,215.585 201.727 C 214.227 199.736,214.662 199.597,216.149 201.545 C 218.965 205.233,220.333 209.226,220.333 213.757 C 220.333 216.075,219.731 218.953,219.360 218.402 C 219.254 218.244,218.856 218.754,218.476 219.537 C 217.838 220.851,217.832 220.935,218.392 220.635 C 218.727 220.456,219.000 220.156,219.000 219.969 C 219.000 219.781,219.148 219.719,219.330 219.831 C 219.520 219.949,219.573 219.811,219.455 219.504 C 219.324 219.161,219.412 219.007,219.703 219.070 C 221.481 219.452,222.189 211.626,220.713 207.913 C 220.244 206.734,219.808 206.079,219.585 206.217 C 219.355 206.359,219.295 206.248,219.421 205.918 C 219.814 204.895,215.185 198.974,214.381 199.471 C 214.155 199.610,214.076 199.524,214.180 199.251 C 214.275 199.004,213.974 198.445,213.510 198.009 C 213.046 197.574,212.667 197.385,212.667 197.589 M214.493 197.988 C 214.801 198.487,216.668 199.741,216.653 199.439 C 216.645 199.289,216.112 198.831,215.469 198.421 C 214.825 198.010,214.386 197.816,214.493 197.988 M246.012 199.378 C 246.389 200.778,246.224 202.333,245.698 202.333 C 245.306 202.333,245.041 200.414,245.250 199.083 C 245.471 197.680,245.565 197.717,246.012 199.378 M248.664 198.864 C 249.496 199.926,256.285 206.549,255.809 205.832 C 255.564 205.465,253.745 203.604,251.766 201.696 C 249.786 199.788,248.391 198.514,248.664 198.864 M240.884 199.277 C 240.580 199.613,240.445 200.012,240.583 200.164 C 240.721 200.316,240.643 200.331,240.410 200.196 C 239.277 199.544,232.176 206.604,232.858 207.706 C 232.958 207.868,232.885 208.000,232.697 208.000 C 232.508 208.000,232.450 208.250,232.567 208.555 C 232.694 208.886,232.645 209.026,232.445 208.902 C 231.430 208.275,230.130 214.168,230.662 216.977 C 231.001 218.762,231.727 220.162,232.113 219.776 C 232.234 219.655,232.333 219.787,232.333 220.070 C 232.333 220.353,232.558 220.772,232.833 221.000 C 233.441 221.505,233.441 221.494,232.843 219.833 C 232.579 219.100,232.332 217.525,232.294 216.333 L 232.225 214.167 232.000 216.000 L 231.775 217.833 231.721 215.823 C 231.691 214.717,231.877 213.002,232.133 212.013 C 232.390 211.024,232.516 209.978,232.414 209.690 C 232.311 209.402,232.344 209.273,232.488 209.402 C 232.631 209.532,233.218 208.726,233.791 207.612 C 234.790 205.670,238.906 200.795,239.253 201.142 C 239.345 201.234,238.674 202.177,237.762 203.238 C 236.850 204.299,235.840 205.617,235.517 206.167 L 234.930 207.167 235.715 206.172 C 236.147 205.625,237.281 204.256,238.236 203.130 C 239.190 202.004,239.865 200.965,239.736 200.821 C 239.606 200.677,239.666 200.654,239.868 200.770 C 240.210 200.964,241.254 200.054,241.803 199.083 C 242.163 198.449,241.509 198.587,240.884 199.277 M283.921 199.236 C 284.335 199.315,284.935 199.312,285.254 199.229 C 285.573 199.146,285.233 199.080,284.500 199.084 C 283.767 199.088,283.506 199.156,283.921 199.236 M217.667 200.073 C 217.667 200.139,218.379 200.778,219.250 201.493 C 220.121 202.209,220.533 202.450,220.167 202.028 C 219.519 201.283,217.667 199.835,217.667 200.073 M235.581 200.971 C 234.248 201.826,234.002 202.172,235.167 201.555 C 236.563 200.814,237.226 200.340,236.833 200.363 C 236.650 200.373,236.086 200.647,235.581 200.971 M199.135 201.382 C 198.504 202.092,198.505 202.094,199.231 201.713 C 200.042 201.288,200.541 200.667,200.071 200.667 C 199.906 200.667,199.484 200.988,199.135 201.382 M209.739 202.750 L 209.850 204.167 210.194 203.008 L 210.538 201.850 210.971 203.508 C 211.210 204.420,211.474 205.431,211.560 205.755 C 211.645 206.078,211.876 206.243,212.074 206.121 C 212.321 205.968,212.374 206.457,212.244 207.700 C 212.140 208.690,212.129 209.236,212.220 208.913 C 212.310 208.590,212.498 208.396,212.638 208.482 C 213.030 208.725,212.772 213.798,212.360 213.936 C 212.162 214.002,212.000 214.688,212.000 215.461 C 212.000 216.234,211.865 217.009,211.699 217.183 C 211.533 217.358,211.326 217.800,211.238 218.167 C 211.149 218.533,211.060 218.112,211.039 217.230 C 210.988 215.123,210.473 215.497,210.178 217.856 C 209.952 219.668,209.927 219.704,209.306 219.142 C 208.693 218.587,208.665 218.596,208.628 219.365 C 208.601 219.930,208.544 219.994,208.437 219.583 C 208.353 219.262,208.165 219.000,208.019 219.000 C 207.873 219.000,207.552 218.287,207.306 217.417 L 206.859 215.833 206.600 217.332 C 206.457 218.156,206.428 219.131,206.534 219.498 C 206.728 220.166,206.728 220.166,206.246 219.500 C 205.732 218.790,205.388 217.609,205.105 215.583 C 205.009 214.896,204.813 214.333,204.671 214.333 C 204.528 214.333,204.613 213.771,204.858 213.083 C 205.103 212.396,205.311 211.130,205.319 210.270 C 205.327 209.410,205.477 208.617,205.652 208.509 C 205.827 208.401,205.886 208.092,205.783 207.823 C 205.680 207.554,205.748 207.333,205.935 207.333 C 206.122 207.333,206.374 206.747,206.495 206.031 C 206.616 205.314,206.924 204.452,207.180 204.114 C 207.436 203.776,207.650 203.221,207.656 202.881 C 207.663 202.454,207.831 202.325,208.198 202.466 C 208.552 202.602,208.787 202.447,208.903 202.001 C 209.197 200.876,209.622 201.257,209.739 202.750 M249.475 205.965 C 250.039 207.971,250.551 209.472,250.613 209.300 C 250.754 208.912,249.058 202.929,248.707 202.575 C 248.566 202.433,248.912 203.958,249.475 205.965 M203.721 203.514 C 203.162 204.740,203.269 205.002,203.873 203.887 C 204.155 203.367,204.323 202.879,204.247 202.802 C 204.171 202.726,203.934 203.047,203.721 203.514 M231.649 203.917 L 230.500 205.167 231.750 204.018 C 232.913 202.949,233.153 202.667,232.899 202.667 C 232.843 202.667,232.281 203.229,231.649 203.917 M221.000 203.104 C 221.000 203.162,221.478 203.649,222.062 204.188 L 223.124 205.167 222.312 204.102 C 221.622 203.197,221.000 202.724,221.000 203.104 M243.485 204.750 C 243.300 206.133,243.307 206.147,243.802 205.333 C 244.081 204.875,244.320 204.200,244.333 203.833 C 244.355 203.190,244.377 203.192,244.970 203.902 C 245.308 204.307,245.664 204.558,245.762 204.461 C 246.003 204.220,246.245 205.093,246.651 207.667 C 246.839 208.858,247.140 210.344,247.321 210.968 C 247.671 212.177,247.463 216.721,247.007 217.833 C 246.857 218.200,246.538 219.025,246.298 219.667 C 245.426 221.999,244.597 222.157,245.032 219.908 C 245.643 216.752,245.075 217.005,244.074 220.333 C 243.242 223.101,242.689 222.200,242.844 218.330 C 242.899 216.957,242.871 216.358,242.781 217.000 C 242.692 217.642,242.480 218.309,242.310 218.483 C 242.139 218.657,241.995 219.182,241.989 219.650 L 241.978 220.500 241.274 219.667 L 240.570 218.833 240.744 219.775 C 240.861 220.413,240.808 220.608,240.579 220.379 C 240.393 220.193,240.224 218.834,240.204 217.359 C 240.181 215.711,240.022 214.621,239.791 214.531 C 239.377 214.371,239.454 213.602,240.223 210.250 C 240.578 208.702,240.894 208.000,241.238 208.000 C 241.546 208.000,241.664 207.807,241.546 207.500 C 241.441 207.225,241.489 207.000,241.655 207.000 C 241.820 207.000,242.058 206.676,242.184 206.279 C 243.097 203.402,243.772 202.609,243.485 204.750 M218.277 207.321 C 218.753 208.594,219.199 209.579,219.266 209.511 C 219.437 209.341,217.960 205.348,217.657 205.160 C 217.521 205.077,217.800 206.049,218.277 207.321 M107.293 205.760 C 107.454 205.921,108.016 205.998,108.543 205.933 C 109.424 205.823,109.401 205.800,108.250 205.640 C 107.534 205.541,107.125 205.592,107.293 205.760 M223.457 206.250 C 223.765 206.846,224.074 207.333,224.144 207.333 C 224.449 207.333,223.880 205.982,223.412 205.594 C 222.977 205.233,222.984 205.334,223.457 206.250 M229.070 206.583 C 228.717 207.088,228.251 207.838,228.036 208.250 C 227.334 209.592,227.875 209.041,228.936 207.333 C 230.045 205.549,230.131 205.069,229.070 206.583 M181.479 207.750 L 180.500 208.833 181.583 207.854 C 182.179 207.316,182.667 206.828,182.667 206.771 C 182.667 206.513,182.392 206.740,181.479 207.750 M194.662 207.676 C 194.463 208.048,194.237 209.136,194.161 210.093 L 194.022 211.833 194.345 210.060 C 194.522 209.085,194.823 207.998,195.012 207.644 C 195.202 207.290,195.282 207.000,195.190 207.000 C 195.098 207.000,194.861 207.304,194.662 207.676 M257.198 208.921 C 257.630 209.973,258.000 211.058,258.018 211.333 C 258.037 211.608,258.121 211.666,258.205 211.463 C 258.380 211.040,257.099 207.434,256.684 207.177 C 256.534 207.085,256.765 207.869,257.198 208.921 M233.820 209.026 C 233.348 209.958,233.008 210.837,233.064 210.980 C 233.121 211.123,233.571 210.361,234.065 209.287 C 235.168 206.888,234.996 206.706,233.820 209.026 M160.757 210.667 C 160.757 211.492,160.822 211.829,160.902 211.417 C 160.981 211.004,160.981 210.329,160.902 209.917 C 160.822 209.504,160.757 209.842,160.757 210.667 M215.667 213.000 C 215.667 214.283,215.554 215.333,215.416 215.333 C 215.279 215.333,215.134 214.283,215.096 213.000 C 215.056 211.679,215.164 210.667,215.346 210.667 C 215.522 210.667,215.667 211.717,215.667 213.000 M209.000 213.569 C 209.000 214.860,208.902 216.409,208.781 217.010 C 208.632 217.755,208.677 218.033,208.923 217.881 C 209.121 217.759,209.345 217.923,209.420 218.246 C 209.495 218.569,209.487 217.183,209.401 215.167 C 209.223 210.978,209.000 210.089,209.000 213.569 M219.728 213.833 C 219.689 215.117,219.580 216.542,219.486 217.000 L 219.315 217.833 219.671 217.018 C 219.866 216.570,219.975 215.145,219.913 213.852 L 219.799 211.500 219.728 213.833 M162.088 212.239 C 162.595 212.316,163.345 212.314,163.755 212.235 C 164.165 212.156,163.750 212.093,162.833 212.095 C 161.917 212.098,161.581 212.163,162.088 212.239 M155.750 212.563 C 156.071 212.647,156.596 212.647,156.917 212.563 C 157.237 212.479,156.975 212.411,156.333 212.411 C 155.692 212.411,155.429 212.479,155.750 212.563 M194.042 213.378 C 194.000 214.602,194.968 218.143,195.263 217.848 C 195.351 217.760,195.237 217.239,195.010 216.691 C 194.783 216.143,194.482 214.901,194.340 213.930 C 194.124 212.445,194.077 212.358,194.042 213.378 M237.037 214.096 C 236.765 214.368,236.667 214.331,236.667 213.956 C 236.667 213.674,236.776 213.335,236.910 213.201 C 237.043 213.068,237.210 213.131,237.281 213.342 C 237.351 213.552,237.241 213.892,237.037 214.096 M243.084 214.500 C 243.088 215.233,243.156 215.494,243.236 215.079 C 243.315 214.665,243.312 214.065,243.229 213.746 C 243.146 213.427,243.080 213.767,243.084 214.500 M248.031 215.769 C 247.596 216.204,247.535 215.722,247.907 214.777 C 248.138 214.188,248.151 214.189,248.271 214.785 C 248.340 215.126,248.232 215.568,248.031 215.769 M131.757 217.000 C 131.757 217.825,131.822 218.162,131.902 217.750 C 131.981 217.338,131.981 216.662,131.902 216.250 C 131.822 215.838,131.757 216.175,131.757 217.000 M169.077 217.667 C 169.077 218.308,169.146 218.571,169.230 218.250 C 169.314 217.929,169.314 217.404,169.230 217.083 C 169.146 216.762,169.077 217.025,169.077 217.667 M258.019 217.167 C 258.000 217.533,257.693 218.477,257.336 219.263 C 256.979 220.050,256.821 220.611,256.984 220.510 C 257.451 220.221,258.425 217.431,258.229 216.941 C 258.123 216.675,258.039 216.765,258.019 217.167 M223.412 218.760 C 222.814 219.675,222.549 220.236,222.825 220.007 C 223.407 219.524,224.800 217.346,224.621 217.198 C 224.555 217.142,224.010 217.845,223.412 218.760 M250.333 217.639 C 250.333 217.991,250.248 218.554,250.144 218.889 C 250.039 219.225,250.184 219.125,250.465 218.667 C 251.058 217.699,251.143 217.000,250.667 217.000 C 250.483 217.000,250.333 217.288,250.333 217.639 M196.249 219.504 C 196.636 220.233,197.954 221.525,198.085 221.304 C 198.130 221.228,197.655 220.642,197.030 220.000 C 196.405 219.358,196.054 219.135,196.249 219.504 M228.384 219.812 C 228.598 220.282,228.905 220.667,229.065 220.667 C 229.406 220.667,228.818 219.466,228.329 219.164 C 228.138 219.046,228.162 219.324,228.384 219.812 M220.016 222.026 C 219.200 222.562,218.678 223.000,218.856 223.000 C 219.220 223.000,221.667 221.394,221.667 221.155 C 221.667 220.941,221.678 220.935,220.016 222.026 M153.812 222.750 L 152.833 223.833 153.917 222.854 C 154.926 221.942,155.153 221.667,154.896 221.667 C 154.838 221.667,154.351 222.154,153.812 222.750 M230.306 222.115 C 230.783 222.709,232.000 223.489,232.000 223.201 C 232.000 223.115,231.512 222.704,230.917 222.286 C 230.148 221.747,229.971 221.697,230.306 222.115 M254.982 222.917 L 253.833 224.167 255.083 223.018 C 256.247 221.949,256.487 221.667,256.232 221.667 C 256.176 221.667,255.614 222.229,254.982 222.917 M199.333 222.175 C 199.333 222.370,200.395 222.800,201.667 223.121 C 202.125 223.237,201.900 223.043,201.167 222.691 C 199.751 222.010,199.333 221.892,199.333 222.175 M122.649 224.250 L 121.500 225.500 122.750 224.351 C 123.913 223.282,124.153 223.000,123.899 223.000 C 123.843 223.000,123.281 223.563,122.649 224.250 M203.308 224.104 C 203.991 224.861,204.389 225.000,205.872 225.000 C 206.837 225.000,207.720 225.150,207.833 225.333 C 207.947 225.517,208.293 225.649,208.603 225.628 C 209.111 225.593,209.109 225.574,208.583 225.437 C 208.262 225.353,208.000 225.145,208.000 224.976 C 208.000 224.806,207.195 224.667,206.212 224.667 C 204.887 224.667,204.174 224.477,203.462 223.937 L 202.500 223.208 203.308 224.104 M204.449 223.711 C 204.890 223.968,205.168 223.965,205.432 223.701 C 205.700 223.433,205.534 223.336,204.817 223.343 C 203.955 223.352,203.909 223.398,204.449 223.711 M233.667 224.104 C 233.667 224.162,234.154 224.649,234.750 225.188 L 235.833 226.167 234.854 225.083 C 233.942 224.074,233.667 223.847,233.667 224.104 M215.167 224.666 C 214.800 224.823,214.011 224.871,213.413 224.771 C 212.778 224.666,212.119 224.763,211.828 225.005 C 211.554 225.232,210.843 225.534,210.248 225.675 C 209.309 225.898,209.277 225.936,210.009 225.966 C 210.473 225.985,211.158 225.785,211.532 225.523 C 211.926 225.248,212.865 225.071,213.757 225.106 C 214.625 225.140,215.483 224.983,215.717 224.750 C 216.191 224.276,216.106 224.263,215.167 224.666 M240.102 225.806 C 240.232 226.195,242.000 226.347,242.000 225.970 C 242.000 225.845,241.546 225.676,240.991 225.594 C 240.360 225.502,240.027 225.581,240.102 225.806 M245.167 226.000 C 245.280 226.183,245.655 226.333,246.000 226.333 C 246.345 226.333,246.720 226.183,246.833 226.000 C 246.954 225.805,246.608 225.667,246.000 225.667 C 245.392 225.667,245.046 225.805,245.167 226.000 M239.102 226.801 C 240.172 227.791,241.837 227.953,242.853 227.165 C 243.456 226.697,243.437 226.685,242.562 226.998 C 241.140 227.506,240.189 227.405,239.128 226.634 L 238.167 225.935 239.102 226.801 M246.889 226.709 C 246.552 226.905,245.702 227.010,245.000 226.943 C 244.297 226.876,243.794 226.936,243.881 227.077 C 244.155 227.521,246.511 227.355,247.186 226.844 C 247.941 226.273,247.771 226.196,246.889 226.709 " stroke="none" fill="#d1bde7" fill-rule="evenodd"></path></g></svg>