<svg id="svg" version="1.1" xmlns="http://www.w3.org/2000/svg" xmlns:xlink="http://www.w3.org/1999/xlink" width="400" height="200" viewBox="0, 0, 400,200"><g id="svgg"><path id="path0" d="M184.174 60.622 C 183.363 61.624,182.464 62.726,182.177 63.072 C 178.902 67.002,170.296 81.964,169.103 85.802 C 169.017 86.076,168.783 86.660,168.581 87.100 C 167.640 89.156,163.986 99.880,163.403 102.300 C 163.270 102.850,163.081 103.525,162.982 103.800 C 162.823 104.245,162.487 105.758,161.497 110.502 C 160.098 117.195,160.310 121.919,162.084 123.585 L 162.544 124.017 163.151 123.325 C 163.486 122.944,163.954 122.108,164.193 121.466 C 164.556 120.487,165.717 118.085,166.834 116.000 C 171.417 107.445,178.772 98.628,184.631 94.667 C 186.944 93.103,187.662 93.887,186.339 96.532 C 185.706 97.796,183.348 102.941,181.999 106.000 C 180.069 110.375,178.477 116.487,178.865 118.032 C 179.556 120.783,181.673 121.679,184.700 120.500 C 189.066 118.800,190.371 117.476,187.441 117.721 C 185.264 117.902,184.891 117.573,185.063 115.623 C 185.424 111.515,192.347 98.949,197.808 92.491 C 199.015 91.063,199.013 91.135,197.875 90.045 C 195.966 88.216,193.032 86.800,191.150 86.800 C 187.536 86.800,181.198 91.775,174.320 100.011 C 170.415 104.687,170.018 105.056,169.719 104.279 C 169.130 102.744,175.084 88.282,179.105 81.481 C 181.943 76.681,188.180 68.710,192.939 63.800 C 193.632 63.085,194.200 62.355,194.200 62.178 C 194.200 61.470,190.177 59.400,188.023 59.000 C 185.827 58.593,185.810 58.600,184.174 60.622 M77.800 66.209 C 72.274 66.946,68.075 67.928,63.702 69.507 C 61.198 70.411,57.208 72.346,57.062 72.727 C 56.742 73.560,59.383 78.625,60.500 79.322 C 60.850 79.541,61.100 79.447,62.500 78.571 C 65.720 76.556,70.730 74.319,71.756 74.437 C 72.506 74.524,72.548 75.183,71.936 77.247 C 71.666 78.156,71.398 79.080,71.340 79.300 C 70.944 80.801,68.299 88.065,67.990 88.500 C 67.912 88.610,67.375 89.825,66.797 91.200 C 66.218 92.575,65.543 94.150,65.295 94.700 C 65.048 95.250,64.469 96.639,64.009 97.788 C 63.549 98.936,62.993 100.241,62.774 100.688 C 62.554 101.134,61.895 102.670,61.308 104.100 C 60.722 105.530,59.776 107.735,59.207 109.000 C 58.637 110.265,57.807 112.155,57.361 113.200 C 56.007 116.378,54.579 119.489,54.384 119.690 C 53.277 120.831,58.352 126.091,60.724 126.262 C 61.136 126.291,61.290 126.187,61.405 125.800 C 61.613 125.095,62.133 123.083,62.412 121.900 C 63.689 116.476,67.468 106.193,70.516 99.850 C 71.680 97.428,71.745 97.377,72.800 98.045 C 73.259 98.335,73.947 98.524,74.798 98.594 C 76.262 98.713,76.401 98.865,76.905 100.879 C 77.045 101.440,77.302 102.395,77.476 103.000 C 77.649 103.605,78.009 104.865,78.274 105.800 C 80.285 112.888,81.910 117.744,83.205 120.542 C 83.532 121.249,83.800 121.872,83.800 121.925 C 83.800 122.249,85.950 125.290,86.554 125.820 C 88.764 127.761,91.343 127.337,94.155 124.569 C 95.459 123.285,95.494 123.502,93.625 121.329 C 90.340 117.510,86.554 111.261,84.064 105.545 C 80.827 98.116,80.828 98.324,84.000 97.711 C 92.457 96.077,100.118 90.063,101.847 83.700 C 105.214 71.312,95.040 63.912,77.800 66.209 M93.200 71.336 C 102.886 73.329,102.684 84.495,92.869 89.650 C 92.084 90.063,91.327 90.400,91.187 90.400 C 91.046 90.400,90.789 90.522,90.616 90.671 C 88.214 92.730,73.800 94.791,73.800 93.075 C 73.800 92.476,81.206 77.813,82.971 74.919 C 83.685 73.747,83.805 73.399,83.757 72.626 C 83.651 70.923,88.181 70.304,93.200 71.336 M149.451 83.594 C 145.674 85.308,142.408 89.449,141.794 93.300 C 141.502 95.127,141.666 96.611,142.589 100.500 C 143.702 105.192,143.834 105.965,143.764 107.396 C 143.690 108.895,143.806 108.818,141.000 109.213 C 133.459 110.274,125.962 119.851,129.038 124.495 C 131.255 127.842,134.181 129.148,137.600 128.319 C 144.413 126.666,147.955 121.401,147.773 113.197 C 147.716 110.605,148.059 110.268,151.435 109.602 C 152.578 109.376,153.144 108.994,152.905 108.609 C 152.829 108.485,151.906 108.400,150.633 108.400 C 147.765 108.400,147.600 108.286,147.600 106.310 C 147.600 102.770,148.187 98.814,149.050 96.542 C 151.496 90.098,158.055 90.624,155.817 97.085 C 154.817 99.969,156.047 100.294,157.641 97.567 C 159.385 94.584,159.817 91.394,158.687 89.856 C 155.073 84.938,151.631 82.604,149.451 83.594 M301.366 85.980 C 299.809 87.804,295.334 95.968,294.282 98.901 C 294.095 99.422,292.230 103.982,291.992 104.500 C 291.374 105.843,289.920 110.894,288.967 115.000 C 288.096 118.756,288.632 121.682,290.550 123.650 C 291.692 124.822,292.167 124.437,295.717 119.465 C 301.559 111.284,308.937 103.367,312.731 101.208 C 314.962 99.939,315.298 100.359,314.180 103.022 C 313.440 104.783,312.147 108.503,311.668 110.249 C 310.838 113.268,311.325 118.034,312.633 119.697 C 314.764 122.406,320.433 122.153,323.550 119.209 C 324.438 118.371,323.742 117.826,322.393 118.303 C 319.218 119.423,317.891 117.787,318.498 113.500 C 319.310 107.773,323.602 98.287,326.919 94.890 C 328.264 93.511,328.251 93.310,326.709 91.645 C 324.500 89.258,321.792 89.453,317.921 92.277 C 317.580 92.526,316.580 93.260,315.700 93.908 C 312.711 96.109,307.049 102.073,300.543 109.873 C 296.757 114.414,296.229 112.468,299.629 106.500 C 301.890 102.531,303.573 99.630,304.085 98.821 C 305.013 97.356,306.707 94.370,307.302 93.152 L 307.863 92.004 307.491 91.152 C 306.554 89.004,304.774 86.766,303.211 85.768 C 302.096 85.056,302.160 85.049,301.366 85.980 M117.400 86.087 C 112.232 87.527,106.129 93.740,102.558 101.194 C 96.697 113.431,102.444 125.854,112.346 122.349 C 122.981 118.584,130.011 108.304,129.551 97.190 C 129.375 92.945,128.554 91.563,125.937 91.111 C 125.078 90.963,124.351 90.809,124.323 90.771 C 124.294 90.732,124.056 90.385,123.795 90.000 C 121.112 86.054,119.987 85.366,117.400 86.087 M123.882 92.380 C 125.045 93.665,125.109 100.129,124.002 104.432 C 121.863 112.741,116.525 118.870,109.879 120.648 C 108.688 120.966,108.163 120.679,107.534 119.364 C 104.173 112.345,111.567 97.510,120.700 92.946 C 122.891 91.852,123.332 91.773,123.882 92.380 M143.884 112.321 C 144.437 112.534,144.123 114.892,143.240 117.167 C 141.670 121.209,136.709 126.186,134.742 125.693 C 133.590 125.403,132.864 123.454,133.296 121.814 C 134.395 117.648,141.399 111.368,143.884 112.321 " stroke="none" fill="#126e2b" fill-rule="evenodd"></path><path id="path1" d="M0.000 100.000 L 0.000 200.000 200.000 200.000 L 400.000 200.000 400.000 100.000 L 400.000 0.000 200.000 0.000 L 0.000 0.000 0.000 100.000 M188.487 58.521 C 191.742 59.381,195.000 61.216,195.000 62.189 C 195.000 62.529,195.031 62.492,191.604 66.200 C 190.333 67.575,188.935 69.149,188.497 69.699 C 188.059 70.248,187.248 71.238,186.695 71.899 C 182.278 77.178,178.235 83.711,175.242 90.400 C 175.021 90.895,174.423 92.229,173.914 93.365 C 172.869 95.695,172.734 96.050,171.480 99.776 C 170.137 103.764,170.250 103.782,173.422 100.078 C 185.611 85.848,191.651 83.291,198.250 89.567 C 199.658 90.906,199.674 91.165,198.437 92.703 C 193.121 99.314,187.924 108.181,186.085 113.776 C 185.075 116.847,185.560 117.591,188.177 116.988 C 190.739 116.397,190.236 118.591,187.496 119.959 C 183.047 122.179,181.452 122.271,179.596 120.415 C 177.510 118.329,177.734 114.554,180.291 108.700 C 180.435 108.370,180.668 107.785,180.808 107.400 C 180.948 107.015,181.223 106.336,181.418 105.891 C 181.613 105.447,182.186 104.113,182.693 102.928 C 183.199 101.742,184.238 99.453,185.001 97.841 C 185.851 96.046,186.317 94.837,186.204 94.724 C 185.496 94.016,178.436 100.363,175.108 104.700 C 170.613 110.558,166.366 117.533,164.394 122.293 C 163.159 125.275,161.953 125.352,160.704 122.528 C 159.332 119.425,159.855 113.256,162.232 104.500 C 162.441 103.730,162.746 102.605,162.911 102.000 C 163.555 99.630,165.375 93.960,166.506 90.800 C 170.267 80.291,176.823 68.594,183.596 60.305 C 185.465 58.018,185.935 57.846,188.487 58.521 M89.511 65.601 C 101.083 67.718,106.137 76.411,101.463 86.160 C 99.384 90.496,93.534 95.557,89.100 96.856 C 88.880 96.921,88.295 97.124,87.800 97.308 C 86.261 97.881,84.235 98.400,83.541 98.400 C 81.888 98.400,81.883 98.852,83.497 102.800 C 86.308 109.675,90.973 117.546,94.490 121.344 C 96.193 123.184,96.200 123.459,94.582 125.017 C 92.189 127.323,89.348 128.194,87.423 127.212 C 84.737 125.842,81.414 119.160,78.912 110.100 C 78.730 109.440,78.489 108.630,78.378 108.300 C 78.266 107.970,78.012 107.115,77.813 106.400 C 76.902 103.132,76.541 101.824,76.279 100.834 C 75.808 99.056,75.750 99.000,74.374 99.000 C 73.579 99.000,72.957 98.879,72.567 98.650 C 71.993 98.312,71.965 98.313,71.742 98.700 C 71.040 99.917,67.418 108.463,66.530 111.000 C 66.357 111.495,65.894 112.800,65.502 113.900 C 64.522 116.647,63.363 120.576,62.582 123.800 C 62.223 125.285,61.844 126.613,61.740 126.750 C 61.045 127.670,57.457 125.817,55.548 123.552 C 53.411 121.016,53.258 120.467,54.177 118.644 C 54.494 118.015,55.357 116.150,56.094 114.500 C 56.832 112.850,57.555 111.230,57.703 110.900 C 58.278 109.614,58.792 108.425,59.561 106.600 C 60.002 105.555,60.788 103.710,61.307 102.500 C 61.827 101.290,62.644 99.355,63.122 98.200 C 63.601 97.045,64.088 95.936,64.206 95.737 C 64.324 95.537,64.677 94.727,64.991 93.937 C 65.305 93.146,66.253 90.880,67.098 88.900 C 68.708 85.126,68.858 84.745,69.825 82.000 C 71.362 77.636,71.888 75.200,71.293 75.200 C 70.304 75.200,65.291 77.526,62.843 79.121 C 60.581 80.594,60.134 80.443,58.352 77.600 C 56.014 73.871,55.974 72.516,58.166 71.270 C 65.887 66.879,81.283 64.095,89.511 65.601 M86.213 71.701 C 84.171 72.092,84.204 72.071,84.332 72.857 C 84.426 73.435,84.231 73.900,83.010 76.017 C 81.226 79.111,74.599 92.375,74.600 92.850 C 74.600 93.277,75.624 93.311,78.800 92.990 C 88.335 92.027,95.437 88.737,98.248 83.981 C 100.726 79.788,99.787 74.830,96.164 72.982 C 93.763 71.757,89.075 71.154,86.213 71.701 M222.333 72.650 C 222.554 72.898,222.937 73.438,223.184 73.850 C 223.431 74.263,223.701 74.600,223.784 74.600 C 223.946 74.600,224.400 75.491,224.400 75.809 C 224.400 75.913,224.098 76.337,223.729 76.749 C 221.118 79.670,221.213 84.133,223.953 87.208 C 224.702 88.049,225.288 88.513,227.400 89.941 C 231.026 92.392,236.400 97.397,236.400 98.323 C 236.400 98.406,236.573 98.660,236.783 98.887 C 237.292 99.435,238.600 102.067,238.600 102.544 C 238.600 102.751,238.680 103.006,238.778 103.110 C 239.479 103.859,239.994 111.224,239.425 112.353 C 239.329 112.544,239.087 113.240,238.888 113.900 C 238.039 116.719,235.633 119.922,233.070 121.647 C 231.703 122.567,231.449 122.694,229.000 123.696 C 228.285 123.988,227.273 124.586,226.752 125.024 C 225.601 125.991,223.861 126.530,222.934 126.207 C 221.986 125.877,220.905 125.953,220.521 126.377 C 219.979 126.976,218.488 127.460,217.639 127.313 C 217.233 127.242,216.570 127.134,216.167 127.073 C 215.763 127.011,215.230 126.745,214.982 126.481 C 214.559 126.030,214.393 126.000,212.352 126.000 C 209.984 126.000,209.774 125.935,208.378 124.776 C 207.493 124.040,205.854 123.200,205.304 123.200 C 204.553 123.200,201.225 121.201,199.835 119.915 C 198.559 118.735,196.116 114.575,195.779 113.009 C 195.695 112.619,195.523 111.895,195.396 111.400 C 195.087 110.195,195.215 104.105,195.556 103.764 C 195.690 103.630,195.800 103.356,195.800 103.156 C 195.800 102.955,196.070 102.196,196.400 101.468 C 196.730 100.740,197.000 100.069,197.000 99.976 C 197.000 99.883,197.345 99.243,197.767 98.554 C 198.189 97.864,198.571 97.188,198.617 97.052 C 198.777 96.573,203.112 92.343,204.208 91.597 C 204.817 91.182,205.436 90.698,205.583 90.521 C 205.729 90.344,205.919 90.200,206.004 90.200 C 206.090 90.200,206.686 89.837,207.330 89.393 C 207.973 88.950,208.950 88.285,209.500 87.916 C 212.099 86.172,214.359 83.150,215.055 80.489 C 215.226 79.835,215.608 78.805,215.904 78.200 C 218.589 72.701,218.668 72.593,220.157 72.385 C 221.744 72.164,221.916 72.185,222.333 72.650 M265.688 74.306 C 265.902 74.468,266.291 74.600,266.554 74.600 C 267.100 74.600,268.200 75.605,268.200 76.104 C 268.200 76.289,268.344 76.768,268.520 77.170 C 269.081 78.448,269.163 78.677,269.463 79.800 C 269.624 80.405,269.865 81.305,269.998 81.800 C 270.131 82.295,270.301 83.285,270.377 84.000 C 270.522 85.362,271.163 86.868,272.207 88.300 C 272.528 88.740,273.006 89.415,273.271 89.800 C 273.535 90.185,274.350 91.040,275.083 91.700 C 281.108 97.131,282.707 98.985,284.394 102.496 C 287.411 108.780,287.224 114.752,283.833 120.385 C 283.252 121.351,280.048 124.800,279.733 124.800 C 279.625 124.800,279.259 125.011,278.919 125.269 C 278.578 125.527,277.985 125.875,277.600 126.041 C 277.215 126.208,276.630 126.460,276.300 126.602 C 275.970 126.743,275.340 126.929,274.900 127.014 C 272.621 127.455,271.554 127.770,271.149 128.125 C 269.951 129.171,267.133 129.573,265.578 128.919 C 264.963 128.661,264.836 128.677,263.962 129.119 C 262.107 130.059,259.926 129.736,258.400 128.295 C 257.721 127.653,257.643 127.631,255.755 127.567 L 253.810 127.500 252.450 126.150 C 251.702 125.408,251.039 124.800,250.977 124.800 C 250.558 124.800,247.292 122.579,246.331 121.641 C 244.487 119.842,242.703 116.882,241.967 114.400 C 241.539 112.956,241.601 106.771,242.056 105.524 C 244.483 98.880,248.378 95.081,257.561 90.397 C 261.474 88.401,263.265 85.964,263.287 82.600 C 263.301 80.605,263.329 80.698,261.924 78.064 C 261.471 77.216,261.678 76.482,262.525 75.935 C 262.895 75.696,263.248 75.348,263.309 75.163 C 263.576 74.345,265.042 73.817,265.688 74.306 M218.316 76.300 C 218.236 76.520,218.037 76.925,217.873 77.200 C 217.081 78.532,216.527 79.976,216.385 81.082 C 216.298 81.752,216.164 82.556,216.087 82.870 C 215.967 83.356,216.001 83.429,216.319 83.368 C 216.593 83.315,216.735 83.034,216.858 82.304 C 216.949 81.758,217.113 81.205,217.221 81.075 C 217.489 80.752,218.200 78.222,218.200 77.591 C 218.200 77.310,218.298 76.982,218.419 76.861 C 218.539 76.741,218.598 76.475,218.550 76.271 C 218.467 75.922,218.453 75.923,218.316 76.300 M267.503 80.750 C 267.567 81.493,267.746 82.595,267.901 83.200 C 268.057 83.805,268.242 84.746,268.311 85.292 C 268.545 87.131,268.850 85.769,268.751 83.330 C 268.679 81.557,268.572 80.926,268.226 80.250 C 267.593 79.013,267.369 79.168,267.503 80.750 M218.350 82.314 C 218.268 82.398,218.200 82.695,218.200 82.973 C 218.200 83.337,218.261 83.419,218.417 83.263 C 218.536 83.144,218.604 82.847,218.567 82.604 C 218.530 82.361,218.433 82.231,218.350 82.314 M153.003 83.334 C 154.474 84.319,158.146 88.013,159.118 89.486 C 160.932 92.235,158.546 100.000,155.887 100.000 C 154.627 100.000,154.472 99.158,155.287 96.755 C 156.339 93.657,155.231 91.914,152.844 92.910 C 150.039 94.080,148.545 98.048,148.515 104.400 L 148.500 107.700 150.825 107.805 C 153.508 107.926,153.885 108.095,153.560 109.028 C 153.321 109.713,153.007 109.884,151.255 110.280 C 150.571 110.435,149.671 110.728,149.255 110.931 L 148.500 111.300 148.375 114.500 C 148.028 123.331,142.801 129.200,135.282 129.200 C 131.976 129.200,127.800 125.415,127.800 122.418 C 127.800 115.873,134.449 109.279,141.900 108.436 L 143.100 108.300 143.166 107.500 C 143.251 106.462,142.936 104.746,141.697 99.500 C 140.203 93.175,141.615 88.711,146.340 84.826 C 149.093 82.563,151.159 82.100,153.003 83.334 M303.947 85.512 C 305.662 86.639,308.400 90.647,308.400 92.029 C 308.400 92.559,307.083 95.041,304.595 99.200 C 299.980 106.915,298.076 110.543,298.449 110.915 C 298.621 111.088,300.176 109.410,303.043 105.957 C 313.244 93.670,321.392 87.829,325.423 89.912 C 326.331 90.380,328.257 92.371,328.597 93.192 L 328.871 93.853 327.753 94.877 C 323.967 98.345,319.135 109.521,319.111 114.867 C 319.096 118.058,319.624 118.517,322.327 117.665 C 323.597 117.265,324.274 117.470,324.487 118.319 C 324.854 119.783,320.549 122.200,317.573 122.200 C 312.694 122.200,310.697 119.840,310.718 114.100 C 310.731 110.478,311.189 108.657,313.323 103.740 C 314.456 101.130,314.292 100.935,312.135 102.324 C 308.589 104.606,301.816 112.101,295.800 120.400 C 291.831 125.875,290.824 126.213,289.090 122.651 C 288.048 120.511,287.935 120.068,287.964 118.200 C 287.991 116.505,288.263 115.077,289.411 110.600 C 290.045 108.132,292.127 102.256,293.213 99.872 C 293.426 99.404,293.600 98.974,293.600 98.915 C 293.600 98.571,296.883 91.919,298.047 89.905 C 299.137 88.019,301.334 84.861,301.648 84.729 C 302.095 84.541,302.875 84.807,303.947 85.512 M213.908 85.627 C 213.618 85.971,213.209 86.590,212.999 87.001 C 212.046 88.869,207.000 93.747,207.000 92.800 C 207.000 91.101,201.196 97.894,200.080 100.900 C 199.793 101.670,199.492 102.435,199.409 102.601 C 198.667 104.082,198.179 109.192,198.685 110.172 C 198.858 110.506,199.000 110.973,199.000 111.209 C 199.000 111.445,199.120 111.877,199.267 112.169 C 200.812 115.243,201.887 116.971,202.363 117.147 C 202.549 117.216,203.032 117.610,203.437 118.023 C 204.852 119.464,205.714 119.788,205.130 118.659 C 203.695 115.884,203.103 106.967,204.191 104.500 C 204.385 104.060,204.558 103.385,204.576 103.000 C 204.623 101.980,204.987 101.000,205.319 101.000 C 205.527 101.000,205.573 101.140,205.482 101.500 C 205.372 101.938,205.422 102.000,205.879 102.000 C 206.362 102.000,207.600 100.039,207.600 99.275 C 207.600 98.359,212.421 88.697,214.062 86.322 C 214.913 85.092,214.797 84.570,213.908 85.627 M120.932 85.774 C 121.891 86.468,122.926 87.656,124.042 89.341 L 124.876 90.600 125.948 90.600 C 131.357 90.600,131.789 102.014,126.722 111.074 C 122.584 118.474,112.364 125.029,107.341 123.505 C 100.478 121.422,97.885 113.824,100.754 104.200 C 101.033 103.265,101.322 102.410,101.396 102.300 C 101.471 102.190,101.736 101.605,101.987 101.000 C 105.806 91.763,116.896 82.850,120.932 85.774 M270.000 88.125 C 270.000 88.304,270.258 89.002,270.572 89.675 C 272.550 93.907,274.737 100.574,275.477 104.626 C 275.736 106.050,277.000 106.921,277.000 105.676 C 277.000 105.083,277.050 104.993,277.275 105.179 C 277.465 105.337,277.519 105.684,277.449 106.300 C 277.379 106.925,277.446 107.341,277.674 107.688 C 278.192 108.479,277.860 114.181,277.182 116.153 C 276.972 116.763,276.800 117.520,276.800 117.834 C 276.800 118.148,276.718 118.562,276.619 118.753 C 276.519 118.944,276.333 119.490,276.206 119.966 C 276.078 120.443,275.665 121.316,275.287 121.907 C 274.545 123.067,274.451 123.400,274.866 123.400 C 275.116 123.400,276.983 122.268,277.200 121.984 C 277.255 121.913,277.486 121.796,277.713 121.725 C 278.185 121.578,279.809 119.767,280.700 118.395 C 281.030 117.886,281.457 117.313,281.650 117.121 C 281.843 116.929,282.000 116.558,282.000 116.298 C 282.000 116.037,282.090 115.768,282.200 115.700 C 282.310 115.632,282.400 115.251,282.400 114.854 C 282.400 114.457,282.529 113.989,282.687 113.814 C 283.492 112.925,282.987 106.746,281.893 104.100 C 281.756 103.770,281.579 103.275,281.499 103.000 C 281.418 102.725,281.236 102.365,281.094 102.200 C 280.528 101.544,279.446 99.812,279.325 99.369 C 279.098 98.536,276.844 96.249,276.597 96.600 C 276.099 97.307,272.861 93.028,271.110 89.350 C 270.405 87.869,270.000 87.422,270.000 88.125 M223.800 90.156 C 223.800 90.241,224.353 91.164,225.030 92.206 C 230.758 101.028,232.751 107.280,231.787 113.400 C 231.321 116.356,231.323 116.328,231.652 116.000 C 233.135 114.521,233.284 108.793,231.982 103.325 C 231.776 102.459,231.656 101.671,231.716 101.574 C 231.875 101.317,231.370 99.958,230.963 99.549 C 230.771 99.355,230.666 99.062,230.729 98.896 C 230.793 98.730,230.726 98.451,230.580 98.276 C 230.435 98.101,230.222 97.802,230.108 97.611 C 228.310 94.616,223.800 89.286,223.800 90.156 M220.404 91.100 C 220.403 91.320,220.671 91.905,221.000 92.400 C 221.695 93.446,221.755 93.380,221.212 92.167 C 220.652 90.915,220.407 90.592,220.404 91.100 M258.596 92.570 C 256.210 94.575,252.469 98.371,252.359 98.900 C 252.314 99.120,252.174 99.279,252.050 99.254 C 251.800 99.203,250.935 100.202,251.092 100.359 C 251.146 100.413,251.328 100.343,251.495 100.204 C 251.873 99.891,251.875 99.972,251.512 100.841 C 251.209 101.566,250.741 102.074,250.552 101.885 C 250.424 101.758,249.397 103.044,249.407 103.319 C 249.410 103.418,249.583 103.297,249.790 103.049 C 250.225 102.527,250.421 102.809,250.170 103.596 C 248.221 109.704,247.765 112.824,248.380 115.835 C 248.676 117.282,249.000 116.675,249.004 114.667 C 249.015 108.191,252.521 99.437,256.399 96.200 C 256.465 96.145,257.273 95.200,258.194 94.100 C 259.116 93.000,260.043 91.947,260.255 91.759 C 260.466 91.572,260.606 91.319,260.566 91.198 C 260.526 91.077,259.639 91.694,258.596 92.570 M216.175 92.791 C 215.934 93.117,215.482 93.472,215.169 93.581 C 214.843 93.694,214.504 94.018,214.372 94.339 C 213.701 95.984,213.093 97.095,212.576 97.624 C 212.074 98.138,212.014 98.318,212.122 98.991 C 212.210 99.543,212.153 99.900,211.923 100.228 C 211.745 100.482,211.600 100.964,211.600 101.300 C 211.600 101.636,211.252 102.591,210.827 103.422 C 209.283 106.441,208.947 109.595,209.886 112.262 C 210.072 112.792,210.246 113.512,210.273 113.862 C 210.300 114.213,210.508 114.797,210.735 115.161 C 211.044 115.654,211.124 116.037,211.052 116.674 C 210.965 117.451,211.017 117.578,211.628 118.090 C 212.039 118.434,212.339 118.894,212.400 119.274 C 212.556 120.244,213.160 120.222,213.317 119.241 C 213.571 117.648,214.022 117.623,214.396 119.183 C 215.098 122.109,216.192 121.149,216.199 117.600 C 216.201 116.445,216.263 114.870,216.336 114.100 L 216.468 112.700 216.726 113.800 C 216.867 114.405,216.987 115.715,216.992 116.712 C 216.997 117.956,217.089 118.645,217.286 118.912 C 217.595 119.332,217.566 119.366,217.947 118.113 C 218.167 117.387,218.512 117.241,218.661 117.811 C 218.788 118.298,219.780 117.795,219.794 117.237 C 219.803 116.834,220.630 114.958,221.030 114.432 C 221.353 114.008,221.357 113.921,221.081 113.499 C 220.535 112.665,220.773 111.087,221.435 111.155 C 221.729 111.186,222.030 111.113,222.104 110.993 C 222.218 110.810,222.482 107.104,222.425 106.500 C 222.414 106.390,222.368 105.490,222.323 104.500 C 222.277 103.510,222.096 102.306,221.920 101.825 C 221.744 101.344,221.600 100.653,221.600 100.291 C 221.600 99.361,221.419 98.997,220.849 98.780 C 220.433 98.623,220.371 98.497,220.466 98.018 C 220.549 97.603,220.475 97.348,220.195 97.095 C 219.982 96.903,219.531 95.858,219.191 94.773 C 218.574 92.800,218.004 92.120,217.997 93.350 C 217.991 94.337,217.648 94.564,217.490 93.686 C 217.202 92.095,216.861 91.863,216.175 92.791 M122.200 92.886 C 116.087 95.176,110.190 102.808,107.717 111.631 C 106.961 114.329,107.453 118.862,108.617 119.916 C 109.585 120.792,114.343 118.430,117.071 115.719 C 122.094 110.728,125.009 102.388,124.170 95.407 C 123.849 92.735,123.567 92.374,122.200 92.886 M266.443 95.038 C 266.309 95.171,266.199 95.510,266.197 95.790 C 266.193 96.609,265.975 97.200,265.677 97.200 C 265.483 97.200,265.400 96.935,265.400 96.312 C 265.400 94.921,265.079 95.052,264.200 96.801 C 263.753 97.690,263.130 98.686,262.816 99.014 C 261.946 99.925,260.400 103.232,260.400 104.182 C 260.400 104.495,260.274 104.855,260.121 104.983 C 259.967 105.110,259.780 105.544,259.704 105.948 C 259.629 106.351,259.409 107.001,259.215 107.391 C 258.983 107.860,258.914 108.269,259.012 108.600 C 259.271 109.474,259.211 110.457,258.876 110.827 C 258.509 111.232,258.641 111.848,259.060 111.688 C 259.631 111.469,259.831 112.161,259.907 114.615 C 260.003 117.682,260.151 118.696,260.651 119.700 C 261.159 120.721,261.136 120.702,261.493 120.406 C 261.860 120.101,262.400 120.273,262.400 120.694 C 262.400 120.862,262.476 121.000,262.568 121.000 C 262.779 121.000,263.200 119.628,263.200 118.943 C 263.200 118.216,263.396 117.800,263.739 117.800 C 263.988 117.800,264.026 118.211,263.976 120.402 C 263.919 122.928,263.930 123.014,264.380 123.329 C 264.885 123.682,265.191 123.469,265.197 122.761 C 265.204 121.984,266.038 121.756,266.442 122.421 C 266.914 123.197,267.157 123.103,267.826 121.888 C 268.124 121.347,268.555 120.780,268.784 120.628 C 269.015 120.474,269.200 120.136,269.200 119.866 C 269.200 119.599,269.425 119.172,269.700 118.918 C 269.975 118.663,270.200 118.235,270.200 117.967 C 270.200 117.699,270.278 117.395,270.373 117.290 C 270.468 117.186,270.653 116.650,270.784 116.100 C 270.915 115.550,271.208 114.740,271.435 114.300 C 271.931 113.339,272.155 109.486,271.770 108.539 C 271.599 108.118,271.600 107.920,271.771 107.749 C 272.132 107.388,272.038 107.165,271.620 107.389 C 271.127 107.653,271.067 107.485,270.896 105.375 C 270.682 102.737,270.665 102.619,270.452 102.352 C 270.341 102.214,270.186 101.653,270.107 101.107 C 270.027 100.562,269.845 99.797,269.701 99.407 C 269.557 99.018,269.326 98.260,269.186 97.721 C 269.009 97.039,268.776 96.652,268.416 96.444 C 268.132 96.280,267.720 95.871,267.500 95.537 C 267.032 94.824,266.776 94.704,266.443 95.038 M257.658 102.831 C 257.532 103.089,257.279 103.795,257.096 104.400 C 256.914 105.005,256.592 105.882,256.382 106.348 C 256.172 106.814,256.000 107.400,256.000 107.649 C 256.000 107.899,255.908 108.417,255.795 108.801 C 255.460 109.946,254.956 114.209,255.065 114.982 C 255.223 116.104,255.577 117.603,255.746 117.863 C 255.831 117.994,255.957 116.570,256.027 114.700 C 256.096 112.830,256.248 110.715,256.363 110.000 C 256.479 109.285,256.660 108.070,256.766 107.300 C 256.872 106.530,257.198 105.195,257.490 104.332 C 258.012 102.795,258.111 101.907,257.658 102.831 M224.694 102.809 C 224.623 102.925,224.676 103.481,224.811 104.046 C 225.127 105.361,224.954 112.868,224.576 114.251 C 224.314 115.211,224.787 116.461,225.081 115.586 C 225.826 113.364,226.123 107.679,225.612 105.413 C 225.499 104.911,225.354 104.072,225.291 103.550 C 225.180 102.635,224.966 102.370,224.694 102.809 M208.930 104.550 C 208.604 105.730,208.584 106.800,208.888 106.800 C 209.139 106.800,209.200 106.545,209.200 105.500 C 209.200 104.200,209.112 103.891,208.930 104.550 M233.369 106.500 C 233.312 106.940,233.329 107.525,233.408 107.800 C 233.654 108.661,233.841 107.783,233.646 106.680 L 233.473 105.700 233.369 106.500 M272.524 106.961 C 272.369 107.211,272.578 107.800,272.821 107.800 C 273.047 107.800,273.047 107.384,272.822 107.029 C 272.714 106.858,272.603 106.833,272.524 106.961 M272.655 109.004 C 272.638 109.227,272.709 109.356,272.812 109.293 C 273.039 109.152,273.064 108.600,272.843 108.600 C 272.756 108.600,272.671 108.782,272.655 109.004 M247.462 110.100 C 247.463 110.760,247.500 111.006,247.545 110.646 C 247.589 110.287,247.589 109.747,247.543 109.446 C 247.497 109.146,247.461 109.440,247.462 110.100 M233.446 112.200 C 233.446 112.585,233.488 112.743,233.538 112.550 C 233.588 112.358,233.588 112.043,233.538 111.850 C 233.488 111.658,233.446 111.815,233.446 112.200 M141.692 113.358 C 136.230 116.425,132.350 122.371,134.350 124.609 C 136.332 126.828,143.400 118.397,143.400 113.815 C 143.400 112.869,142.832 112.718,141.692 113.358 M266.600 120.988 C 266.600 121.354,266.266 121.733,266.095 121.561 C 265.957 121.424,266.239 120.600,266.423 120.600 C 266.520 120.600,266.600 120.775,266.600 120.988 " stroke="none" fill="#ebebeb" fill-rule="evenodd"></path><path id="path2" d="M220.111 72.798 C 219.600 72.896,219.161 73.152,218.864 73.525 C 218.253 74.289,218.578 74.353,219.609 73.671 C 220.530 73.061,221.000 73.279,221.000 74.317 C 221.000 74.559,221.147 74.813,221.326 74.882 C 221.728 75.036,221.620 75.917,221.040 77.212 C 220.822 77.701,220.589 78.235,220.523 78.400 C 220.457 78.565,220.323 78.835,220.225 79.000 C 219.785 79.743,219.400 82.097,219.402 84.033 C 219.406 86.857,219.778 88.085,221.990 92.568 C 227.870 104.482,227.745 117.876,221.712 122.478 C 220.637 123.297,220.628 123.022,221.661 120.952 C 225.689 112.875,225.266 102.257,220.537 92.700 C 219.924 91.462,219.249 89.713,218.993 88.700 C 218.316 86.020,217.831 86.124,217.741 88.969 L 217.700 90.266 218.350 90.439 C 218.707 90.534,219.000 90.706,219.000 90.822 C 219.000 90.937,219.405 91.847,219.900 92.843 C 220.395 93.839,220.800 94.825,220.800 95.034 C 220.800 95.243,220.936 95.621,221.101 95.874 C 222.227 97.592,223.610 104.305,223.602 108.015 C 223.597 110.498,222.346 115.852,221.575 116.690 C 221.479 116.794,221.400 116.992,221.400 117.130 C 221.400 117.267,221.143 117.767,220.830 118.240 C 220.516 118.713,219.970 119.640,219.616 120.300 C 218.828 121.768,218.088 122.387,217.007 122.478 C 216.557 122.517,216.016 122.704,215.805 122.895 C 215.437 123.228,215.399 123.219,214.899 122.680 C 214.438 122.183,214.330 122.148,213.963 122.377 C 212.743 123.138,209.343 117.515,208.475 113.300 C 207.762 109.834,207.717 109.264,207.986 107.042 C 208.573 102.184,209.768 97.617,210.912 95.857 C 211.070 95.613,211.200 95.287,211.200 95.132 C 211.200 94.976,211.335 94.737,211.500 94.600 C 211.665 94.463,211.800 94.193,211.800 94.000 C 211.800 93.807,211.920 93.549,212.068 93.427 C 212.215 93.305,212.449 92.821,212.587 92.352 C 212.726 91.884,213.143 90.998,213.513 90.384 C 213.884 89.771,214.320 88.757,214.483 88.132 C 214.646 87.507,214.834 86.906,214.901 86.798 C 214.969 86.689,214.934 86.600,214.825 86.600 C 214.620 86.600,212.762 89.598,211.106 92.600 C 210.054 94.508,208.168 98.682,207.808 99.900 C 207.677 100.340,207.438 101.150,207.275 101.700 C 207.112 102.250,206.893 103.240,206.787 103.900 C 206.682 104.560,206.514 105.595,206.413 106.200 C 206.312 106.805,206.223 108.672,206.215 110.350 C 206.201 113.280,206.070 113.881,205.628 113.050 C 205.259 112.359,204.968 109.578,205.108 108.086 C 205.249 106.577,205.055 106.150,204.607 106.987 C 204.334 107.496,204.341 111.293,204.617 112.640 C 204.922 114.129,205.573 116.384,205.913 117.130 C 206.071 117.477,206.200 117.815,206.200 117.882 C 206.200 117.949,206.695 118.805,207.300 119.783 C 208.809 122.222,208.675 122.335,205.852 121.000 C 204.922 120.560,204.123 120.200,204.076 120.200 C 203.843 120.200,202.251 119.040,201.916 118.626 C 201.705 118.365,201.240 118.029,200.881 117.879 C 200.136 117.568,198.196 114.782,197.553 113.100 C 197.343 112.550,197.069 111.830,196.943 111.500 C 196.379 110.013,196.735 103.157,197.428 102.169 C 197.632 101.877,197.800 101.524,197.800 101.383 C 197.800 100.460,198.930 98.452,200.438 96.696 C 201.602 95.341,205.400 91.800,205.690 91.800 C 205.818 91.800,206.232 91.571,206.611 91.291 C 206.990 91.011,207.788 90.538,208.384 90.241 C 210.046 89.412,213.987 85.320,213.547 84.881 C 213.502 84.836,212.626 85.609,211.601 86.599 C 210.575 87.590,209.670 88.400,209.591 88.400 C 209.391 88.400,207.033 89.985,206.891 90.215 C 206.828 90.317,206.650 90.400,206.495 90.400 C 206.340 90.400,205.942 90.666,205.609 90.991 C 205.277 91.316,204.486 91.934,203.852 92.365 C 201.381 94.044,197.400 99.036,197.400 100.456 C 197.400 100.618,197.277 100.853,197.126 100.978 C 196.846 101.211,196.501 102.071,195.925 103.973 C 195.055 106.846,195.622 112.265,197.100 115.200 C 199.218 119.407,201.524 121.469,205.700 122.895 C 206.797 123.269,207.744 123.780,208.714 124.521 L 210.128 125.600 212.403 125.600 C 214.516 125.600,214.715 125.634,215.189 126.072 C 216.402 127.192,219.028 127.179,220.241 126.047 C 220.754 125.569,220.859 125.550,222.307 125.681 C 224.632 125.892,225.385 125.711,226.671 124.630 C 227.712 123.755,228.157 123.528,230.415 122.721 C 232.341 122.032,235.361 119.541,236.502 117.700 C 236.707 117.370,237.022 116.920,237.202 116.700 C 239.586 113.798,240.090 107.422,238.314 102.638 C 236.874 98.760,231.873 93.087,227.614 90.500 C 224.695 88.727,222.000 85.923,222.000 84.659 C 222.000 84.451,221.906 84.186,221.791 84.071 C 220.870 83.150,221.865 78.222,223.299 76.600 C 224.028 75.776,224.026 75.502,223.286 74.638 C 222.909 74.197,222.600 73.754,222.600 73.653 C 222.600 73.320,221.681 72.600,221.287 72.623 C 221.074 72.636,220.545 72.714,220.111 72.798 M263.346 75.707 C 261.847 77.162,261.811 77.262,262.453 78.222 C 265.438 82.690,263.486 87.716,257.575 90.782 C 255.202 92.012,251.548 94.147,250.389 94.979 C 249.347 95.728,245.200 99.774,245.200 100.043 C 245.200 100.144,244.986 100.513,244.723 100.863 C 239.436 107.926,241.822 119.233,249.501 123.500 C 250.546 124.080,251.903 125.065,252.740 125.850 L 254.179 127.200 255.994 127.200 L 257.809 127.200 258.659 127.983 C 260.280 129.478,262.032 129.758,263.680 128.785 C 264.242 128.454,264.575 128.388,265.153 128.495 C 267.949 129.011,269.630 128.825,270.929 127.855 C 271.292 127.583,272.306 127.214,273.329 126.980 C 276.262 126.309,278.267 125.543,278.816 124.881 C 278.944 124.726,279.139 124.600,279.248 124.600 C 279.614 124.600,282.620 121.744,283.019 121.018 C 283.235 120.623,283.660 119.895,283.962 119.400 C 284.823 117.989,285.554 116.006,285.843 114.300 C 285.937 113.750,286.092 112.850,286.190 112.300 C 286.372 111.271,286.259 109.255,285.999 108.900 C 285.919 108.790,285.790 108.207,285.714 107.605 C 285.637 107.003,285.503 106.418,285.415 106.305 C 285.327 106.192,285.204 105.766,285.141 105.357 C 285.015 104.535,283.457 101.312,282.358 99.600 C 281.560 98.358,277.617 94.323,276.100 93.197 C 275.075 92.435,273.556 90.870,272.512 89.499 C 271.802 88.566,271.647 88.811,272.173 90.036 C 272.607 91.049,274.421 92.961,276.503 94.600 C 278.197 95.933,280.316 98.081,280.745 98.900 C 280.917 99.230,281.361 99.854,281.729 100.286 C 282.098 100.718,282.400 101.183,282.400 101.319 C 282.400 101.455,282.468 101.597,282.550 101.633 C 282.807 101.748,283.600 102.970,283.600 103.252 C 283.600 103.399,283.693 103.613,283.808 103.728 C 284.601 104.521,285.354 109.670,285.003 111.900 C 284.899 112.560,284.720 113.730,284.604 114.500 C 284.308 116.475,282.779 119.514,282.219 119.242 C 282.154 119.210,282.071 119.370,282.036 119.596 C 281.942 120.195,279.890 122.334,279.257 122.493 C 278.960 122.568,278.508 122.838,278.252 123.094 C 277.444 123.901,271.758 125.838,271.362 125.442 C 271.143 125.223,272.473 123.200,272.835 123.200 C 273.309 123.200,275.320 119.365,275.982 117.200 C 276.234 116.375,276.572 115.347,276.733 114.915 C 276.954 114.321,276.991 113.690,276.888 112.315 C 276.700 109.832,276.484 109.605,276.326 111.727 C 276.107 114.679,275.897 115.644,275.195 116.945 C 274.378 118.459,274.297 118.421,274.596 116.665 C 275.731 110.000,275.346 104.522,273.299 98.200 C 271.886 93.838,268.935 87.067,269.464 89.400 C 269.526 89.675,269.687 90.530,269.822 91.300 C 269.956 92.070,270.171 92.835,270.299 93.000 C 270.427 93.165,270.700 94.020,270.906 94.900 C 271.112 95.780,271.398 96.678,271.541 96.895 C 271.683 97.111,271.800 97.576,271.800 97.928 C 271.800 98.279,271.896 98.599,272.013 98.638 C 273.098 98.999,274.136 110.562,273.294 112.900 C 273.136 113.340,273.005 113.958,273.003 114.273 C 272.985 117.755,267.092 126.303,265.428 125.264 C 265.169 125.102,264.984 125.117,264.702 125.323 C 264.155 125.723,263.691 125.664,263.350 125.150 C 263.128 124.816,262.856 124.700,262.300 124.700 C 260.998 124.700,260.527 123.878,258.581 118.200 C 258.260 117.265,257.911 116.348,257.805 116.163 C 257.420 115.489,257.948 108.065,258.473 106.780 C 258.626 106.406,258.812 105.676,258.887 105.157 C 259.192 103.036,262.400 96.368,264.040 94.443 C 264.348 94.082,264.600 93.711,264.600 93.620 C 264.600 93.529,264.783 93.221,265.007 92.936 C 265.423 92.407,266.000 92.399,266.000 92.921 C 266.000 93.075,266.090 93.200,266.200 93.200 C 266.310 93.200,266.400 92.718,266.400 92.130 C 266.400 91.541,266.500 90.774,266.621 90.425 C 266.977 89.404,266.687 88.259,266.187 88.712 C 265.974 88.904,265.800 89.143,265.800 89.242 C 265.800 90.108,263.869 93.784,262.303 95.900 C 260.112 98.859,257.732 104.658,257.213 108.300 C 257.087 109.180,256.898 110.509,256.792 111.254 C 256.321 114.569,256.949 120.315,258.070 122.944 C 258.934 124.972,258.710 125.395,257.537 123.950 C 255.002 120.827,253.775 114.489,254.867 110.166 C 255.043 109.470,255.333 108.270,255.513 107.500 C 256.187 104.604,258.514 99.153,260.175 96.578 C 260.486 96.095,261.437 94.636,262.287 93.336 C 265.414 88.554,266.322 84.701,265.225 80.874 C 264.340 77.787,264.270 77.202,264.740 76.829 C 265.320 76.368,265.715 75.079,265.394 74.692 C 264.998 74.216,264.759 74.335,263.346 75.707 M266.320 75.168 C 266.262 75.261,266.527 75.639,266.908 76.008 C 267.550 76.630,267.600 76.647,267.600 76.239 C 267.600 75.534,266.607 74.703,266.320 75.168 M215.519 87.850 C 214.551 89.961,214.551 89.959,215.078 90.304 C 215.945 90.872,216.303 90.482,216.608 88.635 C 217.009 86.206,216.455 85.806,215.519 87.850 M225.318 90.496 C 229.778 95.176,231.675 98.019,233.032 102.058 C 235.476 109.331,234.648 115.809,230.860 119.052 C 228.773 120.840,228.672 120.737,229.872 118.051 C 233.195 110.621,231.359 102.158,224.192 91.867 C 222.214 89.027,221.600 87.975,221.600 87.425 C 221.600 86.708,222.113 87.132,225.318 90.496 M262.800 89.119 C 262.800 89.594,262.135 90.469,260.003 92.800 C 253.872 99.504,251.732 102.952,250.077 108.800 C 249.330 111.440,249.284 115.708,249.977 118.000 C 250.227 118.825,250.521 119.801,250.630 120.169 C 250.946 121.231,250.647 121.179,249.535 119.975 C 248.083 118.403,247.709 117.843,247.349 116.700 C 244.753 108.457,249.700 97.914,259.300 91.231 C 259.960 90.772,260.935 90.037,261.467 89.598 C 262.520 88.730,262.800 88.629,262.800 89.119 M267.650 89.823 C 267.424 90.697,267.677 92.683,268.097 93.324 L 268.438 93.844 268.819 93.217 C 269.283 92.454,269.283 92.248,268.823 90.600 C 268.403 89.098,267.921 88.778,267.650 89.823 M211.092 123.870 C 211.295 124.018,211.397 124.243,211.319 124.370 C 211.015 124.860,209.600 124.468,209.600 123.893 C 209.600 123.517,210.589 123.501,211.092 123.870 M218.850 124.770 C 219.119 125.039,218.696 125.600,218.226 125.599 C 217.378 125.596,216.400 125.169,216.400 124.802 C 216.400 124.373,218.427 124.347,218.850 124.770 M262.975 127.111 C 263.241 127.366,262.693 127.771,261.924 127.886 C 260.859 128.046,260.200 127.772,260.200 127.170 C 260.200 126.791,262.589 126.741,262.975 127.111 M270.000 127.268 C 270.000 127.565,269.181 128.000,268.622 128.000 C 268.212 128.000,267.531 127.336,267.733 127.134 C 268.000 126.867,270.000 126.985,270.000 127.268 " stroke="none" fill="#927acc" fill-rule="evenodd"></path><path id="path3" d="M184.990 58.850 C 178.463 65.750,170.174 80.498,165.894 92.828 C 164.674 96.341,163.319 100.786,162.990 102.353 C 162.892 102.822,162.726 103.364,162.623 103.557 C 161.950 104.815,160.273 113.991,160.085 117.445 C 159.767 123.285,162.555 126.626,164.219 122.400 C 167.819 113.258,178.054 99.568,184.439 95.353 C 186.935 93.705,186.935 93.881,184.429 99.377 C 180.199 108.657,178.200 114.283,178.200 116.907 C 178.200 118.827,179.935 121.220,181.548 121.522 C 183.730 121.932,189.600 119.305,189.600 117.919 C 189.600 117.159,189.276 117.040,187.511 117.150 C 185.604 117.269,185.522 117.212,185.555 115.783 C 185.634 112.326,191.951 100.632,197.467 93.733 C 199.577 91.094,199.587 91.008,197.943 89.470 C 191.582 83.519,185.193 86.327,173.409 100.250 C 170.346 103.869,169.792 104.196,170.689 101.854 C 170.848 101.439,171.173 100.425,171.412 99.600 C 174.570 88.694,182.550 75.629,192.583 64.938 C 195.041 62.319,195.127 62.101,194.050 61.205 C 191.497 59.081,186.099 57.678,184.990 58.850 M188.023 59.000 C 190.177 59.400,194.200 61.470,194.200 62.178 C 194.200 62.355,193.632 63.085,192.939 63.800 C 188.180 68.710,181.943 76.681,179.105 81.481 C 175.084 88.282,169.130 102.744,169.719 104.279 C 170.018 105.056,170.415 104.687,174.320 100.011 C 181.198 91.775,187.536 86.800,191.150 86.800 C 193.032 86.800,195.966 88.216,197.875 90.045 C 199.013 91.135,199.015 91.063,197.808 92.491 C 192.347 98.949,185.424 111.515,185.063 115.623 C 184.891 117.573,185.264 117.902,187.441 117.721 C 190.371 117.476,189.066 118.800,184.700 120.500 C 181.673 121.679,179.556 120.783,178.865 118.032 C 178.477 116.487,180.069 110.375,181.999 106.000 C 183.348 102.941,185.706 97.796,186.339 96.532 C 189.414 90.385,181.504 95.715,174.514 104.500 C 172.035 107.616,168.449 112.985,166.834 116.000 C 165.717 118.085,164.556 120.487,164.193 121.466 C 163.954 122.108,163.486 122.944,163.151 123.325 L 162.544 124.017 162.084 123.585 C 160.310 121.919,160.098 117.195,161.497 110.502 C 162.487 105.758,162.823 104.245,162.982 103.800 C 163.081 103.525,163.270 102.850,163.403 102.300 C 163.986 99.880,167.640 89.156,168.581 87.100 C 168.783 86.660,169.017 86.076,169.103 85.802 C 170.296 81.964,178.902 67.002,182.177 63.072 C 182.464 62.726,183.363 61.624,184.174 60.622 C 185.810 58.600,185.827 58.593,188.023 59.000 M76.800 65.805 C 75.425 66.004,73.580 66.316,72.700 66.501 C 71.820 66.685,70.723 66.914,70.262 67.009 C 66.363 67.820,59.582 70.368,57.484 71.811 C 56.298 72.627,56.326 73.307,57.661 76.051 C 59.493 79.817,60.557 80.506,62.500 79.181 C 65.147 77.376,71.190 74.710,71.632 75.152 C 71.848 75.368,71.655 76.572,71.111 78.400 C 70.931 79.005,70.704 79.770,70.606 80.100 C 70.237 81.349,68.820 85.173,68.049 87.000 C 67.128 89.184,62.473 100.128,61.202 103.100 C 60.732 104.200,59.692 106.585,58.892 108.400 C 58.092 110.215,57.195 112.285,56.899 113.000 C 56.603 113.715,55.732 115.664,54.962 117.331 L 53.563 120.363 53.889 121.031 C 54.928 123.168,57.632 125.661,59.858 126.536 C 61.508 127.184,61.662 127.092,62.111 125.189 C 62.830 122.138,63.075 121.190,63.636 119.300 C 65.341 113.548,68.055 106.305,70.335 101.422 C 70.612 100.829,71.007 99.950,71.214 99.468 C 71.640 98.474,72.028 98.240,72.674 98.586 C 72.920 98.718,73.733 98.887,74.480 98.963 L 75.838 99.100 76.118 99.900 C 76.271 100.340,76.544 101.285,76.723 102.000 C 76.902 102.715,77.361 104.380,77.742 105.700 C 78.124 107.020,78.614 108.730,78.831 109.500 C 82.262 121.674,85.594 127.416,89.239 127.437 C 91.281 127.449,94.613 125.515,95.498 123.805 C 95.897 123.032,95.965 123.190,94.571 121.654 C 90.423 117.085,85.496 108.551,82.709 101.112 C 81.906 98.967,81.958 98.402,82.957 98.398 C 84.345 98.392,88.317 97.141,90.900 95.895 C 105.927 88.653,107.308 71.353,93.238 66.613 C 89.475 65.345,82.397 64.997,76.800 65.805 M88.676 66.113 C 109.479 69.327,105.905 93.478,84.000 97.711 C 80.828 98.324,80.827 98.116,84.064 105.545 C 86.554 111.261,90.340 117.510,93.625 121.329 C 95.494 123.502,95.459 123.285,94.155 124.569 C 91.343 127.337,88.764 127.761,86.554 125.820 C 85.950 125.290,83.800 122.249,83.800 121.925 C 83.800 121.872,83.532 121.249,83.205 120.542 C 81.910 117.744,80.285 112.888,78.274 105.800 C 78.009 104.865,77.649 103.605,77.476 103.000 C 77.302 102.395,77.045 101.440,76.905 100.879 C 76.401 98.865,76.262 98.713,74.798 98.594 C 73.947 98.524,73.259 98.335,72.800 98.045 C 71.745 97.377,71.680 97.428,70.516 99.850 C 67.468 106.193,63.689 116.476,62.412 121.900 C 62.133 123.083,61.613 125.095,61.405 125.800 C 61.290 126.187,61.136 126.291,60.724 126.262 C 58.352 126.091,53.277 120.831,54.384 119.690 C 54.579 119.489,56.007 116.378,57.361 113.200 C 57.807 112.155,58.637 110.265,59.207 109.000 C 59.776 107.735,60.722 105.530,61.308 104.100 C 61.895 102.670,62.554 101.134,62.774 100.688 C 62.993 100.241,63.549 98.936,64.009 97.788 C 64.469 96.639,65.048 95.250,65.295 94.700 C 65.543 94.150,66.218 92.575,66.797 91.200 C 67.375 89.825,67.912 88.610,67.990 88.500 C 68.299 88.065,70.944 80.801,71.340 79.300 C 71.398 79.080,71.666 78.156,71.936 77.247 C 72.548 75.183,72.506 74.524,71.756 74.437 C 70.730 74.319,65.720 76.556,62.500 78.571 C 61.100 79.447,60.850 79.541,60.500 79.322 C 59.383 78.625,56.742 73.560,57.062 72.727 C 57.208 72.346,61.198 70.411,63.702 69.507 C 71.870 66.558,82.344 65.134,88.676 66.113 M86.456 71.008 C 84.080 71.246,83.685 71.482,83.757 72.626 C 83.805 73.399,83.685 73.747,82.971 74.919 C 81.206 77.813,73.800 92.476,73.800 93.075 C 73.800 94.791,88.214 92.730,90.616 90.671 C 90.789 90.522,91.046 90.400,91.187 90.400 C 93.314 90.400,98.694 85.441,99.727 82.527 C 102.376 75.061,96.544 69.999,86.456 71.008 M92.400 71.697 C 98.123 72.674,100.735 76.175,99.508 81.224 C 97.918 87.764,90.036 92.093,77.659 93.222 C 74.401 93.520,74.229 93.448,74.789 92.028 C 75.352 90.600,81.184 79.047,82.830 76.100 C 83.933 74.124,84.284 73.309,84.291 72.706 L 84.300 71.913 85.500 71.682 C 87.216 71.352,90.420 71.359,92.400 71.697 M149.700 82.943 C 143.209 85.561,139.953 92.405,141.823 99.500 C 142.055 100.380,142.319 101.527,142.410 102.049 C 142.501 102.572,142.618 103.067,142.669 103.149 C 142.812 103.381,143.400 106.929,143.400 107.560 C 143.400 108.351,143.060 108.600,141.976 108.600 C 135.374 108.600,128.057 115.795,127.942 122.400 C 127.889 125.431,132.019 129.110,135.427 129.069 C 142.865 128.979,148.256 122.789,148.214 114.385 C 148.198 110.989,148.410 110.689,151.196 110.168 C 154.730 109.507,154.445 108.000,150.786 108.000 C 147.979 108.000,148.106 108.189,148.285 104.281 C 148.507 99.425,149.384 96.028,150.863 94.298 C 153.775 90.892,156.843 92.568,155.387 96.769 C 154.063 100.590,156.235 101.256,158.172 97.623 C 160.910 92.485,160.458 90.380,155.625 85.765 C 152.494 82.777,151.403 82.257,149.700 82.943 M153.333 84.370 C 154.851 85.504,157.432 88.148,158.687 89.856 C 159.817 91.394,159.385 94.584,157.641 97.567 C 156.047 100.294,154.817 99.969,155.817 97.085 C 158.055 90.624,151.496 90.098,149.050 96.542 C 148.187 98.814,147.600 102.770,147.600 106.310 C 147.600 108.286,147.765 108.400,150.633 108.400 C 151.906 108.400,152.829 108.485,152.905 108.609 C 153.144 108.994,152.578 109.376,151.435 109.602 C 148.059 110.268,147.716 110.605,147.773 113.197 C 147.955 121.401,144.413 126.666,137.600 128.319 C 134.181 129.148,131.255 127.842,129.038 124.495 C 125.962 119.851,133.459 110.274,141.000 109.213 C 143.806 108.818,143.690 108.895,143.764 107.396 C 143.834 105.965,143.702 105.192,142.589 100.500 C 140.944 93.568,141.729 89.987,145.731 86.178 C 149.056 83.013,150.921 82.570,153.333 84.370 M301.269 85.350 C 297.841 89.031,290.940 104.191,289.229 111.800 C 289.117 112.295,288.837 113.510,288.606 114.500 C 287.653 118.575,288.157 121.809,290.072 123.925 C 291.553 125.560,291.975 125.340,294.869 121.424 C 303.099 110.292,309.927 102.896,313.264 101.502 C 314.326 101.058,314.374 101.402,313.533 103.434 C 308.695 115.122,310.133 122.059,317.400 122.089 C 320.150 122.101,324.400 120.041,324.400 118.697 C 324.400 117.622,323.641 117.399,321.766 117.926 C 319.547 118.548,318.893 117.874,318.925 114.999 C 318.987 109.329,324.183 97.636,328.055 94.451 C 328.770 93.863,328.747 93.666,327.803 92.252 C 324.325 87.044,318.683 89.367,308.200 100.322 C 306.067 102.551,305.262 103.463,302.549 106.727 C 296.209 114.351,296.685 112.229,304.102 99.800 C 308.595 92.271,308.615 92.214,307.487 90.028 C 305.532 86.239,302.538 83.986,301.269 85.350 M303.211 85.768 C 304.774 86.766,306.554 89.004,307.491 91.152 L 307.863 92.004 307.302 93.152 C 306.707 94.370,305.013 97.356,304.085 98.821 C 303.573 99.630,301.890 102.531,299.629 106.500 C 296.229 112.468,296.757 114.414,300.543 109.873 C 307.049 102.073,312.711 96.109,315.700 93.908 C 316.580 93.260,317.580 92.526,317.921 92.277 C 321.792 89.453,324.500 89.258,326.709 91.645 C 328.251 93.310,328.264 93.511,326.919 94.890 C 323.602 98.287,319.310 107.773,318.498 113.500 C 317.891 117.787,319.218 119.423,322.393 118.303 C 323.742 117.826,324.438 118.371,323.550 119.209 C 320.433 122.153,314.764 122.406,312.633 119.697 C 311.325 118.034,310.838 113.268,311.668 110.249 C 312.147 108.503,313.440 104.783,314.180 103.022 C 317.366 95.433,305.038 106.412,295.717 119.465 C 292.167 124.437,291.692 124.822,290.550 123.650 C 288.632 121.682,288.096 118.756,288.967 115.000 C 289.920 110.894,291.374 105.843,291.992 104.500 C 292.230 103.982,294.095 99.422,294.282 98.901 C 295.667 95.038,301.336 85.200,302.176 85.200 C 302.256 85.200,302.722 85.455,303.211 85.768 M116.100 86.057 C 110.968 88.142,105.554 93.840,102.387 100.489 C 97.474 110.801,99.602 121.017,107.138 123.304 C 111.692 124.686,120.554 119.732,125.232 113.189 C 131.191 104.854,131.898 90.815,126.360 90.797 C 124.988 90.793,124.741 90.649,123.908 89.362 C 121.331 85.381,119.583 84.642,116.100 86.057 M120.529 86.185 C 121.117 86.544,122.709 88.404,123.795 90.000 C 124.056 90.385,124.294 90.732,124.323 90.771 C 124.351 90.809,125.078 90.963,125.937 91.111 C 128.554 91.563,129.375 92.945,129.551 97.190 C 130.011 108.304,122.981 118.584,112.346 122.349 C 102.444 125.854,96.697 113.431,102.558 101.194 C 107.092 91.728,116.599 83.788,120.529 86.185 M122.400 92.139 C 112.749 95.597,103.907 111.789,107.534 119.364 C 108.163 120.679,108.688 120.966,109.879 120.648 C 118.625 118.309,124.809 108.637,124.798 97.317 C 124.794 93.143,124.054 91.546,122.400 92.139 M123.780 92.963 C 125.292 95.787,124.077 104.618,121.452 109.900 C 118.773 115.289,112.922 120.200,109.182 120.200 C 107.600 120.200,106.640 115.134,107.571 111.700 C 108.806 107.146,110.945 102.873,113.704 99.445 C 117.130 95.189,122.963 91.437,123.780 92.963 M141.851 112.594 C 136.093 115.208,131.660 122.063,133.831 124.999 C 136.157 128.145,144.127 118.972,144.193 113.071 C 144.204 112.103,143.327 111.924,141.851 112.594 M143.459 114.071 C 143.286 119.061,136.092 127.189,134.155 124.583 C 132.629 122.529,134.897 118.211,139.269 114.847 C 142.359 112.469,143.522 112.254,143.459 114.071 " stroke="none" fill="#90b599" fill-rule="evenodd"></path><path id="path4" d="M186.050 58.343 C 186.353 58.389,186.847 58.389,187.150 58.343 C 187.453 58.297,187.205 58.260,186.600 58.260 C 185.995 58.260,185.748 58.297,186.050 58.343 M193.192 60.535 C 194.827 61.749,195.092 62.192,194.550 62.800 C 194.337 63.039,194.352 63.041,194.650 62.816 C 195.349 62.287,194.812 61.370,193.300 60.511 C 192.706 60.173,192.705 60.173,193.192 60.535 M182.572 61.550 C 181.997 62.245,181.753 62.600,181.852 62.600 C 181.907 62.600,182.193 62.285,182.486 61.900 C 183.031 61.186,183.097 60.916,182.572 61.550 M192.693 64.850 C 190.180 67.477,189.519 68.200,189.627 68.200 C 189.689 68.200,190.706 67.165,191.887 65.900 C 193.068 64.635,194.002 63.600,193.961 63.600 C 193.921 63.600,193.350 64.163,192.693 64.850 M180.000 65.000 C 179.765 65.330,179.618 65.600,179.673 65.600 C 179.728 65.600,179.965 65.330,180.200 65.000 C 180.435 64.670,180.582 64.400,180.527 64.400 C 180.472 64.400,180.235 64.670,180.000 65.000 M81.750 65.349 C 82.877 65.385,84.723 65.385,85.850 65.349 C 86.978 65.314,86.055 65.284,83.800 65.284 C 81.545 65.284,80.623 65.314,81.750 65.349 M75.250 65.938 C 75.442 65.988,75.758 65.988,75.950 65.938 C 76.142 65.888,75.985 65.846,75.600 65.846 C 75.215 65.846,75.058 65.888,75.250 65.938 M99.392 70.250 C 100.220 71.133,100.400 71.292,100.400 71.142 C 100.400 71.110,99.973 70.682,99.450 70.192 L 98.500 69.300 99.392 70.250 M187.381 70.841 C 186.183 72.257,185.596 73.086,186.490 72.100 C 187.460 71.030,188.454 69.800,188.348 69.800 C 188.301 69.800,187.866 70.268,187.381 70.841 M90.250 71.538 C 90.442 71.588,90.758 71.588,90.950 71.538 C 91.142 71.488,90.985 71.446,90.600 71.446 C 90.215 71.446,90.058 71.488,90.250 71.538 M92.850 71.938 C 93.043 71.988,93.358 71.988,93.550 71.938 C 93.743 71.888,93.585 71.846,93.200 71.846 C 92.815 71.846,92.658 71.888,92.850 71.938 M220.157 72.385 C 218.668 72.593,218.589 72.701,215.904 78.200 C 215.608 78.805,215.226 79.835,215.055 80.489 C 214.359 83.150,212.099 86.172,209.500 87.916 C 208.950 88.285,207.973 88.950,207.330 89.393 C 206.686 89.837,206.090 90.200,206.004 90.200 C 205.919 90.200,205.729 90.344,205.583 90.521 C 205.436 90.698,204.817 91.182,204.208 91.597 C 203.112 92.343,198.777 96.573,198.617 97.052 C 198.571 97.188,198.189 97.864,197.767 98.554 C 197.345 99.243,197.000 99.883,197.000 99.976 C 197.000 100.069,196.730 100.740,196.400 101.468 C 196.070 102.196,195.800 102.955,195.800 103.156 C 195.800 103.356,195.690 103.630,195.556 103.764 C 195.215 104.105,195.087 110.195,195.396 111.400 C 195.523 111.895,195.695 112.619,195.779 113.009 C 196.116 114.575,198.559 118.735,199.835 119.915 C 201.225 121.201,204.553 123.200,205.304 123.200 C 205.854 123.200,207.493 124.040,208.378 124.776 C 209.774 125.935,209.984 126.000,212.352 126.000 C 214.393 126.000,214.559 126.030,214.982 126.481 C 215.230 126.745,215.763 127.011,216.167 127.073 C 216.570 127.134,217.233 127.242,217.639 127.313 C 218.488 127.460,219.979 126.976,220.521 126.377 C 220.905 125.953,221.986 125.877,222.934 126.207 C 223.861 126.530,225.601 125.991,226.752 125.024 C 227.273 124.586,228.285 123.988,229.000 123.696 C 231.449 122.694,231.703 122.567,233.070 121.647 C 235.633 119.922,238.039 116.719,238.888 113.900 C 239.087 113.240,239.329 112.544,239.425 112.353 C 239.994 111.224,239.479 103.859,238.778 103.110 C 238.680 103.006,238.600 102.751,238.600 102.544 C 238.600 102.067,237.292 99.435,236.783 98.887 C 236.573 98.660,236.400 98.406,236.400 98.323 C 236.400 97.397,231.026 92.392,227.400 89.941 C 225.288 88.513,224.702 88.049,223.953 87.208 C 221.213 84.133,221.118 79.670,223.729 76.749 C 224.098 76.337,224.400 75.913,224.400 75.809 C 224.400 75.491,223.946 74.600,223.784 74.600 C 223.701 74.600,223.431 74.263,223.184 73.850 C 222.185 72.181,222.059 72.120,220.157 72.385 M222.137 73.035 C 222.392 73.274,222.600 73.552,222.600 73.653 C 222.600 73.754,222.909 74.197,223.286 74.638 C 224.026 75.502,224.028 75.776,223.299 76.600 C 221.865 78.222,220.870 83.150,221.791 84.071 C 221.906 84.186,222.000 84.451,222.000 84.659 C 222.000 85.923,224.695 88.727,227.614 90.500 C 231.873 93.087,236.874 98.760,238.314 102.638 C 240.090 107.422,239.586 113.798,237.202 116.700 C 237.022 116.920,236.707 117.370,236.502 117.700 C 235.361 119.541,232.341 122.032,230.415 122.721 C 228.157 123.528,227.712 123.755,226.671 124.630 C 225.385 125.711,224.632 125.892,222.307 125.681 C 220.859 125.550,220.754 125.569,220.241 126.047 C 219.028 127.179,216.402 127.192,215.189 126.072 C 214.715 125.634,214.516 125.600,212.403 125.600 L 210.128 125.600 208.714 124.521 C 207.744 123.780,206.797 123.269,205.700 122.895 C 201.524 121.469,199.218 119.407,197.100 115.200 C 195.622 112.265,195.055 106.846,195.925 103.973 C 196.501 102.071,196.846 101.211,197.126 100.978 C 197.277 100.853,197.400 100.618,197.400 100.456 C 197.400 99.036,201.381 94.044,203.852 92.365 C 204.486 91.934,205.277 91.316,205.609 90.991 C 205.942 90.666,206.340 90.400,206.495 90.400 C 206.650 90.400,206.828 90.317,206.891 90.215 C 207.033 89.985,209.391 88.400,209.591 88.400 C 209.670 88.400,210.575 87.590,211.601 86.599 C 212.626 85.609,213.502 84.836,213.547 84.881 C 213.987 85.320,210.046 89.412,208.384 90.241 C 207.788 90.538,206.990 91.011,206.611 91.291 C 206.232 91.571,205.818 91.800,205.690 91.800 C 205.400 91.800,201.602 95.341,200.438 96.696 C 198.930 98.452,197.800 100.460,197.800 101.383 C 197.800 101.524,197.632 101.877,197.428 102.169 C 196.735 103.157,196.379 110.013,196.943 111.500 C 197.069 111.830,197.343 112.550,197.553 113.100 C 198.196 114.782,200.136 117.568,200.881 117.879 C 201.240 118.029,201.705 118.365,201.916 118.626 C 202.251 119.040,203.843 120.200,204.076 120.200 C 204.123 120.200,204.922 120.560,205.852 121.000 C 208.675 122.335,208.809 122.222,207.300 119.783 C 206.695 118.805,206.200 117.949,206.200 117.882 C 206.200 117.815,206.071 117.477,205.913 117.130 C 205.573 116.384,204.922 114.129,204.617 112.640 C 204.341 111.293,204.334 107.496,204.607 106.987 C 205.055 106.150,205.249 106.577,205.108 108.086 C 204.968 109.578,205.259 112.359,205.628 113.050 C 206.070 113.881,206.201 113.280,206.215 110.350 C 206.223 108.672,206.312 106.805,206.413 106.200 C 206.514 105.595,206.682 104.560,206.787 103.900 C 206.893 103.240,207.112 102.250,207.275 101.700 C 207.438 101.150,207.677 100.340,207.808 99.900 C 208.168 98.682,210.054 94.508,211.106 92.600 C 212.762 89.598,214.620 86.600,214.825 86.600 C 214.934 86.600,214.969 86.689,214.901 86.798 C 214.834 86.906,214.646 87.507,214.483 88.132 C 214.320 88.757,213.884 89.771,213.513 90.384 C 213.143 90.998,212.726 91.884,212.587 92.352 C 212.449 92.821,212.215 93.305,212.068 93.427 C 211.920 93.549,211.800 93.807,211.800 94.000 C 211.800 94.193,211.665 94.463,211.500 94.600 C 211.335 94.737,211.200 94.976,211.200 95.132 C 211.200 95.287,211.070 95.613,210.912 95.857 C 209.768 97.617,208.573 102.184,207.986 107.042 C 207.717 109.264,207.762 109.834,208.475 113.300 C 209.343 117.515,212.743 123.138,213.963 122.377 C 214.330 122.148,214.438 122.183,214.899 122.680 C 215.399 123.219,215.437 123.228,215.805 122.895 C 216.016 122.704,216.557 122.517,217.007 122.478 C 218.088 122.387,218.828 121.768,219.616 120.300 C 219.970 119.640,220.516 118.713,220.830 118.240 C 221.143 117.767,221.400 117.267,221.400 117.130 C 221.400 116.992,221.479 116.794,221.575 116.690 C 222.346 115.852,223.597 110.498,223.602 108.015 C 223.610 104.305,222.227 97.592,221.101 95.874 C 220.936 95.621,220.800 95.243,220.800 95.034 C 220.800 94.825,220.395 93.839,219.900 92.843 C 219.405 91.847,219.000 90.937,219.000 90.822 C 219.000 90.706,218.707 90.534,218.350 90.439 L 217.700 90.266 217.741 88.969 C 217.831 86.124,218.316 86.020,218.993 88.700 C 219.249 89.713,219.924 91.462,220.537 92.700 C 225.266 102.257,225.689 112.875,221.661 120.952 C 220.628 123.022,220.637 123.297,221.712 122.478 C 227.745 117.876,227.870 104.482,221.990 92.568 C 219.778 88.085,219.406 86.857,219.402 84.033 C 219.400 82.097,219.785 79.743,220.225 79.000 C 220.323 78.835,220.457 78.565,220.523 78.400 C 220.589 78.235,220.822 77.701,221.040 77.212 C 221.620 75.917,221.728 75.036,221.326 74.882 C 221.147 74.813,221.000 74.559,221.000 74.317 C 221.000 73.279,220.530 73.061,219.609 73.671 C 218.578 74.353,218.253 74.289,218.864 73.525 C 219.161 73.152,219.600 72.896,220.111 72.798 C 221.401 72.550,221.652 72.579,222.137 73.035 M174.500 73.600 C 174.329 73.930,174.235 74.200,174.290 74.200 C 174.345 74.200,174.529 73.930,174.700 73.600 C 174.871 73.270,174.965 73.000,174.910 73.000 C 174.855 73.000,174.671 73.270,174.500 73.600 M264.059 74.430 C 263.707 74.648,263.369 74.978,263.309 75.163 C 263.248 75.348,262.895 75.696,262.525 75.935 C 261.678 76.482,261.471 77.216,261.924 78.064 C 263.329 80.698,263.301 80.605,263.287 82.600 C 263.265 85.964,261.474 88.401,257.561 90.397 C 248.378 95.081,244.483 98.880,242.056 105.524 C 241.601 106.771,241.539 112.956,241.967 114.400 C 242.703 116.882,244.487 119.842,246.331 121.641 C 247.292 122.579,250.558 124.800,250.977 124.800 C 251.039 124.800,251.702 125.408,252.450 126.150 L 253.810 127.500 255.755 127.567 C 257.643 127.631,257.721 127.653,258.400 128.295 C 259.926 129.736,262.107 130.059,263.962 129.119 C 264.836 128.677,264.963 128.661,265.578 128.919 C 267.133 129.573,269.951 129.171,271.149 128.125 C 271.554 127.770,272.621 127.455,274.900 127.014 C 275.340 126.929,275.970 126.743,276.300 126.602 C 276.630 126.460,277.215 126.208,277.600 126.041 C 277.985 125.875,278.578 125.527,278.919 125.269 C 279.259 125.011,279.625 124.800,279.733 124.800 C 280.048 124.800,283.252 121.351,283.833 120.385 C 287.224 114.752,287.411 108.780,284.394 102.496 C 282.707 98.985,281.108 97.131,275.083 91.700 C 274.350 91.040,273.535 90.185,273.271 89.800 C 273.006 89.415,272.528 88.740,272.207 88.300 C 271.163 86.868,270.522 85.362,270.377 84.000 C 270.301 83.285,270.131 82.295,269.998 81.800 C 269.865 81.305,269.624 80.405,269.463 79.800 C 269.163 78.677,269.081 78.448,268.520 77.170 C 268.344 76.768,268.200 76.289,268.200 76.104 C 268.200 75.605,267.100 74.600,266.554 74.600 C 266.291 74.600,265.902 74.468,265.688 74.306 C 265.180 73.922,264.837 73.948,264.059 74.430 M173.514 75.330 C 173.228 75.842,173.026 76.293,173.065 76.331 C 173.104 76.370,173.381 75.952,173.680 75.401 C 173.980 74.850,174.182 74.400,174.130 74.400 C 174.077 74.400,173.800 74.819,173.514 75.330 M265.394 74.692 C 265.715 75.079,265.320 76.368,264.740 76.829 C 264.270 77.202,264.340 77.787,265.225 80.874 C 266.322 84.701,265.414 88.554,262.287 93.336 C 261.437 94.636,260.486 96.095,260.175 96.578 C 258.514 99.153,256.187 104.604,255.513 107.500 C 255.333 108.270,255.043 109.470,254.867 110.166 C 253.775 114.489,255.002 120.827,257.537 123.950 C 258.710 125.395,258.934 124.972,258.070 122.944 C 256.949 120.315,256.321 114.569,256.792 111.254 C 256.898 110.509,257.087 109.180,257.213 108.300 C 257.732 104.658,260.112 98.859,262.303 95.900 C 263.869 93.784,265.800 90.108,265.800 89.242 C 265.800 89.143,265.974 88.904,266.187 88.712 C 266.687 88.259,266.977 89.404,266.621 90.425 C 266.500 90.774,266.400 91.541,266.400 92.130 C 266.400 92.718,266.310 93.200,266.200 93.200 C 266.090 93.200,266.000 93.075,266.000 92.921 C 266.000 92.399,265.423 92.407,265.007 92.936 C 264.783 93.221,264.600 93.529,264.600 93.620 C 264.600 93.711,264.348 94.082,264.040 94.443 C 262.400 96.368,259.192 103.036,258.887 105.157 C 258.812 105.676,258.626 106.406,258.473 106.780 C 257.948 108.065,257.420 115.489,257.805 116.163 C 257.911 116.348,258.260 117.265,258.581 118.200 C 260.527 123.878,260.998 124.700,262.300 124.700 C 262.856 124.700,263.128 124.816,263.350 125.150 C 263.691 125.664,264.155 125.723,264.702 125.323 C 264.984 125.117,265.169 125.102,265.428 125.264 C 267.092 126.303,272.985 117.755,273.003 114.273 C 273.005 113.958,273.136 113.340,273.294 112.900 C 274.136 110.562,273.098 98.999,272.013 98.638 C 271.896 98.599,271.800 98.279,271.800 97.928 C 271.800 97.576,271.683 97.111,271.541 96.895 C 271.398 96.678,271.112 95.780,270.906 94.900 C 270.700 94.020,270.427 93.165,270.299 93.000 C 270.171 92.835,269.956 92.070,269.822 91.300 C 269.687 90.530,269.526 89.675,269.464 89.400 C 268.935 87.067,271.886 93.838,273.299 98.200 C 275.346 104.522,275.731 110.000,274.596 116.665 C 274.297 118.421,274.378 118.459,275.195 116.945 C 275.897 115.644,276.107 114.679,276.326 111.727 C 276.484 109.605,276.700 109.832,276.888 112.315 C 276.991 113.690,276.954 114.321,276.733 114.915 C 276.572 115.347,276.234 116.375,275.982 117.200 C 275.320 119.365,273.309 123.200,272.835 123.200 C 272.473 123.200,271.143 125.223,271.362 125.442 C 271.758 125.838,277.444 123.901,278.252 123.094 C 278.508 122.838,278.960 122.568,279.257 122.493 C 279.890 122.334,281.942 120.195,282.036 119.596 C 282.071 119.370,282.154 119.210,282.219 119.242 C 282.779 119.514,284.308 116.475,284.604 114.500 C 284.720 113.730,284.899 112.560,285.003 111.900 C 285.354 109.670,284.601 104.521,283.808 103.728 C 283.693 103.613,283.600 103.399,283.600 103.252 C 283.600 102.970,282.807 101.748,282.550 101.633 C 282.468 101.597,282.400 101.455,282.400 101.319 C 282.400 101.183,282.098 100.718,281.729 100.286 C 281.361 99.854,280.917 99.230,280.745 98.900 C 280.316 98.081,278.197 95.933,276.503 94.600 C 274.421 92.961,272.607 91.049,272.173 90.036 C 271.647 88.811,271.802 88.566,272.512 89.499 C 273.556 90.870,275.075 92.435,276.100 93.197 C 277.617 94.323,281.560 98.358,282.358 99.600 C 283.457 101.312,285.015 104.535,285.141 105.357 C 285.204 105.766,285.327 106.192,285.415 106.305 C 285.503 106.418,285.637 107.003,285.714 107.605 C 285.790 108.207,285.919 108.790,285.999 108.900 C 286.259 109.255,286.372 111.271,286.190 112.300 C 286.092 112.850,285.937 113.750,285.843 114.300 C 285.554 116.006,284.823 117.989,283.962 119.400 C 283.660 119.895,283.235 120.623,283.019 121.018 C 282.620 121.744,279.614 124.600,279.248 124.600 C 279.139 124.600,278.944 124.726,278.816 124.881 C 278.267 125.543,276.262 126.309,273.329 126.980 C 272.306 127.214,271.292 127.583,270.929 127.855 C 269.630 128.825,267.949 129.011,265.153 128.495 C 264.575 128.388,264.242 128.454,263.680 128.785 C 262.032 129.758,260.280 129.478,258.659 127.983 L 257.809 127.200 255.994 127.200 L 254.179 127.200 252.740 125.850 C 251.903 125.065,250.546 124.080,249.501 123.500 C 241.822 119.233,239.436 107.926,244.723 100.863 C 244.986 100.513,245.200 100.144,245.200 100.043 C 245.200 99.774,249.347 95.728,250.389 94.979 C 251.548 94.147,255.202 92.012,257.575 90.782 C 263.486 87.716,265.438 82.690,262.453 78.222 C 261.811 77.262,261.847 77.162,263.346 75.707 C 264.759 74.335,264.998 74.216,265.394 74.692 M71.238 75.124 C 71.423 75.179,71.618 75.422,71.670 75.662 C 71.750 76.029,71.760 76.019,71.733 75.602 C 71.711 75.264,71.572 75.091,71.300 75.064 C 71.012 75.034,70.995 75.051,71.238 75.124 M267.200 75.400 C 267.420 75.620,267.600 75.998,267.600 76.239 C 267.600 76.647,267.550 76.630,266.908 76.008 C 266.268 75.387,266.154 75.000,266.612 75.000 C 266.715 75.000,266.980 75.180,267.200 75.400 M69.300 75.707 C 68.800 75.948,68.783 75.976,69.200 75.874 C 69.767 75.735,70.404 75.411,70.100 75.415 C 69.990 75.417,69.630 75.548,69.300 75.707 M218.419 76.861 C 218.298 76.982,218.200 77.310,218.200 77.591 C 218.200 78.222,217.489 80.752,217.221 81.075 C 217.113 81.205,216.949 81.758,216.858 82.304 C 216.735 83.034,216.593 83.315,216.319 83.368 C 216.001 83.429,215.967 83.356,216.087 82.870 C 216.164 82.556,216.298 81.752,216.385 81.082 C 216.527 79.976,217.081 78.532,217.873 77.200 C 218.037 76.925,218.236 76.520,218.316 76.300 C 218.453 75.923,218.467 75.922,218.550 76.271 C 218.598 76.475,218.539 76.741,218.419 76.861 M99.667 79.000 C 99.667 79.825,99.703 80.163,99.746 79.750 C 99.789 79.338,99.789 78.663,99.746 78.250 C 99.703 77.838,99.667 78.175,99.667 79.000 M103.057 79.100 C 103.059 79.650,103.098 79.851,103.144 79.547 C 103.189 79.243,103.188 78.793,103.141 78.547 C 103.093 78.301,103.056 78.550,103.057 79.100 M59.691 79.350 C 60.436 80.151,61.222 80.449,61.482 80.029 C 61.540 79.935,61.359 79.902,61.079 79.955 C 60.689 80.030,60.376 79.871,59.735 79.276 L 58.900 78.500 59.691 79.350 M268.226 80.250 C 268.572 80.926,268.679 81.557,268.751 83.330 C 268.850 85.769,268.545 87.131,268.311 85.292 C 268.242 84.746,268.057 83.805,267.901 83.200 C 267.521 81.724,267.331 79.400,267.590 79.400 C 267.700 79.400,267.986 79.783,268.226 80.250 M70.232 80.709 C 69.897 81.444,69.961 81.601,70.324 80.932 C 70.493 80.620,70.594 80.327,70.548 80.281 C 70.502 80.236,70.360 80.428,70.232 80.709 M218.417 83.263 C 218.261 83.419,218.200 83.337,218.200 82.973 C 218.200 82.314,218.480 82.032,218.567 82.604 C 218.604 82.847,218.536 83.144,218.417 83.263 M156.100 86.200 C 156.975 87.080,157.736 87.800,157.791 87.800 C 157.846 87.800,157.175 87.080,156.300 86.200 C 155.425 85.320,154.664 84.600,154.609 84.600 C 154.554 84.600,155.225 85.320,156.100 86.200 M301.576 84.801 C 301.398 84.906,301.100 85.240,300.915 85.545 L 300.578 86.100 301.039 85.561 C 301.293 85.265,301.725 84.933,302.000 84.824 C 302.275 84.715,302.365 84.622,302.200 84.619 C 302.035 84.615,301.754 84.697,301.576 84.801 M214.600 85.272 C 214.600 85.422,214.358 85.894,214.062 86.322 C 212.421 88.697,207.600 98.359,207.600 99.275 C 207.600 100.039,206.362 102.000,205.879 102.000 C 205.422 102.000,205.372 101.938,205.482 101.500 C 205.573 101.140,205.527 101.000,205.319 101.000 C 204.987 101.000,204.623 101.980,204.576 103.000 C 204.558 103.385,204.385 104.060,204.191 104.500 C 203.103 106.967,203.695 115.884,205.130 118.659 C 205.714 119.788,204.852 119.464,203.437 118.023 C 203.032 117.610,202.549 117.216,202.363 117.147 C 201.887 116.971,200.812 115.243,199.267 112.169 C 199.120 111.877,199.000 111.445,199.000 111.209 C 199.000 110.973,198.858 110.506,198.685 110.172 C 198.179 109.192,198.667 104.082,199.409 102.601 C 199.492 102.435,199.793 101.670,200.080 100.900 C 201.196 97.894,207.000 91.101,207.000 92.800 C 207.000 93.747,212.046 88.869,212.999 87.001 C 213.642 85.742,214.600 84.707,214.600 85.272 M96.492 86.250 L 95.500 87.300 96.550 86.308 C 97.127 85.762,97.600 85.289,97.600 85.258 C 97.600 85.108,97.415 85.274,96.492 86.250 M119.100 85.381 C 119.760 85.447,120.435 85.575,120.600 85.666 C 120.765 85.756,120.725 85.688,120.512 85.515 C 120.249 85.302,119.763 85.210,119.012 85.230 L 117.900 85.261 119.100 85.381 M144.333 86.780 C 143.366 87.901,142.470 89.200,142.664 89.200 C 142.721 89.200,142.974 88.863,143.227 88.450 C 143.480 88.038,144.086 87.271,144.574 86.747 C 145.062 86.223,145.424 85.764,145.380 85.727 C 145.336 85.690,144.865 86.164,144.333 86.780 M121.792 86.650 C 122.620 87.533,122.800 87.692,122.800 87.542 C 122.800 87.510,122.373 87.082,121.850 86.592 L 120.900 85.700 121.792 86.650 M305.298 86.850 C 305.836 87.483,306.312 88.000,306.355 88.000 C 306.492 88.000,305.265 86.518,304.782 86.100 C 304.528 85.880,304.760 86.218,305.298 86.850 M216.667 86.985 C 216.781 87.555,216.564 89.365,216.300 90.035 C 216.104 90.536,215.601 90.647,215.078 90.304 C 214.551 89.959,214.551 89.961,215.519 87.850 C 216.242 86.272,216.487 86.087,216.667 86.985 M221.600 87.425 C 221.600 87.975,222.214 89.027,224.192 91.867 C 231.359 102.158,233.195 110.621,229.872 118.051 C 228.672 120.737,228.773 120.840,230.860 119.052 C 236.067 114.594,235.492 103.645,229.622 95.474 C 228.294 93.625,222.726 87.589,221.982 87.190 C 221.660 87.018,221.600 87.055,221.600 87.425 M94.793 87.656 C 94.515 87.900,94.065 88.261,93.793 88.459 C 93.319 88.804,93.325 88.804,93.962 88.459 C 94.326 88.261,94.814 87.898,95.047 87.650 C 95.585 87.077,95.451 87.081,94.793 87.656 M67.432 88.109 C 67.097 88.844,67.161 89.001,67.524 88.332 C 67.693 88.020,67.794 87.727,67.748 87.681 C 67.702 87.636,67.560 87.828,67.432 88.109 M99.641 88.951 C 98.870 89.983,98.857 90.018,99.509 89.300 C 100.160 88.583,100.708 87.799,100.557 87.801 C 100.526 87.801,100.114 88.319,99.641 88.951 M271.110 89.350 C 272.861 93.028,276.099 97.307,276.597 96.600 C 276.844 96.249,279.098 98.536,279.325 99.369 C 279.446 99.812,280.528 101.544,281.094 102.200 C 281.236 102.365,281.418 102.725,281.499 103.000 C 281.579 103.275,281.756 103.770,281.893 104.100 C 282.987 106.746,283.492 112.925,282.687 113.814 C 282.529 113.989,282.400 114.457,282.400 114.854 C 282.400 115.251,282.310 115.632,282.200 115.700 C 282.090 115.768,282.000 116.037,282.000 116.298 C 282.000 116.558,281.843 116.929,281.650 117.121 C 281.457 117.313,281.030 117.886,280.700 118.395 C 279.809 119.767,278.185 121.578,277.713 121.725 C 277.486 121.796,277.255 121.913,277.200 121.984 C 276.983 122.268,275.116 123.400,274.866 123.400 C 274.451 123.400,274.545 123.067,275.287 121.907 C 275.665 121.316,276.078 120.443,276.206 119.966 C 276.333 119.490,276.519 118.944,276.619 118.753 C 276.718 118.562,276.800 118.148,276.800 117.834 C 276.800 117.520,276.972 116.763,277.182 116.153 C 277.860 114.181,278.192 108.479,277.674 107.688 C 277.446 107.341,277.379 106.925,277.449 106.300 C 277.519 105.684,277.465 105.337,277.275 105.179 C 277.050 104.993,277.000 105.083,277.000 105.676 C 277.000 106.921,275.736 106.050,275.477 104.626 C 274.737 100.574,272.550 93.907,270.572 89.675 C 270.258 89.002,270.000 88.304,270.000 88.125 C 270.000 87.422,270.405 87.869,271.110 89.350 M198.177 89.633 C 199.042 90.544,199.234 90.866,199.155 91.277 C 199.102 91.558,199.135 91.740,199.229 91.682 C 199.694 91.395,199.332 90.622,198.250 89.593 L 197.100 88.500 198.177 89.633 M261.467 89.598 C 260.935 90.037,259.960 90.772,259.300 91.231 C 249.700 97.914,244.753 108.457,247.349 116.700 C 247.709 117.843,248.083 118.403,249.535 119.975 C 250.647 121.179,250.946 121.231,250.630 120.169 C 250.521 119.801,250.227 118.825,249.977 118.000 C 249.284 115.708,249.330 111.440,250.077 108.800 C 251.732 102.952,253.872 99.504,260.003 92.800 C 262.135 90.469,262.800 89.594,262.800 89.119 C 262.800 88.629,262.520 88.730,261.467 89.598 M268.823 90.600 C 269.283 92.248,269.283 92.454,268.819 93.217 L 268.438 93.844 268.097 93.324 C 267.677 92.683,267.424 90.697,267.650 89.823 C 267.921 88.778,268.403 89.098,268.823 90.600 M225.429 91.450 C 226.998 93.205,229.218 96.128,230.108 97.611 C 230.222 97.802,230.435 98.101,230.580 98.276 C 230.726 98.451,230.793 98.730,230.729 98.896 C 230.666 99.062,230.771 99.355,230.963 99.549 C 231.370 99.958,231.875 101.317,231.716 101.574 C 231.656 101.671,231.776 102.459,231.982 103.325 C 233.284 108.793,233.135 114.521,231.652 116.000 C 231.323 116.328,231.321 116.356,231.787 113.400 C 232.751 107.280,230.758 101.028,225.030 92.206 C 224.353 91.164,223.800 90.241,223.800 90.156 C 223.800 89.766,224.227 90.105,225.429 91.450 M75.232 90.909 C 74.897 91.644,74.961 91.801,75.324 91.132 C 75.493 90.820,75.594 90.527,75.548 90.481 C 75.502 90.436,75.360 90.628,75.232 90.909 M108.194 91.750 L 106.900 93.100 108.250 91.806 C 108.993 91.094,109.600 90.486,109.600 90.456 C 109.600 90.309,109.396 90.496,108.194 91.750 M97.491 91.450 L 96.700 92.300 97.550 91.509 C 98.340 90.774,98.492 90.600,98.341 90.600 C 98.308 90.600,97.925 90.983,97.491 91.450 M125.650 90.743 C 125.953 90.789,126.447 90.789,126.750 90.743 C 127.053 90.697,126.805 90.660,126.200 90.660 C 125.595 90.660,125.347 90.697,125.650 90.743 M297.300 91.200 C 297.129 91.530,297.035 91.800,297.090 91.800 C 297.145 91.800,297.329 91.530,297.500 91.200 C 297.671 90.870,297.765 90.600,297.710 90.600 C 297.655 90.600,297.471 90.870,297.300 91.200 M174.632 91.309 C 174.297 92.044,174.361 92.201,174.724 91.532 C 174.893 91.220,174.994 90.927,174.948 90.881 C 174.902 90.836,174.760 91.028,174.632 91.309 M221.212 92.167 C 221.755 93.380,221.695 93.446,221.000 92.400 C 220.671 91.905,220.403 91.320,220.404 91.100 C 220.407 90.592,220.652 90.915,221.212 92.167 M260.255 91.759 C 260.043 91.947,259.116 93.000,258.194 94.100 C 257.273 95.200,256.465 96.145,256.399 96.200 C 252.521 99.437,249.015 108.191,249.004 114.667 C 249.000 116.675,248.676 117.282,248.380 115.835 C 247.765 112.824,248.221 109.704,250.170 103.596 C 250.421 102.809,250.225 102.527,249.790 103.049 C 249.583 103.297,249.410 103.418,249.407 103.319 C 249.397 103.044,250.424 101.758,250.552 101.885 C 250.741 102.074,251.209 101.566,251.512 100.841 C 251.875 99.972,251.873 99.891,251.495 100.204 C 251.328 100.343,251.146 100.413,251.092 100.359 C 250.935 100.202,251.800 99.203,252.050 99.254 C 252.174 99.279,252.314 99.120,252.359 98.900 C 252.545 98.004,260.383 90.649,260.566 91.198 C 260.606 91.319,260.466 91.572,260.255 91.759 M308.246 92.000 C 308.246 92.385,308.288 92.543,308.338 92.350 C 308.388 92.158,308.388 91.843,308.338 91.650 C 308.288 91.458,308.246 91.615,308.246 92.000 M179.196 93.750 L 177.100 95.900 179.250 93.804 C 181.247 91.856,181.491 91.600,181.346 91.600 C 181.317 91.600,180.349 92.567,179.196 93.750 M174.032 92.709 C 173.697 93.444,173.761 93.601,174.124 92.932 C 174.293 92.620,174.394 92.327,174.348 92.281 C 174.302 92.236,174.160 92.428,174.032 92.709 M217.167 92.550 C 217.266 92.743,217.411 93.254,217.490 93.686 C 217.648 94.564,217.991 94.337,217.997 93.350 C 218.004 92.120,218.574 92.800,219.191 94.773 C 219.531 95.858,219.982 96.903,220.195 97.095 C 220.475 97.348,220.549 97.603,220.466 98.018 C 220.371 98.497,220.433 98.623,220.849 98.780 C 221.419 98.997,221.600 99.361,221.600 100.291 C 221.600 100.653,221.744 101.344,221.920 101.825 C 222.096 102.306,222.277 103.510,222.323 104.500 C 222.368 105.490,222.414 106.390,222.425 106.500 C 222.482 107.104,222.218 110.810,222.104 110.993 C 222.030 111.113,221.729 111.186,221.435 111.155 C 220.773 111.087,220.535 112.665,221.081 113.499 C 221.357 113.921,221.353 114.008,221.030 114.432 C 220.630 114.958,219.803 116.834,219.794 117.237 C 219.780 117.795,218.788 118.298,218.661 117.811 C 218.512 117.241,218.167 117.387,217.947 118.113 C 217.566 119.366,217.595 119.332,217.286 118.912 C 217.089 118.645,216.997 117.956,216.992 116.712 C 216.987 115.715,216.867 114.405,216.726 113.800 L 216.468 112.700 216.336 114.100 C 216.263 114.870,216.201 116.445,216.199 117.600 C 216.192 121.149,215.098 122.109,214.396 119.183 C 214.022 117.623,213.571 117.648,213.317 119.241 C 213.160 120.222,212.556 120.244,212.400 119.274 C 212.339 118.894,212.039 118.434,211.628 118.090 C 211.017 117.578,210.965 117.451,211.052 116.674 C 211.124 116.037,211.044 115.654,210.735 115.161 C 210.508 114.797,210.300 114.213,210.273 113.862 C 210.246 113.512,210.072 112.792,209.886 112.262 C 208.947 109.595,209.283 106.441,210.827 103.422 C 211.252 102.591,211.600 101.636,211.600 101.300 C 211.600 100.964,211.745 100.482,211.923 100.228 C 212.153 99.900,212.210 99.543,212.122 98.991 C 212.014 98.318,212.074 98.138,212.576 97.624 C 213.093 97.095,213.701 95.984,214.372 94.339 C 214.504 94.018,214.843 93.694,215.169 93.581 C 215.482 93.472,215.934 93.117,216.175 92.791 C 216.677 92.113,216.911 92.056,217.167 92.550 M328.206 92.865 C 328.463 93.301,328.587 93.746,328.509 93.952 C 328.406 94.222,328.430 94.247,328.617 94.061 C 328.895 93.785,328.570 92.790,328.063 92.370 C 327.897 92.232,327.959 92.447,328.206 92.865 M153.600 92.477 C 153.600 92.520,153.865 92.594,154.189 92.641 C 154.514 92.689,154.733 92.654,154.678 92.564 C 154.579 92.403,153.600 92.325,153.600 92.477 M79.653 92.944 C 79.957 92.989,80.407 92.988,80.653 92.941 C 80.899 92.893,80.650 92.856,80.100 92.857 C 79.550 92.859,79.349 92.898,79.653 92.944 M307.690 93.419 C 307.514 93.759,307.406 94.073,307.449 94.116 C 307.493 94.159,307.678 93.881,307.861 93.497 C 308.272 92.635,308.130 92.569,307.690 93.419 M75.250 93.343 C 75.552 93.389,76.047 93.389,76.350 93.343 C 76.653 93.297,76.405 93.260,75.800 93.260 C 75.195 93.260,74.948 93.297,75.250 93.343 M151.189 93.950 L 150.500 94.700 151.250 94.011 C 151.948 93.369,152.092 93.200,151.939 93.200 C 151.906 93.200,151.568 93.538,151.189 93.950 M94.346 93.907 C 93.936 94.186,93.600 94.457,93.600 94.510 C 93.600 94.563,93.960 94.367,94.400 94.076 C 95.099 93.614,95.335 93.400,95.146 93.400 C 95.117 93.400,94.757 93.628,94.346 93.907 M313.989 94.550 L 313.300 95.300 314.050 94.611 C 314.463 94.232,314.800 93.894,314.800 93.861 C 314.800 93.708,314.631 93.852,313.989 94.550 M141.057 94.900 C 141.059 95.450,141.098 95.651,141.144 95.347 C 141.189 95.043,141.188 94.593,141.141 94.347 C 141.093 94.101,141.056 94.350,141.057 94.900 M267.500 95.537 C 267.720 95.871,268.132 96.280,268.416 96.444 C 268.776 96.652,269.009 97.039,269.186 97.721 C 269.326 98.260,269.557 99.018,269.701 99.407 C 269.845 99.797,270.027 100.562,270.107 101.107 C 270.186 101.653,270.341 102.214,270.452 102.352 C 270.665 102.619,270.682 102.737,270.896 105.375 C 271.067 107.485,271.127 107.653,271.620 107.389 C 272.038 107.165,272.132 107.388,271.771 107.749 C 271.600 107.920,271.599 108.118,271.770 108.539 C 272.155 109.486,271.931 113.339,271.435 114.300 C 271.208 114.740,270.915 115.550,270.784 116.100 C 270.653 116.650,270.468 117.186,270.373 117.290 C 270.278 117.395,270.200 117.699,270.200 117.967 C 270.200 118.235,269.975 118.663,269.700 118.918 C 269.425 119.172,269.200 119.599,269.200 119.866 C 269.200 120.136,269.015 120.474,268.784 120.628 C 268.555 120.780,268.124 121.347,267.826 121.888 C 267.157 123.103,266.914 123.197,266.442 122.421 C 266.038 121.756,265.204 121.984,265.197 122.761 C 265.191 123.469,264.885 123.682,264.380 123.329 C 263.930 123.014,263.919 122.928,263.976 120.402 C 264.026 118.211,263.988 117.800,263.739 117.800 C 263.396 117.800,263.200 118.216,263.200 118.943 C 263.200 119.628,262.779 121.000,262.568 121.000 C 262.476 121.000,262.400 120.862,262.400 120.694 C 262.400 120.273,261.860 120.101,261.493 120.406 C 261.136 120.702,261.159 120.721,260.651 119.700 C 260.151 118.696,260.003 117.682,259.907 114.615 C 259.831 112.161,259.631 111.469,259.060 111.688 C 258.641 111.848,258.509 111.232,258.876 110.827 C 259.211 110.457,259.271 109.474,259.012 108.600 C 258.914 108.269,258.983 107.860,259.215 107.391 C 259.409 107.001,259.629 106.351,259.704 105.948 C 259.780 105.544,259.967 105.110,260.121 104.983 C 260.274 104.855,260.400 104.495,260.400 104.182 C 260.400 103.232,261.946 99.925,262.816 99.014 C 263.130 98.686,263.753 97.690,264.200 96.801 C 265.079 95.052,265.400 94.921,265.400 96.312 C 265.400 96.935,265.483 97.200,265.677 97.200 C 265.975 97.200,266.193 96.609,266.197 95.790 C 266.203 94.700,266.865 94.571,267.500 95.537 M195.887 95.734 C 195.579 96.138,195.430 96.405,195.554 96.328 C 195.810 96.170,196.676 95.000,196.537 95.000 C 196.488 95.000,196.195 95.330,195.887 95.734 M311.695 96.650 L 310.300 98.100 311.750 96.705 C 313.097 95.410,313.291 95.200,313.145 95.200 C 313.114 95.200,312.462 95.853,311.695 96.650 M130.078 98.000 C 130.078 99.485,130.110 100.093,130.148 99.350 C 130.187 98.608,130.187 97.392,130.148 96.650 C 130.110 95.908,130.078 96.515,130.078 98.000 M115.393 97.550 L 114.300 98.700 115.450 97.607 C 116.083 97.006,116.600 96.488,116.600 96.457 C 116.600 96.308,116.409 96.482,115.393 97.550 M175.891 97.250 L 175.100 98.100 175.950 97.309 C 176.740 96.574,176.892 96.400,176.741 96.400 C 176.708 96.400,176.325 96.783,175.891 97.250 M182.287 97.050 L 181.700 97.700 182.350 97.113 C 182.708 96.790,183.000 96.497,183.000 96.463 C 183.000 96.308,182.835 96.444,182.287 97.050 M141.250 97.300 C 141.253 97.740,141.294 97.896,141.341 97.648 C 141.389 97.399,141.387 97.039,141.337 96.848 C 141.287 96.656,141.248 96.860,141.250 97.300 M63.232 97.909 C 62.897 98.644,62.961 98.801,63.324 98.132 C 63.493 97.820,63.594 97.527,63.548 97.481 C 63.502 97.436,63.360 97.628,63.232 97.909 M124.246 98.400 C 124.246 98.785,124.288 98.942,124.338 98.750 C 124.388 98.558,124.388 98.243,124.338 98.050 C 124.288 97.858,124.246 98.015,124.246 98.400 M179.496 99.650 L 177.700 101.500 179.550 99.704 C 181.268 98.036,181.491 97.800,181.346 97.800 C 181.316 97.800,180.484 98.633,179.496 99.650 M184.632 98.509 C 184.297 99.244,184.361 99.401,184.724 98.732 C 184.893 98.420,184.994 98.127,184.948 98.081 C 184.902 98.036,184.760 98.228,184.632 98.509 M174.287 99.050 L 173.700 99.700 174.350 99.113 C 174.708 98.790,175.000 98.497,175.000 98.463 C 175.000 98.308,174.835 98.444,174.287 99.050 M308.196 100.150 L 306.500 101.900 308.250 100.204 C 309.875 98.630,310.091 98.400,309.946 98.400 C 309.916 98.400,309.128 99.188,308.196 100.150 M102.590 99.619 C 102.360 100.070,102.206 100.473,102.248 100.515 C 102.290 100.557,102.520 100.188,102.760 99.696 C 103.305 98.574,103.157 98.507,102.590 99.619 M156.847 99.406 C 156.488 99.733,156.268 100.000,156.359 100.000 C 156.451 100.000,156.784 99.730,157.100 99.400 C 157.835 98.633,157.693 98.636,156.847 99.406 M304.300 99.400 C 304.129 99.730,304.035 100.000,304.090 100.000 C 304.145 100.000,304.329 99.730,304.500 99.400 C 304.671 99.070,304.765 98.800,304.710 98.800 C 304.655 98.800,304.471 99.070,304.300 99.400 M324.300 99.400 C 324.129 99.730,324.035 100.000,324.090 100.000 C 324.145 100.000,324.329 99.730,324.500 99.400 C 324.671 99.070,324.765 98.800,324.710 98.800 C 324.655 98.800,324.471 99.070,324.300 99.400 M154.806 99.326 C 154.797 99.656,155.345 100.054,155.643 99.935 C 155.809 99.868,155.779 99.826,155.560 99.816 C 155.373 99.807,155.128 99.642,155.016 99.450 C 154.904 99.258,154.809 99.201,154.806 99.326 M62.136 100.509 C 61.666 101.495,61.732 101.662,62.223 100.731 C 62.446 100.308,62.594 99.927,62.550 99.884 C 62.507 99.840,62.321 100.122,62.136 100.509 M148.446 101.400 C 148.446 101.785,148.488 101.942,148.538 101.750 C 148.588 101.558,148.588 101.243,148.538 101.050 C 148.488 100.858,148.446 101.015,148.446 101.400 M312.339 101.996 C 311.823 102.323,311.400 102.634,311.400 102.687 C 311.400 102.740,311.850 102.504,312.400 102.162 C 313.282 101.614,313.545 101.400,313.339 101.400 C 313.306 101.400,312.856 101.668,312.339 101.996 M176.589 102.750 L 175.900 103.500 176.650 102.811 C 177.348 102.169,177.492 102.000,177.339 102.000 C 177.306 102.000,176.968 102.338,176.589 102.750 M170.427 102.850 C 170.412 103.153,170.474 103.400,170.565 103.400 C 170.656 103.400,170.948 103.153,171.215 102.850 L 171.700 102.300 171.166 102.769 L 170.633 103.239 170.544 102.769 C 170.463 102.343,170.452 102.350,170.427 102.850 M257.490 104.332 C 257.198 105.195,256.872 106.530,256.766 107.300 C 256.660 108.070,256.479 109.285,256.363 110.000 C 256.248 110.715,256.096 112.830,256.027 114.700 C 255.957 116.570,255.831 117.994,255.746 117.863 C 255.577 117.603,255.223 116.104,255.065 114.982 C 254.956 114.209,255.460 109.946,255.795 108.801 C 255.908 108.417,256.000 107.899,256.000 107.649 C 256.000 107.400,256.172 106.814,256.382 106.348 C 256.592 105.882,256.914 105.005,257.096 104.400 C 257.497 103.074,257.863 102.290,257.955 102.564 C 257.991 102.674,257.783 103.470,257.490 104.332 M225.291 103.550 C 225.354 104.072,225.499 104.911,225.612 105.413 C 226.123 107.679,225.826 113.364,225.081 115.586 C 224.787 116.461,224.314 115.211,224.576 114.251 C 224.954 112.868,225.127 105.361,224.811 104.046 C 224.676 103.481,224.623 102.925,224.694 102.809 C 224.966 102.370,225.180 102.635,225.291 103.550 M60.832 103.509 C 60.497 104.244,60.561 104.401,60.924 103.732 C 61.093 103.420,61.194 103.127,61.148 103.081 C 61.102 103.036,60.960 103.228,60.832 103.509 M291.632 103.709 C 291.297 104.444,291.361 104.601,291.724 103.932 C 291.893 103.620,291.994 103.327,291.948 103.281 C 291.902 103.236,291.760 103.428,291.632 103.709 M301.700 103.800 C 301.529 104.130,301.435 104.400,301.490 104.400 C 301.545 104.400,301.729 104.130,301.900 103.800 C 302.071 103.470,302.165 103.200,302.110 103.200 C 302.055 103.200,301.871 103.470,301.700 103.800 M304.491 104.250 L 303.700 105.100 304.550 104.309 C 305.340 103.574,305.492 103.400,305.341 103.400 C 305.308 103.400,304.925 103.783,304.491 104.250 M307.297 106.450 L 304.500 109.300 307.350 106.503 C 309.998 103.904,310.291 103.600,310.147 103.600 C 310.118 103.600,308.836 104.883,307.297 106.450 M148.239 105.610 C 148.190 108.036,148.162 108.010,150.690 107.961 L 152.700 107.922 150.600 107.811 L 148.500 107.700 148.389 105.700 L 148.277 103.700 148.239 105.610 M175.087 104.534 C 174.779 104.938,174.630 105.205,174.754 105.128 C 175.010 104.970,175.876 103.800,175.737 103.800 C 175.688 103.800,175.395 104.130,175.087 104.534 M209.200 105.500 C 209.200 106.545,209.139 106.800,208.888 106.800 C 208.630 106.800,208.598 106.633,208.705 105.850 C 208.981 103.815,209.200 103.660,209.200 105.500 M109.838 105.510 C 109.235 106.750,109.302 106.923,109.923 105.730 C 110.201 105.197,110.393 104.727,110.351 104.685 C 110.310 104.643,110.078 105.014,109.838 105.510 M189.000 106.800 C 188.667 107.460,188.439 108.000,188.494 108.000 C 188.549 108.000,188.867 107.460,189.200 106.800 C 189.533 106.140,189.761 105.600,189.706 105.600 C 189.651 105.600,189.333 106.140,189.000 106.800 M128.758 106.105 C 128.696 106.322,128.584 106.680,128.510 106.900 C 128.435 107.120,128.521 107.047,128.700 106.738 C 128.879 106.429,128.990 106.071,128.948 105.943 C 128.905 105.815,128.820 105.888,128.758 106.105 M233.685 107.980 C 233.470 108.492,233.246 107.444,233.369 106.500 L 233.473 105.700 233.646 106.680 C 233.741 107.220,233.759 107.805,233.685 107.980 M300.000 106.800 C 299.776 107.240,299.637 107.600,299.692 107.600 C 299.747 107.600,299.976 107.240,300.200 106.800 C 300.424 106.360,300.563 106.000,300.508 106.000 C 300.453 106.000,300.224 106.360,300.000 106.800 M85.018 106.500 C 85.018 106.610,85.235 107.105,85.500 107.600 C 85.765 108.095,85.982 108.410,85.982 108.300 C 85.982 108.190,85.765 107.695,85.500 107.200 C 85.235 106.705,85.018 106.390,85.018 106.500 M143.191 107.300 L 143.100 108.300 142.100 108.419 L 141.100 108.537 142.026 108.569 C 143.171 108.607,143.448 108.315,143.354 107.165 L 143.283 106.300 143.191 107.300 M272.997 107.550 C 273.001 107.907,272.666 107.859,272.521 107.482 C 272.354 107.048,272.600 106.678,272.822 107.029 C 272.917 107.178,272.995 107.413,272.997 107.550 M67.632 107.709 C 67.297 108.444,67.361 108.601,67.724 107.932 C 67.893 107.620,67.994 107.327,67.948 107.281 C 67.902 107.236,67.760 107.428,67.632 107.709 M311.423 108.620 C 311.300 108.972,311.206 109.404,311.213 109.580 C 311.221 109.756,311.352 109.499,311.505 109.008 C 311.825 107.981,311.757 107.661,311.423 108.620 M99.671 110.100 C 99.670 111.090,99.704 111.520,99.746 111.056 C 99.788 110.592,99.789 109.782,99.747 109.256 C 99.706 108.730,99.672 109.110,99.671 110.100 M273.000 108.888 C 273.000 109.047,272.915 109.229,272.812 109.293 C 272.709 109.356,272.638 109.227,272.655 109.004 C 272.689 108.548,273.000 108.443,273.000 108.888 M187.632 109.509 C 187.297 110.244,187.361 110.401,187.724 109.732 C 187.893 109.420,187.994 109.127,187.948 109.081 C 187.902 109.036,187.760 109.228,187.632 109.509 M247.545 110.646 C 247.500 111.006,247.463 110.760,247.462 110.100 C 247.461 109.440,247.497 109.146,247.543 109.446 C 247.589 109.747,247.589 110.287,247.545 110.646 M303.589 110.350 L 302.900 111.100 303.650 110.411 C 304.348 109.769,304.492 109.600,304.339 109.600 C 304.306 109.600,303.968 109.938,303.589 110.350 M186.936 111.109 C 186.466 112.095,186.532 112.262,187.023 111.331 C 187.246 110.908,187.394 110.527,187.350 110.484 C 187.307 110.440,187.121 110.722,186.936 111.109 M298.216 110.850 C 298.207 111.043,298.279 111.200,298.376 111.200 C 298.472 111.200,298.675 111.043,298.826 110.850 C 299.071 110.537,299.065 110.528,298.769 110.758 C 298.499 110.969,298.420 110.969,298.335 110.758 C 298.269 110.594,298.226 110.627,298.216 110.850 M310.846 111.200 C 310.846 111.585,310.888 111.743,310.938 111.550 C 310.988 111.358,310.988 111.043,310.938 110.850 C 310.888 110.658,310.846 110.815,310.846 111.200 M134.300 111.318 L 133.700 111.833 134.350 111.403 C 134.708 111.166,135.000 110.934,135.000 110.886 C 135.000 110.737,134.915 110.789,134.300 111.318 M160.646 111.600 C 160.646 111.985,160.688 112.142,160.738 111.950 C 160.788 111.758,160.788 111.442,160.738 111.250 C 160.688 111.058,160.646 111.215,160.646 111.600 M66.158 111.505 C 66.096 111.722,65.984 112.080,65.910 112.300 C 65.835 112.520,65.921 112.447,66.100 112.138 C 66.279 111.829,66.390 111.471,66.348 111.343 C 66.305 111.215,66.220 111.288,66.158 111.505 M87.700 111.800 C 87.871 112.130,88.055 112.400,88.110 112.400 C 88.165 112.400,88.071 112.130,87.900 111.800 C 87.729 111.470,87.545 111.200,87.490 111.200 C 87.435 111.200,87.529 111.470,87.700 111.800 M302.087 112.050 L 301.500 112.700 302.150 112.113 C 302.756 111.565,302.892 111.400,302.737 111.400 C 302.703 111.400,302.410 111.692,302.087 112.050 M233.538 112.550 C 233.488 112.743,233.446 112.585,233.446 112.200 C 233.446 111.815,233.488 111.658,233.538 111.850 C 233.588 112.043,233.588 112.358,233.538 112.550 M148.270 113.400 C 148.270 114.335,148.304 114.718,148.346 114.250 C 148.389 113.783,148.389 113.017,148.346 112.550 C 148.304 112.083,148.270 112.465,148.270 113.400 M99.660 113.200 C 99.660 113.805,99.697 114.053,99.743 113.750 C 99.789 113.447,99.789 112.953,99.743 112.650 C 99.697 112.347,99.660 112.595,99.660 113.200 M119.600 112.800 C 119.365 113.130,119.218 113.400,119.273 113.400 C 119.328 113.400,119.565 113.130,119.800 112.800 C 120.035 112.470,120.182 112.200,120.127 112.200 C 120.072 112.200,119.835 112.470,119.600 112.800 M310.646 112.800 C 310.646 113.185,310.688 113.343,310.738 113.150 C 310.788 112.958,310.788 112.642,310.738 112.450 C 310.688 112.258,310.646 112.415,310.646 112.800 M142.939 112.943 C 143.259 113.002,143.399 113.197,143.457 113.662 C 143.533 114.274,143.535 114.272,143.518 113.600 C 143.502 112.997,143.431 112.897,143.000 112.881 C 142.588 112.865,142.578 112.876,142.939 112.943 M168.754 113.650 C 168.317 114.325,167.924 115.128,168.144 114.900 C 168.424 114.609,169.249 113.200,169.139 113.200 C 169.088 113.200,168.915 113.403,168.754 113.650 M107.271 115.100 C 107.270 116.090,107.304 116.520,107.346 116.056 C 107.388 115.592,107.389 114.782,107.347 114.256 C 107.306 113.730,107.272 114.110,107.271 115.100 M131.287 114.050 L 130.700 114.700 131.350 114.113 C 131.708 113.790,132.000 113.497,132.000 113.463 C 132.000 113.308,131.835 113.444,131.287 114.050 M56.232 114.109 C 55.897 114.844,55.961 115.001,56.324 114.332 C 56.493 114.020,56.594 113.727,56.548 113.681 C 56.502 113.636,56.360 113.828,56.232 114.109 M118.487 114.250 L 117.900 114.900 118.550 114.313 C 118.908 113.990,119.200 113.697,119.200 113.663 C 119.200 113.508,119.035 113.644,118.487 114.250 M140.300 114.118 L 139.700 114.633 140.350 114.203 C 140.708 113.966,141.000 113.734,141.000 113.686 C 141.000 113.537,140.915 113.589,140.300 114.118 M318.857 115.300 C 318.859 115.850,318.898 116.051,318.944 115.747 C 318.989 115.443,318.988 114.993,318.941 114.747 C 318.893 114.501,318.856 114.750,318.857 115.300 M123.200 115.700 C 122.714 116.195,122.362 116.600,122.417 116.600 C 122.472 116.600,122.914 116.195,123.400 115.700 C 123.886 115.205,124.238 114.800,124.183 114.800 C 124.128 114.800,123.686 115.205,123.200 115.700 M143.223 115.034 C 143.210 115.217,143.148 115.532,143.085 115.734 C 142.976 116.081,142.982 116.081,143.198 115.744 C 143.324 115.548,143.386 115.233,143.337 115.044 C 143.255 114.734,143.244 114.733,143.223 115.034 M310.646 115.400 C 310.646 115.785,310.688 115.942,310.738 115.750 C 310.788 115.558,310.788 115.243,310.738 115.050 C 310.688 114.858,310.646 115.015,310.646 115.400 M55.536 115.709 C 55.066 116.695,55.132 116.862,55.623 115.931 C 55.846 115.508,55.994 115.127,55.950 115.084 C 55.907 115.040,55.721 115.322,55.536 115.709 M117.287 115.650 L 116.700 116.300 117.350 115.713 C 117.708 115.390,118.000 115.097,118.000 115.063 C 118.000 114.908,117.835 115.044,117.287 115.650 M137.295 116.650 L 135.900 118.100 137.350 116.705 C 138.697 115.410,138.891 115.200,138.745 115.200 C 138.714 115.200,138.062 115.853,137.295 116.650 M148.260 116.200 C 148.260 116.805,148.297 117.053,148.343 116.750 C 148.389 116.447,148.389 115.953,148.343 115.650 C 148.297 115.347,148.260 115.595,148.260 116.200 M160.054 116.400 C 160.054 116.895,160.093 117.097,160.141 116.850 C 160.189 116.603,160.189 116.197,160.141 115.950 C 160.093 115.703,160.054 115.905,160.054 116.400 M178.057 116.900 C 178.059 117.450,178.098 117.651,178.144 117.347 C 178.189 117.043,178.188 116.593,178.141 116.347 C 178.093 116.101,178.056 116.350,178.057 116.900 M91.192 117.388 C 91.635 118.041,92.090 118.632,92.202 118.701 C 92.314 118.770,91.992 118.236,91.487 117.513 C 90.982 116.791,90.528 116.200,90.477 116.200 C 90.426 116.200,90.748 116.734,91.192 117.388 M288.057 117.100 C 288.059 117.650,288.098 117.851,288.144 117.547 C 288.189 117.243,288.188 116.793,288.141 116.547 C 288.093 116.301,288.056 116.550,288.057 117.100 M121.291 117.650 L 120.500 118.500 121.350 117.709 C 122.140 116.974,122.292 116.800,122.141 116.800 C 122.108 116.800,121.725 117.183,121.291 117.650 M189.000 117.058 C 189.719 117.421,189.745 118.119,189.067 118.872 L 188.500 119.500 189.150 118.913 C 190.066 118.084,189.842 116.792,188.784 116.803 C 188.628 116.805,188.725 116.919,189.000 117.058 M100.600 117.275 C 100.600 117.491,101.394 119.000,101.508 119.000 C 101.563 119.000,101.415 118.618,101.179 118.150 C 100.716 117.231,100.600 117.056,100.600 117.275 M323.376 117.600 C 323.748 117.688,324.129 117.882,324.223 118.030 C 324.343 118.219,324.395 118.227,324.397 118.057 C 324.401 117.735,323.742 117.395,323.163 117.420 C 322.822 117.436,322.878 117.483,323.376 117.600 M54.139 118.710 C 53.405 120.207,53.472 120.385,54.223 118.930 C 54.555 118.286,54.793 117.727,54.752 117.686 C 54.711 117.645,54.435 118.106,54.139 118.710 M311.000 117.873 C 311.000 118.111,311.574 119.400,311.680 119.400 C 311.735 119.400,311.640 119.063,311.469 118.650 C 311.148 117.876,311.000 117.631,311.000 117.873 M159.860 119.000 C 159.860 119.605,159.897 119.853,159.943 119.550 C 159.989 119.248,159.989 118.753,159.943 118.450 C 159.897 118.147,159.860 118.395,159.860 119.000 M178.200 118.073 C 178.200 118.311,178.774 119.600,178.880 119.600 C 178.935 119.600,178.840 119.263,178.669 118.850 C 178.348 118.076,178.200 117.831,178.200 118.073 M119.500 119.125 C 119.140 119.431,119.067 119.553,119.316 119.429 C 119.683 119.247,120.371 118.588,120.174 118.607 C 120.134 118.611,119.830 118.844,119.500 119.125 M141.216 119.636 C 140.861 120.206,140.693 120.572,140.842 120.448 C 141.126 120.212,142.086 118.600,141.943 118.600 C 141.897 118.600,141.570 119.066,141.216 119.636 M101.951 119.700 C 102.180 120.030,102.800 120.705,103.328 121.200 C 104.182 122.000,104.158 121.955,103.108 120.800 C 101.528 119.061,101.470 119.005,101.951 119.700 M134.651 119.850 C 134.368 120.207,133.970 121.000,134.073 121.000 C 134.121 121.000,134.346 120.685,134.573 120.300 C 134.986 119.600,135.025 119.378,134.651 119.850 M179.000 119.863 C 179.000 119.897,179.293 120.190,179.650 120.513 L 180.300 121.100 179.713 120.450 C 179.165 119.844,179.000 119.708,179.000 119.863 M266.131 121.041 C 265.999 121.547,266.081 121.697,266.387 121.508 C 266.643 121.350,266.674 120.600,266.423 120.600 C 266.326 120.600,266.195 120.799,266.131 121.041 M94.709 121.809 C 95.254 122.419,95.741 122.888,95.790 122.852 C 95.840 122.815,95.394 122.316,94.800 121.743 L 93.718 120.700 94.709 121.809 M127.846 121.600 C 127.846 121.985,127.888 122.142,127.938 121.950 C 127.988 121.758,127.988 121.442,127.938 121.250 C 127.888 121.058,127.846 121.215,127.846 121.600 M182.050 121.738 C 182.243 121.788,182.558 121.788,182.750 121.738 C 182.942 121.688,182.785 121.646,182.400 121.646 C 182.015 121.646,181.858 121.688,182.050 121.738 M54.596 122.394 C 54.828 122.721,55.121 123.051,55.246 123.128 C 55.370 123.205,55.221 122.938,54.913 122.534 C 54.244 121.658,53.992 121.546,54.596 122.394 M294.000 122.600 C 293.652 123.040,293.411 123.400,293.466 123.400 C 293.521 123.400,293.852 123.040,294.200 122.600 C 294.548 122.160,294.789 121.800,294.734 121.800 C 294.679 121.800,294.348 122.160,294.000 122.600 M133.654 122.800 C 133.654 123.295,133.693 123.498,133.741 123.250 C 133.789 123.003,133.789 122.597,133.741 122.350 C 133.693 122.103,133.654 122.305,133.654 122.800 M161.021 123.200 C 161.805 124.912,163.090 125.001,163.891 123.400 C 163.973 123.235,163.800 123.392,163.506 123.750 C 162.652 124.788,162.119 124.641,161.046 123.072 C 160.831 122.757,160.827 122.777,161.021 123.200 M56.100 124.200 C 56.530 124.640,56.926 125.000,56.981 125.000 C 57.036 125.000,56.730 124.640,56.300 124.200 C 55.870 123.760,55.474 123.400,55.419 123.400 C 55.364 123.400,55.670 123.760,56.100 124.200 M109.100 123.600 L 107.900 123.733 109.000 123.763 C 109.605 123.780,110.235 123.707,110.400 123.600 C 110.565 123.493,110.610 123.420,110.500 123.437 C 110.390 123.453,109.760 123.527,109.100 123.600 M209.600 123.893 C 209.600 124.468,211.015 124.860,211.319 124.370 C 211.516 124.050,210.839 123.600,210.162 123.600 C 209.802 123.600,209.600 123.705,209.600 123.893 M289.600 123.663 C 289.600 123.697,289.893 123.990,290.250 124.313 L 290.900 124.900 290.313 124.250 C 289.765 123.644,289.600 123.508,289.600 123.663 M292.687 124.250 L 292.100 124.900 292.750 124.313 C 293.356 123.765,293.492 123.600,293.337 123.600 C 293.303 123.600,293.010 123.892,292.687 124.250 M94.687 124.850 L 94.100 125.500 94.750 124.913 C 95.356 124.365,95.492 124.200,95.337 124.200 C 95.303 124.200,95.010 124.493,94.687 124.850 M136.100 124.716 C 135.660 124.978,135.390 125.195,135.500 125.196 C 135.740 125.199,137.000 124.449,137.000 124.303 C 137.000 124.172,137.041 124.153,136.100 124.716 M144.193 125.350 L 143.100 126.500 144.250 125.407 C 145.318 124.391,145.492 124.200,145.343 124.200 C 145.312 124.200,144.794 124.718,144.193 125.350 M216.400 124.802 C 216.400 125.454,218.344 125.849,218.807 125.292 C 219.199 124.819,218.792 124.566,217.518 124.490 C 216.531 124.431,216.400 124.468,216.400 124.802 M129.900 126.600 C 130.330 127.040,130.726 127.400,130.781 127.400 C 130.836 127.400,130.530 127.040,130.100 126.600 C 129.670 126.160,129.274 125.800,129.219 125.800 C 129.164 125.800,129.470 126.160,129.900 126.600 M86.384 126.473 C 86.650 126.801,87.400 127.297,87.400 127.145 C 87.400 127.106,87.108 126.861,86.750 126.599 C 86.348 126.305,86.208 126.257,86.384 126.473 M142.250 126.823 C 141.568 127.260,141.348 127.553,141.950 127.222 C 142.409 126.969,143.128 126.414,143.000 126.410 C 142.945 126.408,142.608 126.594,142.250 126.823 M260.200 127.170 C 260.200 127.996,262.636 128.260,262.941 127.466 C 263.093 127.070,263.060 127.056,261.550 126.896 C 260.270 126.761,260.200 126.775,260.200 127.170 M267.733 127.134 C 267.531 127.336,268.212 128.000,268.622 128.000 C 269.181 128.000,270.000 127.565,270.000 127.268 C 270.000 126.985,268.000 126.867,267.733 127.134 M88.250 127.538 C 88.442 127.588,88.758 127.588,88.950 127.538 C 89.142 127.488,88.985 127.446,88.600 127.446 C 88.215 127.446,88.058 127.488,88.250 127.538 M136.050 129.138 C 136.243 129.188,136.558 129.188,136.750 129.138 C 136.942 129.088,136.785 129.046,136.400 129.046 C 136.015 129.046,135.858 129.088,136.050 129.138 " stroke="none" fill="#c5b0e2" fill-rule="evenodd"></path></g></svg>