<?xml version="1.0" standalone="no"?>
<!DOCTYPE svg PUBLIC "-//W3C//DTD SVG 20010904//EN"
 "http://www.w3.org/TR/2001/REC-SVG-20010904/DTD/svg10.dtd">
<svg version="1.0" xmlns="http://www.w3.org/2000/svg"
 width="300.000000pt" height="200.000000pt" viewBox="0 0 300.000000 200.000000"
 preserveAspectRatio="xMidYMid meet">
<metadata>
Created by potrace 1.10, written by Peter Selinger 2001-2011
</metadata>
<g transform="translate(0.000000,200.000000) scale(0.100000,-0.100000)"
fill="#15684a" stroke="none">
<path d="M1306 1051 c-76 -114 -136 -277 -136 -369 0 -61 16 -60 47 4 27 55
136 184 147 174 3 -4 -6 -28 -20 -55 -41 -82 -50 -123 -31 -142 13 -14 20 -14
46 -3 30 12 35 35 6 23 -8 -3 -15 0 -15 6 0 19 57 126 85 159 l26 31 -23 15
c-42 30 -68 20 -135 -48 -35 -36 -63 -59 -63 -52 0 29 81 177 129 234 29 35
51 65 49 66 -9 9 -48 26 -57 26 -5 0 -30 -31 -55 -69z"/>
<path d="M555 1063 c-45 -6 -155 -43 -155 -53 0 -4 8 -18 18 -30 l18 -22 34
21 c39 23 50 26 50 11 0 -6 -31 -83 -70 -173 l-70 -162 26 -23 c31 -27 40 -23
47 20 3 18 17 65 33 104 37 95 52 91 88 -26 27 -88 48 -120 78 -120 9 0 21 7
28 15 9 11 7 21 -13 47 -27 37 -77 132 -77 148 0 5 10 10 22 10 37 0 104 47
122 85 31 65 -3 128 -81 146 -39 9 -46 9 -98 2z m149 -59 c56 -55 -35 -144
-147 -144 l-27 0 37 73 c20 39 36 75 35 80 -4 14 86 7 102 -9z"/>
<path d="M1597 1006 c-8 -9 -21 -32 -27 -51 -8 -23 -27 -46 -57 -66 -58 -40
-83 -82 -83 -139 0 -57 19 -85 78 -113 112 -53 242 8 242 113 0 45 -14 69 -78
127 -56 51 -57 52 -45 84 11 27 10 36 -1 47 -11 11 -16 11 -29 -2z m11 -49
c-8 -27 -6 -43 15 -92 14 -33 28 -77 32 -97 8 -40 -8 -99 -31 -118 -12 -11
-12 -7 1 23 22 53 18 123 -10 187 -13 30 -24 50 -25 44 0 -7 9 -31 20 -55 31
-70 23 -166 -17 -196 -38 -29 -81 44 -69 118 8 48 36 110 48 103 4 -3 8 4 8
15 0 12 -4 21 -8 21 -17 0 -62 -109 -63 -152 -1 -40 -2 -41 -9 -13 l-8 30 -1
-30 c0 -16 6 -43 14 -59 21 -39 14 -42 -23 -11 -37 31 -50 82 -32 125 7 17 35
49 62 72 30 25 58 59 69 86 22 50 42 49 27 -1z m87 -137 c24 -47 27 -87 10
-125 -10 -19 -21 -35 -26 -35 -6 0 -5 10 2 21 19 36 5 114 -30 172 l-33 52 32
-30 c17 -16 38 -41 45 -55z"/>
<path d="M1923 989 c-9 -9 -10 -16 -2 -26 7 -8 8 -24 3 -40 -4 -16 -8 -31 -8
-36 -1 -4 -13 -22 -27 -40 -47 -59 -62 -96 -57 -149 4 -38 2 -46 -7 -38 -42
35 -22 124 42 186 52 51 49 54 -12 18 -76 -44 -104 -118 -71 -182 16 -31 68
-72 90 -72 8 0 18 -5 21 -10 15 -24 155 19 178 54 43 64 27 139 -43 203 -30
28 -44 51 -53 88 -12 51 -32 66 -54 44z m51 -70 c3 -14 24 -46 46 -72 46 -52
89 -140 60 -122 -5 3 -7 0 -4 -9 8 -20 -23 -64 -57 -82 -40 -20 -41 -18 -13
24 20 29 24 45 20 72 -9 58 -38 146 -44 131 -2 -7 1 -30 8 -51 16 -49 8 -125
-17 -158 -24 -32 -34 -36 -57 -19 -38 28 -30 144 15 209 28 39 23 47 -5 10
-33 -46 -50 -113 -43 -175 6 -52 6 -52 -10 -23 -22 41 -12 93 37 192 24 48 40
90 36 100 -3 9 -3 21 1 27 7 12 18 -9 27 -54z"/>
<path d="M1058 909 c-28 -27 -30 -34 -25 -77 3 -26 8 -54 12 -64 5 -12 -1 -18
-24 -23 -65 -14 -110 -88 -76 -125 43 -48 122 -7 132 68 4 32 12 46 27 52 21
9 21 9 -1 9 -20 1 -23 6 -23 40 0 23 8 48 18 61 24 29 44 18 35 -18 -5 -24 -4
-25 9 -14 30 24 27 59 -6 91 -18 17 -35 31 -40 31 -4 0 -21 -14 -38 -31z m-13
-211 c-9 -29 -55 -79 -67 -72 -16 10 -8 36 21 65 36 35 55 38 46 7z"/>
<path d="M819 897 c-85 -57 -123 -183 -72 -239 52 -57 176 31 196 140 7 37 -7
82 -25 82 -7 0 -19 9 -26 20 -16 26 -31 25 -73 -3z m82 -44 c5 -71 -14 -125
-57 -163 -41 -35 -60 -38 -67 -10 -11 43 32 132 81 169 33 25 42 26 43 4z"/>
<path d="M2172 858 c-57 -118 -76 -229 -39 -228 6 1 30 26 52 56 41 58 113
129 122 121 2 -3 -3 -19 -11 -36 -19 -36 -21 -92 -4 -109 16 -16 50 -15 74 3
19 14 19 14 -3 15 -12 0 -24 4 -28 9 -8 14 24 102 51 138 29 38 29 40 4 53
-30 16 -67 -8 -144 -91 -36 -39 -66 -66 -66 -60 0 6 18 41 41 76 40 63 40 66
25 90 -9 14 -22 25 -30 25 -7 0 -27 -28 -44 -62z"/>
</g>
</svg>
